<svg width="250" height="250" viewBox="0 0 250 250" fill="none" xmlns="http://www.w3.org/2000/svg">
<path d="M97.645 25.69C97.905 23.825 95.265 22.29 93.285 22.13C92.34 22.05 91.36 22.195 90.465 21.885C88.53 21.21 87.755 18.705 85.86 17.885C84.445 17.29 82.82 17.82 81.45 18.51C80.08 19.2 78.72 20.07 77.19 20.17C75.86 20.255 74.41 19.76 73.245 20.41C72.375 20.91 71.92 21.91 71.12 22.485C70.2875 22.9998 69.3236 23.262 68.345 23.24C67.3693 23.2136 66.3973 23.3713 65.48 23.705C64.595 24.11 63.865 25.05 64.05 26.005L97.645 25.69Z" fill="#F5F5F5"/>
<path d="M230.4 136.045C230.83 132.94 226.445 130.385 223.15 130.12C221.58 129.99 219.95 130.23 218.46 129.71C215.24 128.59 213.96 124.425 210.805 123.095C208.455 122.095 205.745 122.99 203.465 124.135C201.185 125.28 198.935 126.725 196.385 126.89C194.17 127.03 191.765 126.21 189.825 127.295C188.38 128.1 187.625 129.765 186.295 130.745C184.965 131.725 183.295 131.91 181.675 132C180.055 132.09 178.385 132.1 176.915 132.775C175.445 133.45 174.225 135.005 174.53 136.595L230.4 136.045Z" fill="#EBEBEB"/>
<path d="M63.7 60.265C64.025 57.89 60.67 55.935 58.15 55.73C56.95 55.635 55.705 55.82 54.565 55.42C52.1 54.56 51.115 51.375 48.705 50.36C46.91 49.6 44.835 50.28 43.09 51.155C41.345 52.03 39.625 53.155 37.675 53.265C35.98 53.37 34.14 52.765 32.675 53.57C31.57 54.19 30.995 55.46 29.975 56.21C28.955 56.96 27.68 57.105 26.44 57.17C25.2 57.235 23.94 57.25 22.8 57.765C21.66 58.28 20.745 59.47 20.975 60.685L63.7 60.265Z" fill="#F5F5F5"/>
<path d="M196.435 189.69L185.31 237.99L190.015 237.975L201.16 190.145L196.435 189.69Z" fill="#E0E0E0"/>
<path d="M216.725 189.69L227.89 237.99H232.36L221.56 189.69H216.725Z" fill="#E0E0E0"/>
<path d="M188.925 153.415L195.26 186.67H202.455L195.69 153.415H188.925Z" fill="#E0E0E0"/>
<path d="M78.61 189.69L69.535 237.99H74.155L83.635 189.69H78.61Z" fill="#E0E0E0"/>
<path d="M97.69 189.69L108.06 237.725H112.625L102.61 189.69H97.69Z" fill="#E0E0E0"/>
<path d="M71.1 153.415L77.435 186.67H84.63L77.865 153.415H71.1Z" fill="#E0E0E0"/>
<path d="M56.85 150.395L58.145 156.44H202.67L200.985 150.395H56.85Z" fill="#EBEBEB"/>
<path d="M59.61 162.135L61.14 168.18H204.685L203.38 162.135H59.61Z" fill="#EBEBEB"/>
<path d="M62.465 174.29L63.885 180.335H206.99L205.635 174.29H62.465Z" fill="#EBEBEB"/>
<path d="M227.72 186.67H73.405V192.715H227.72V186.67Z" fill="#EBEBEB"/>
<path d="M165.19 111.8C163.998 111.8 162.826 111.487 161.793 110.892C160.76 110.297 159.901 109.44 159.304 108.409C158.706 107.377 158.39 106.206 158.388 105.014C158.385 103.821 158.696 102.649 159.29 101.615L178.79 67.615C179.378 66.5746 180.233 65.7098 181.267 65.1096C182.3 64.5094 183.475 64.1954 184.67 64.2C185.861 64.1929 187.033 64.5021 188.066 65.0959C189.099 65.6896 189.956 66.5469 190.55 67.58L210.25 101.465C210.849 102.497 211.166 103.669 211.169 104.863C211.172 106.056 210.861 107.23 210.267 108.265C209.674 109.3 208.818 110.161 207.786 110.762C206.755 111.362 205.584 111.68 204.39 111.685L165.195 111.805L165.19 111.8ZM184.69 66.225C183.851 66.2224 183.027 66.4434 182.302 66.8653C181.577 67.2871 180.977 67.8945 180.565 68.625L161.065 102.625C160.649 103.35 160.43 104.172 160.432 105.008C160.433 105.844 160.654 106.666 161.073 107.389C161.492 108.113 162.094 108.714 162.818 109.132C163.542 109.55 164.364 109.77 165.2 109.77L204.395 109.65C205.229 109.645 206.048 109.421 206.769 109.001C207.489 108.581 208.087 107.979 208.503 107.255C208.918 106.531 209.137 105.712 209.136 104.877C209.136 104.043 208.916 103.223 208.5 102.5L188.8 68.62C188.388 67.8919 187.79 67.2865 187.067 66.8656C186.344 66.4448 185.522 66.2237 184.685 66.225H184.69Z" fill="#EBEBEB"/>
<path d="M180.86 80.935L181.775 93.62C181.81 94.1206 182.027 94.5909 182.386 94.942C182.744 95.2931 183.219 95.5005 183.72 95.525C184.247 95.5522 184.765 95.3759 185.166 95.0326C185.567 94.6893 185.821 94.2051 185.875 93.68L187.175 80.915C187.198 80.6871 187.172 80.457 187.099 80.2398C187.026 80.0226 186.908 79.8234 186.753 79.6552C186.597 79.487 186.408 79.3536 186.197 79.264C185.986 79.1743 185.759 79.1304 185.53 79.135L182.435 79.205C182.216 79.2099 182.001 79.2591 181.802 79.3498C181.603 79.4404 181.424 79.5706 181.277 79.7324C181.129 79.8942 181.016 80.0842 180.945 80.2909C180.873 80.4977 180.844 80.7168 180.86 80.935Z" fill="#EBEBEB"/>
<path d="M187.145 102.635C186.957 103.217 186.6 103.73 186.12 104.11C185.64 104.489 185.059 104.718 184.449 104.767C183.839 104.816 183.229 104.684 182.694 104.386C182.16 104.088 181.725 103.639 181.446 103.095C181.167 102.55 181.056 101.935 181.126 101.328C181.196 100.72 181.444 100.147 181.84 99.68C182.236 99.2135 182.761 98.8748 183.349 98.7066C183.938 98.5384 184.562 98.5483 185.145 98.735C185.533 98.8593 185.892 99.0589 186.203 99.3223C186.513 99.5857 186.768 99.9077 186.954 100.27C187.14 100.632 187.252 101.028 187.285 101.434C187.318 101.839 187.27 102.248 187.145 102.635Z" fill="#EBEBEB"/>
<path d="M234.905 237.93C234.905 238 185.695 238.06 125.005 238.06C64.315 238.06 15.095 238 15.095 237.93C15.095 237.86 64.295 237.8 125.005 237.8C185.715 237.8 234.905 237.855 234.905 237.93Z" fill="#263238"/>
<path d="M158.76 184.29L108.26 184.255C102.19 184.255 97.26 179.08 97.26 172.7V39.7C97.26 33.32 102.19 28.145 108.26 28.15L158.735 28.18C164.81 28.18 169.735 33.355 169.735 39.735L169.71 172.735C169.76 179.12 164.835 184.29 158.76 184.29Z" fill="#263238"/>
<path d="M158.745 32.89H148.955C148.294 32.9224 147.674 33.2152 147.228 33.7044C146.783 34.1936 146.55 34.8393 146.58 35.5V37.365C146.61 38.0265 146.376 38.6729 145.93 39.1622C145.484 39.6516 144.861 39.9439 144.2 39.975H125.125C124.463 39.9426 123.842 39.6491 123.397 39.1588C122.951 38.6685 122.719 38.0216 122.75 37.36V35.5C122.78 34.8393 122.547 34.1936 122.102 33.7044C121.656 33.2152 121.036 32.9224 120.375 32.89H108.375C104.12 32.89 100.67 36.515 100.67 40.985V170.795C100.67 175.26 104.115 178.885 108.365 178.89L158.745 178.92C163 178.92 166.45 175.3 166.45 170.83L166.44 41C166.44 36.5 163 32.89 158.745 32.89Z" fill="white"/>
<path d="M114.4 166.635V169.81C114.4 169.872 114.383 169.933 114.351 169.987C114.319 170.04 114.274 170.084 114.219 170.114C114.165 170.144 114.103 170.159 114.041 170.158C113.979 170.156 113.918 170.138 113.865 170.105L111.365 168.515C111.315 168.483 111.275 168.44 111.246 168.388C111.218 168.337 111.203 168.279 111.203 168.22C111.203 168.161 111.218 168.103 111.246 168.052C111.275 168 111.315 167.957 111.365 167.925L113.865 166.335C113.918 166.302 113.979 166.284 114.042 166.282C114.105 166.281 114.167 166.296 114.221 166.327C114.276 166.357 114.321 166.402 114.353 166.456C114.384 166.511 114.401 166.572 114.4 166.635Z" fill="#E0E0E0"/>
<path d="M134.93 168.19C134.929 168.623 134.8 169.046 134.558 169.405C134.317 169.765 133.975 170.045 133.575 170.21C133.174 170.375 132.734 170.417 132.31 170.332C131.885 170.247 131.495 170.038 131.19 169.732C130.884 169.425 130.676 169.035 130.592 168.61C130.508 168.186 130.551 167.746 130.717 167.346C130.883 166.946 131.164 166.604 131.524 166.364C131.884 166.123 132.307 165.995 132.74 165.995C133.321 165.996 133.878 166.228 134.289 166.64C134.699 167.051 134.93 167.609 134.93 168.19Z" fill="#E0E0E0"/>
<path d="M153.765 166.28H151.595C151.079 166.28 150.66 166.699 150.66 167.215V169.395C150.66 169.911 151.079 170.33 151.595 170.33H153.765C154.281 170.33 154.7 169.911 154.7 169.395V167.215C154.7 166.699 154.281 166.28 153.765 166.28Z" fill="#E0E0E0"/>
<path d="M157.9 96.0804C161.125 82.729 152.916 69.2912 139.565 66.0661C126.213 62.841 112.776 71.05 109.55 84.4013C106.325 97.7526 114.534 111.19 127.886 114.416C141.237 117.641 154.675 109.432 157.9 96.0804Z" fill="#F5F5F5"/>
<path d="M134.835 101.19C134.834 101.597 134.712 101.994 134.486 102.331C134.259 102.669 133.937 102.931 133.561 103.086C133.184 103.24 132.771 103.28 132.372 103.199C131.974 103.118 131.608 102.921 131.322 102.633C131.035 102.344 130.841 101.977 130.763 101.578C130.685 101.179 130.728 100.766 130.885 100.39C131.042 100.015 131.307 99.6955 131.646 99.4711C131.985 99.2467 132.383 99.128 132.79 99.13C133.334 99.134 133.854 99.3527 134.237 99.7386C134.62 100.125 134.835 100.646 134.835 101.19Z" fill="#455A64"/>
<path d="M128.675 98.55C129.199 97.9856 129.833 97.5334 130.537 97.2208C131.241 96.9083 132.001 96.7418 132.771 96.7315C133.542 96.7212 134.306 96.8673 135.018 97.161C135.731 97.4547 136.376 97.8898 136.915 98.44C137.965 99.5 139.605 97.875 138.555 96.815C137.8 96.0543 136.901 95.4523 135.91 95.0444C134.919 94.6365 133.857 94.4309 132.785 94.4398C131.713 94.4486 130.654 94.6717 129.67 95.096C128.686 95.5202 127.797 96.137 127.055 96.91C126.03 97.985 127.655 99.63 128.685 98.55H128.675Z" fill="#455A64"/>
<path d="M121.695 89C124.82 86.3 128.55 84.6 132.725 84.59C136.893 84.5305 140.926 86.0651 144 88.88C145.08 89.88 146.725 88.275 145.64 87.255C142.136 84.0094 137.526 82.2214 132.75 82.255C127.945 82.255 123.675 84.255 120.08 87.34C118.955 88.315 120.58 89.95 121.71 88.98L121.695 89Z" fill="#455A64"/>
<path d="M124.45 94.285C125.492 93.1222 126.763 92.188 128.184 91.5412C129.605 90.8944 131.145 90.549 132.706 90.5269C134.267 90.5049 135.816 90.8065 137.255 91.4129C138.693 92.0192 139.991 92.9172 141.065 94.05C142.105 95.115 143.745 93.49 142.705 92.42C141.416 91.0729 139.864 90.0048 138.146 89.2821C136.427 88.5594 134.578 88.1973 132.714 88.2184C130.849 88.2395 129.009 88.6433 127.307 89.4047C125.606 90.1662 124.078 91.269 122.82 92.645C121.82 93.735 123.435 95.38 124.45 94.285Z" fill="#455A64"/>
<path d="M152.196 84.6438C152.803 81.2149 150.515 77.9435 147.086 77.3371C143.657 76.7306 140.385 79.0187 139.779 82.4476C139.173 85.8766 141.461 89.1479 144.89 89.7544C148.318 90.3608 151.59 88.0728 152.196 84.6438Z" fill="#18A0A0"/>
<path d="M148.586 81.7827L147.692 80.8882L143.686 84.894L144.581 85.7885L148.586 81.7827Z" fill="white"/>
<path d="M144.583 80.8836L143.688 81.778L147.694 85.7838L148.588 84.8893L144.583 80.8836Z" fill="white"/>
<path d="M132.055 46.775C132.368 46.587 132.704 46.4407 133.055 46.34L133.26 45.34L134.925 45.31L135.165 46.31C135.515 46.3986 135.851 46.5331 136.165 46.71L137 46.15L138.2 47.31L137.675 48.17C137.863 48.4829 138.009 48.8191 138.11 49.17L139.11 49.375L139.14 51.045L138.14 51.28C138.053 51.6293 137.92 51.9656 137.745 52.28L138.295 53.12L137.14 54.32L136.28 53.82C135.967 54.0062 135.631 54.1507 135.28 54.25L135.075 55.25L133.41 55.28L133.17 54.28C132.821 54.1904 132.485 54.056 132.17 53.88L131.325 54.43L130.125 53.275L130.65 52.415C130.461 52.1024 130.315 51.7661 130.215 51.415L129.215 51.21L129.185 49.545L130.185 49.305C130.273 48.956 130.406 48.6198 130.58 48.305L130.03 47.46L131.19 46.265L132.05 46.765L132.055 46.775ZM132.94 49C132.694 49.2547 132.529 49.5766 132.466 49.9251C132.403 50.2735 132.445 50.6328 132.586 50.9575C132.727 51.2822 132.962 51.5577 133.26 51.7492C133.557 51.9407 133.905 52.0396 134.259 52.0333C134.613 52.027 134.958 51.9158 135.248 51.7138C135.539 51.5119 135.764 51.2282 135.893 50.8987C136.023 50.5692 136.052 50.2086 135.977 49.8626C135.901 49.5166 135.725 49.2008 135.47 48.955C135.128 48.6256 134.67 48.4454 134.196 48.4538C133.721 48.4623 133.27 48.6587 132.94 49Z" fill="#E0E0E0"/>
<path d="M110.91 50.5C110.41 50.5 109.715 50.5 109.05 50.5C108.255 50.5 107.46 50.5 106.905 50.5C106.839 50.5 106.775 50.4737 106.728 50.4268C106.681 50.3799 106.655 50.3163 106.655 50.25C106.654 50.2174 106.66 50.185 106.672 50.1547C106.684 50.1244 106.702 50.0968 106.725 50.0735C106.748 50.0502 106.775 50.0317 106.805 50.0191C106.835 50.0065 106.867 50 106.9 50C107.455 50 108.26 50 109.06 50C109.86 50 110.65 50.03 111.205 50C111.238 49.9993 111.27 50.0052 111.3 50.0172C111.331 50.0292 111.358 50.0471 111.382 50.07C111.405 50.0928 111.423 50.12 111.436 50.1501C111.449 50.1801 111.455 50.2124 111.455 50.245C111.456 50.2778 111.45 50.3105 111.438 50.3411C111.426 50.3716 111.408 50.3996 111.385 50.4232C111.363 50.4469 111.335 50.4659 111.305 50.4791C111.275 50.4922 111.243 50.4993 111.21 50.5H110.91Z" fill="#263238"/>
<path d="M108.425 52.18C108.39 52.1793 108.356 52.1714 108.324 52.1567C108.292 52.1421 108.263 52.1211 108.24 52.095L106.74 50.38C106.699 50.3328 106.677 50.2724 106.677 50.21C106.677 50.1476 106.699 50.0872 106.74 50.04L108.24 48.48C108.262 48.4535 108.289 48.4317 108.32 48.4162C108.35 48.4006 108.384 48.3915 108.418 48.3895C108.453 48.3875 108.487 48.3926 108.519 48.4045C108.552 48.4164 108.581 48.4348 108.606 48.4586C108.631 48.4824 108.65 48.5111 108.664 48.5428C108.677 48.5745 108.683 48.6087 108.683 48.6431C108.682 48.6774 108.675 48.7114 108.66 48.7427C108.646 48.774 108.626 48.802 108.6 48.825L107.275 50.22L108.645 51.765C108.677 51.8012 108.698 51.8459 108.705 51.8937C108.712 51.9414 108.705 51.9902 108.685 52.0341C108.664 52.0779 108.632 52.1151 108.591 52.141C108.551 52.1669 108.503 52.1804 108.455 52.18H108.425Z" fill="#263238"/>
<path d="M159.965 49.045C160.393 49.045 160.74 48.698 160.74 48.27C160.74 47.842 160.393 47.495 159.965 47.495C159.537 47.495 159.19 47.842 159.19 48.27C159.19 48.698 159.537 49.045 159.965 49.045Z" fill="#263238"/>
<path d="M160.74 50.72C160.741 50.8747 160.696 51.0262 160.611 51.1552C160.525 51.2842 160.404 51.385 160.261 51.4446C160.118 51.5043 159.961 51.5202 159.809 51.4902C159.657 51.4603 159.518 51.3859 159.408 51.2765C159.299 51.1671 159.225 51.0277 159.195 50.8759C159.165 50.7242 159.181 50.5669 159.24 50.4242C159.3 50.2815 159.401 50.1597 159.53 50.0744C159.659 49.989 159.81 49.944 159.965 49.945C160.171 49.945 160.368 50.0266 160.513 50.172C160.658 50.3173 160.74 50.5145 160.74 50.72Z" fill="#263238"/>
<path d="M159.965 53.945C160.393 53.945 160.74 53.598 160.74 53.17C160.74 52.742 160.393 52.395 159.965 52.395C159.537 52.395 159.19 52.742 159.19 53.17C159.19 53.598 159.537 53.945 159.965 53.945Z" fill="#263238"/>
<path d="M116.88 124.445C115.701 124.574 114.515 124.617 113.33 124.575C112.147 124.617 110.962 124.574 109.785 124.445C110.962 124.316 112.147 124.273 113.33 124.315C114.515 124.273 115.701 124.316 116.88 124.445Z" fill="#263238"/>
<path d="M129.615 132.745C129.615 132.815 125.255 132.875 119.88 132.875C114.505 132.875 110.145 132.815 110.145 132.745C110.145 132.675 114.5 132.615 119.88 132.615C125.26 132.615 129.615 132.675 129.615 132.745Z" fill="#263238"/>
<path d="M129.615 141C129.615 141.07 125.255 141.13 119.88 141.13C114.505 141.13 110.145 141.07 110.145 141C110.145 140.93 114.5 140.87 119.88 140.87C125.26 140.87 129.615 140.92 129.615 141Z" fill="#263238"/>
<path d="M155.35 129.63H148.23C146.51 129.63 145.115 131.024 145.115 132.742C145.115 134.461 146.51 135.855 148.23 135.855H155.35C157.07 135.855 158.465 134.461 158.465 132.742C158.465 131.024 157.07 129.63 155.35 129.63Z" fill="#EBEBEB"/>
<path d="M150.8 132.745C150.8 133.261 150.647 133.766 150.36 134.195C150.073 134.624 149.666 134.959 149.189 135.156C148.712 135.354 148.187 135.406 147.681 135.305C147.175 135.204 146.709 134.956 146.344 134.591C145.979 134.226 145.731 133.76 145.63 133.254C145.529 132.748 145.581 132.223 145.779 131.746C145.976 131.269 146.311 130.862 146.74 130.575C147.169 130.288 147.674 130.135 148.19 130.135C148.533 130.135 148.872 130.203 149.189 130.334C149.505 130.465 149.793 130.657 150.036 130.899C150.278 131.142 150.47 131.43 150.601 131.746C150.732 132.063 150.8 132.402 150.8 132.745Z" fill="#E0E0E0"/>
<path d="M155.355 144.105H148.23C147.404 144.105 146.612 143.777 146.027 143.193C145.443 142.608 145.115 141.816 145.115 140.99C145.115 140.164 145.443 139.372 146.027 138.787C146.612 138.203 147.404 137.875 148.23 137.875H155.355C156.181 137.875 156.973 138.203 157.558 138.787C158.142 139.372 158.47 140.164 158.47 140.99C158.47 141.816 158.142 142.608 157.558 143.193C156.973 143.777 156.181 144.105 155.355 144.105Z" fill="#EBEBEB"/>
<path d="M148.19 143.6C149.631 143.6 150.8 142.431 150.8 140.99C150.8 139.549 149.631 138.38 148.19 138.38C146.749 138.38 145.58 139.549 145.58 140.99C145.58 142.431 146.749 143.6 148.19 143.6Z" fill="#E0E0E0"/>
<path d="M129.615 149.29C129.615 149.365 125.255 149.42 119.88 149.42C114.505 149.42 110.145 149.365 110.145 149.29C110.145 149.215 114.5 149.16 119.88 149.16C125.26 149.16 129.615 149.22 129.615 149.29Z" fill="#263238"/>
<path d="M155.355 153.325H148.23C147.821 153.326 147.416 153.246 147.038 153.09C146.66 152.934 146.317 152.705 146.028 152.416C145.738 152.127 145.509 151.784 145.352 151.406C145.196 151.029 145.115 150.624 145.115 150.215C145.115 149.389 145.443 148.597 146.027 148.012C146.612 147.428 147.404 147.1 148.23 147.1H155.355C156.181 147.1 156.973 147.428 157.558 148.012C158.142 148.597 158.47 149.389 158.47 150.215C158.47 150.624 158.389 151.029 158.233 151.406C158.076 151.784 157.847 152.127 157.557 152.416C157.268 152.705 156.925 152.934 156.547 153.09C156.169 153.246 155.764 153.326 155.355 153.325Z" fill="#EBEBEB"/>
<path d="M148.19 152.825C149.631 152.825 150.8 151.656 150.8 150.215C150.8 148.774 149.631 147.605 148.19 147.605C146.749 147.605 145.58 148.774 145.58 150.215C145.58 151.656 146.749 152.825 148.19 152.825Z" fill="#E0E0E0"/>
<path d="M214.835 41.6288C215.553 37.1852 212.532 33.0014 208.088 32.2841C203.645 31.5668 199.461 34.5876 198.744 39.0312C198.026 43.4748 201.047 47.6585 205.491 48.3758C209.934 49.0931 214.118 46.0724 214.835 41.6288Z" fill="#18A0A0"/>
<path d="M205.63 58.555C205.585 58.555 205.545 57.055 205.545 55.19C205.545 53.325 205.585 51.83 205.63 51.83C205.717 52.9478 205.745 54.0693 205.715 55.19C205.745 56.3124 205.717 57.4356 205.63 58.555Z" fill="#18A0A0"/>
<path d="M200.935 49.935C200.975 49.935 200.21 51.365 199.225 53.07C198.24 54.775 197.405 56.145 197.365 56.12C197.325 56.095 198.09 54.695 199.075 52.985C200.06 51.275 200.895 49.91 200.935 49.935Z" fill="#18A0A0"/>
<path d="M196.115 46.935C195.52 47.5185 194.885 48.0598 194.215 48.555C193.581 49.0968 192.913 49.5978 192.215 50.055C192.81 49.4715 193.445 48.9302 194.115 48.435C194.747 47.8905 195.415 47.3893 196.115 46.935Z" fill="#18A0A0"/>
<path d="M213.76 55.24C213.662 54.9724 213.59 54.6962 213.545 54.415C213.43 53.915 213.26 53.195 213.045 52.415C212.83 51.635 212.625 50.945 212.47 50.445C212.366 50.1784 212.289 49.902 212.24 49.62C212.382 49.8687 212.498 50.1319 212.585 50.405C212.77 50.905 213 51.59 213.21 52.37C213.42 53.15 213.565 53.87 213.655 54.37C213.721 54.6554 213.756 54.9471 213.76 55.24Z" fill="#18A0A0"/>
<path d="M222.025 49.375C221.186 48.7524 220.382 48.0848 219.615 47.375C218.812 46.7107 218.046 46.003 217.32 45.255C218.159 45.8776 218.964 46.5452 219.73 47.255C220.533 47.9193 221.299 48.627 222.025 49.375Z" fill="#18A0A0"/>
<path d="M225.19 41.315C224.854 41.2943 224.519 41.2475 224.19 41.175C223.585 41.075 222.75 40.945 221.825 40.84C220.9 40.735 220.055 40.67 219.445 40.63C219.11 40.6293 218.775 40.6009 218.445 40.545C218.776 40.4999 219.111 40.4882 219.445 40.51C220.06 40.51 220.91 40.565 221.84 40.67C222.77 40.775 223.61 40.925 224.21 41.055C224.544 41.1113 224.872 41.1983 225.19 41.315Z" fill="#18A0A0"/>
<path d="M225.2 33.39C225.2 33.44 223.45 33.89 221.26 34.44C219.07 34.99 217.29 35.365 217.26 35.32C217.23 35.275 219.015 34.82 221.2 34.275C223.385 33.73 225.19 33.345 225.2 33.39Z" fill="#18A0A0"/>
<path d="M216 24.16C216.035 24.16 215.195 25.53 214.115 27.16C213.035 28.79 212.115 30.1 212.085 30.07C212.055 30.04 212.89 28.7 213.97 27.07C214.597 26.0662 215.274 25.095 216 24.16Z" fill="#18A0A0"/>
<path d="M206.855 22.23C206.881 22.6029 206.881 22.9771 206.855 23.35C206.855 24.04 206.855 24.99 206.855 26.04C206.855 27.09 206.855 28.04 206.885 28.74C206.911 29.1112 206.911 29.4838 206.885 29.855C206.814 29.4891 206.775 29.1177 206.77 28.745C206.73 28.055 206.695 27.1 206.695 26.045C206.695 24.99 206.725 24.045 206.765 23.345C206.761 22.9714 206.791 22.5982 206.855 22.23Z" fill="#18A0A0"/>
<path d="M199.935 30.845C199.895 30.87 199.035 29.54 198.02 27.875C197.005 26.21 196.205 24.835 196.245 24.81C196.285 24.785 197.145 26.12 198.165 27.81C199.185 29.5 200 30.825 199.935 30.845Z" fill="#18A0A0"/>
<path d="M195.8 34.36C195.507 34.3481 195.217 34.3028 194.935 34.225C194.405 34.11 193.68 33.935 192.885 33.725C192.09 33.515 191.385 33.225 190.885 33.05C190.605 32.9611 190.336 32.8439 190.08 32.7C190.369 32.7525 190.652 32.8329 190.925 32.94C191.425 33.1 192.15 33.33 192.925 33.56C193.7 33.79 194.425 33.99 194.955 34.13C195.243 34.1798 195.526 34.2568 195.8 34.36Z" fill="#18A0A0"/>
<path d="M194 40.62C193.142 40.7915 192.273 40.9035 191.4 40.955C190.533 41.0665 189.659 41.1233 188.785 41.125C189.643 40.9527 190.512 40.8391 191.385 40.785C192.252 40.6763 193.126 40.6212 194 40.62Z" fill="#18A0A0"/>
<path d="M188.44 185.87L195.73 237.805L197.63 237.865C196.42 220.225 195.13 202.235 188.44 185.87Z" fill="#455A64"/>
<path d="M208.695 183.435C203.6 189 201.55 196.695 200.26 204.14C198.43 214.695 198.26 227.165 198.815 237.865L201.475 237.925C200.421 219.469 202.871 200.98 208.695 183.435Z" fill="#455A64"/>
<path d="M189.78 216.595C189.195 214.02 188.525 211.405 187.055 209.21C185.055 206.25 181.84 204.38 178.585 202.92C175.33 201.46 171.915 200.3 168.975 198.28C172.255 203.655 179.695 205.085 183.475 210.115C185.36 212.615 186.145 215.755 186.88 218.8C188.495 225.44 189.485 231.185 191.095 237.8H193.255C192.544 230.666 191.384 223.583 189.78 216.595Z" fill="#455A64"/>
<path d="M203.42 237.865C203.42 237.865 205.245 217.24 206.6 213.45C207.955 209.66 220.755 199.2 220.635 199.695C220.515 200.19 211.03 211.635 209.675 214C208.32 216.365 206 237.865 206 237.865H203.42Z" fill="#455A64"/>
<path d="M142.91 216.295C143.415 216.497 143.875 216.799 144.261 217.183C144.646 217.567 144.951 218.025 145.155 218.53C145.563 219.543 145.734 220.636 145.655 221.725C145.55 223.825 144.505 226.01 143.335 227.76C141.48 226.34 140.905 223.695 140.695 222.33C140.365 220.18 141.075 216.09 142.92 216.295" fill="#18A0A0"/>
<path d="M145.59 231.065C145.432 230.476 145.432 229.857 145.591 229.268C145.75 228.68 146.062 228.144 146.495 227.715C146.934 227.294 147.452 226.965 148.019 226.747C148.587 226.528 149.192 226.426 149.8 226.445C150.076 226.427 150.352 226.468 150.611 226.565C150.87 226.663 151.105 226.814 151.3 227.01C151.453 227.226 151.545 227.479 151.566 227.744C151.588 228.008 151.537 228.272 151.42 228.51C151.184 228.982 150.827 229.382 150.385 229.67C148.925 230.725 147.32 231.475 145.565 231.07" fill="#18A0A0"/>
<path d="M143.755 237.605C143.755 237.461 143.767 237.317 143.79 237.175C143.825 236.87 143.87 236.475 143.925 236.005C144.039 234.702 144.362 233.426 144.88 232.225C145.424 231.023 146.278 229.988 147.355 229.225C147.683 229.003 148.035 228.82 148.405 228.68C148.504 228.64 148.606 228.606 148.71 228.58L148.82 228.555C148.328 228.762 147.857 229.016 147.415 229.315C146.38 230.088 145.556 231.11 145.02 232.285C144.503 233.472 144.166 234.729 144.02 236.015C143.945 236.515 143.885 236.905 143.835 237.18C143.823 237.324 143.796 237.467 143.755 237.605Z" fill="#263238"/>
<path d="M142.64 219.455C142.66 219.515 142.671 219.577 142.675 219.64L142.74 220.175C142.8 220.645 142.87 221.315 142.95 222.15C143.115 223.82 143.305 226.125 143.45 228.675C143.595 231.225 143.695 233.54 143.735 235.215C143.735 236.055 143.765 236.715 143.765 237.215V237.755C143.765 237.88 143.765 237.945 143.765 237.945C143.76 237.882 143.76 237.818 143.765 237.755L143.74 237.215C143.74 236.715 143.695 236.06 143.66 235.215C143.59 233.54 143.49 231.215 143.335 228.68C143.18 226.145 143.005 223.825 142.87 222.155C142.8 221.335 142.75 220.655 142.71 220.18C142.71 219.96 142.68 219.78 142.67 219.64C142.656 219.579 142.646 219.517 142.64 219.455Z" fill="#263238"/>
<path d="M142.635 232.535C142.342 231.285 141.755 230.123 140.923 229.146C140.09 228.168 139.037 227.404 137.85 226.915C137.245 226.67 136.465 226.535 136.01 227.005C135.555 227.475 135.715 228.25 136.01 228.84C136.608 230.066 137.555 231.087 138.732 231.776C139.909 232.465 141.264 232.79 142.625 232.71" fill="#18A0A0"/>
<path d="M138.26 228.87C138.393 228.903 138.522 228.95 138.645 229.01C138.765 229.06 138.915 229.12 139.08 229.205C139.245 229.29 139.44 229.38 139.64 229.51C139.862 229.637 140.075 229.777 140.28 229.93C140.52 230.101 140.75 230.284 140.97 230.48C141.474 230.928 141.925 231.431 142.315 231.98C142.698 232.539 143.013 233.142 143.255 233.775C143.357 234.05 143.444 234.33 143.515 234.615C143.579 234.864 143.631 235.116 143.67 235.37C143.706 235.578 143.729 235.789 143.74 236C143.753 236.166 143.753 236.334 143.74 236.5C143.753 236.635 143.753 236.77 143.74 236.905C143.705 236.905 143.74 236.325 143.565 235.405C143.522 235.155 143.465 234.908 143.395 234.665C143.318 234.385 143.227 234.11 143.12 233.84C142.876 233.221 142.564 232.63 142.19 232.08C141.807 231.535 141.368 231.033 140.88 230.58C140.665 230.383 140.44 230.198 140.205 230.025C139.995 229.855 139.775 229.725 139.58 229.595C138.79 229.11 138.25 228.9 138.26 228.87Z" fill="#263238"/>
<path d="M55.035 210.4L40.97 221.935L55.235 239.5C56.83 238.035 52.82 226.21 52.82 226.21L62.135 219.21L55.035 210.4Z" fill="#455A64"/>
<g opacity="0.6">
<path d="M49.17 220.165C48.9818 220.038 48.7535 219.985 48.5286 220.015C48.3036 220.045 48.0977 220.158 47.95 220.33C47.8154 220.514 47.7564 220.742 47.7852 220.968C47.8141 221.194 47.9285 221.401 48.105 221.545C48.3071 221.675 48.5491 221.728 48.7869 221.694C49.0247 221.66 49.2423 221.541 49.4 221.36C49.5198 221.153 49.5549 220.908 49.4981 220.676C49.4412 220.444 49.2968 220.243 49.095 220.115" fill="white"/>
</g>
<g opacity="0.6">
<path d="M41.025 221.885L42.44 220.715L55.5 238.135C55.5 238.135 55.79 239.195 55.165 239.55L41.025 221.885Z" fill="white"/>
</g>
<path d="M53.14 226.425C53.055 226.495 52.64 226.095 52.045 225.9C51.45 225.705 50.885 225.77 50.855 225.66C50.825 225.55 51.425 225.28 52.17 225.535C52.915 225.79 53.235 226.38 53.14 226.425Z" fill="#263238"/>
<path d="M53.875 228.89C53.81 228.975 53.375 228.725 52.76 228.725C52.145 228.725 51.71 228.955 51.645 228.87C51.58 228.785 52.02 228.33 52.765 228.34C53.51 228.35 53.955 228.82 53.875 228.89Z" fill="#263238"/>
<path d="M52.5 231.725C52.415 231.665 52.75 231.195 53.4 231.035C54.05 230.875 54.56 231.125 54.515 231.215C54.47 231.305 54.015 231.265 53.515 231.405C53.015 231.545 52.595 231.805 52.5 231.725Z" fill="#263238"/>
<path d="M55.085 224.59C54.98 224.62 54.78 224.13 54.35 223.67C53.92 223.21 53.465 222.96 53.5 222.855C53.535 222.75 54.14 222.855 54.635 223.41C55.13 223.965 55.19 224.58 55.085 224.59Z" fill="#263238"/>
<path d="M56.83 222.5C56.795 222.53 56.47 222.235 56.12 221.615C55.9199 221.251 55.7638 220.865 55.655 220.465C55.5911 220.229 55.5443 219.988 55.515 219.745C55.4918 219.601 55.4918 219.454 55.515 219.31C55.5331 219.205 55.5841 219.109 55.6605 219.036C55.7369 218.962 55.8348 218.914 55.94 218.9C56.0344 218.893 56.1291 218.91 56.216 218.947C56.303 218.984 56.3798 219.042 56.44 219.115C56.5315 219.228 56.6072 219.352 56.665 219.485C56.7711 219.71 56.8564 219.944 56.92 220.185C57.028 220.589 57.0702 221.008 57.045 221.425C57.0648 221.814 56.9616 222.198 56.75 222.525C56.695 222.525 56.8 222.095 56.75 221.425C56.7343 221.037 56.6688 220.652 56.555 220.28C56.4864 220.064 56.4012 219.853 56.3 219.65C56.2 219.425 56.07 219.265 55.95 219.285C55.83 219.305 55.89 219.285 55.865 219.385C55.8505 219.489 55.8505 219.595 55.865 219.7C55.8899 219.928 55.9266 220.155 55.975 220.38C56.0619 220.762 56.1841 221.135 56.34 221.495C56.5288 221.817 56.6926 222.153 56.83 222.5Z" fill="#263238"/>
<path d="M56.62 222.47C56.58 222.47 56.75 222.03 57.28 221.545C57.5938 221.267 57.9521 221.044 58.34 220.885C58.5709 220.792 58.8104 220.722 59.055 220.675C59.2096 220.629 59.3735 220.623 59.531 220.658C59.6886 220.693 59.8345 220.768 59.955 220.875C60.0172 220.955 60.0554 221.051 60.0652 221.152C60.0749 221.253 60.0558 221.355 60.01 221.445C59.9427 221.572 59.8586 221.69 59.76 221.795C59.5904 221.991 59.3914 222.16 59.17 222.295C58.8012 222.515 58.3839 222.64 57.955 222.66C57.22 222.685 56.825 222.41 56.85 222.38C57.2097 222.399 57.5702 222.399 57.93 222.38C58.3097 222.331 58.6746 222.202 59 222C59.1881 221.884 59.3569 221.739 59.5 221.57C59.665 221.39 59.76 221.2 59.685 221.145C59.6055 221.095 59.5162 221.062 59.4231 221.049C59.3299 221.036 59.2351 221.043 59.145 221.07C58.9225 221.11 58.7035 221.166 58.49 221.24C58.1329 221.374 57.7964 221.558 57.49 221.785C56.915 222.155 56.67 222.5 56.62 222.47Z" fill="#263238"/>
<path d="M48.665 219.82L48.835 238L71.465 237.905C71.325 235.745 59.595 231.45 59.595 231.45L59.965 219.795L48.665 219.82Z" fill="#455A64"/>
<g opacity="0.6">
<path d="M52.595 230.5C52.3771 230.567 52.1917 230.713 52.0745 230.908C51.9573 231.104 51.9165 231.336 51.96 231.56C52.0201 231.779 52.1619 231.967 52.3562 232.085C52.5505 232.203 52.7827 232.243 53.005 232.195C53.2314 232.119 53.4229 231.964 53.5449 231.758C53.6668 231.553 53.7112 231.31 53.67 231.075C53.5844 230.852 53.4159 230.671 53.1997 230.569C52.9835 230.467 52.7363 230.453 52.51 230.53" fill="white"/>
</g>
<g opacity="0.6">
<path d="M48.83 237.94V236.1L70.595 236.84C70.595 236.84 71.595 237.28 71.485 237.99L48.83 237.94Z" fill="white"/>
</g>
<path d="M59.965 231.345C59.965 231.455 59.41 231.51 58.865 231.845C58.32 232.18 58.035 232.67 57.935 232.625C57.835 232.58 57.995 231.945 58.66 231.52C59.325 231.095 60 231.245 59.965 231.345Z" fill="#263238"/>
<path d="M62.34 232.315C62.34 232.425 61.89 232.615 61.515 233.085C61.14 233.555 61.015 234.045 60.925 234.045C60.835 234.045 60.745 233.415 61.22 232.84C61.695 232.265 62.34 232.21 62.34 232.315Z" fill="#263238"/>
<path d="M63.7 235.155C63.6 235.155 63.445 234.625 63.7 234.02C63.955 233.415 64.5 233.17 64.545 233.26C64.59 233.35 64.275 233.68 64.045 234.18C63.815 234.68 63.81 235.14 63.7 235.155Z" fill="#263238"/>
<path d="M59.755 228.68C59.705 228.78 59.2 228.63 58.575 228.68C57.95 228.73 57.465 228.925 57.405 228.83C57.345 228.735 57.815 228.33 58.55 228.295C59.285 228.26 59.805 228.59 59.755 228.68Z" fill="#263238"/>
<path d="M59.2 226C58.8302 226.102 58.4398 226.102 58.07 226C57.4181 225.885 56.7938 225.647 56.23 225.3C56.1027 225.229 55.9865 225.14 55.885 225.035C55.8149 224.955 55.7723 224.854 55.7633 224.748C55.7543 224.642 55.7794 224.536 55.835 224.445C55.8912 224.365 55.9662 224.3 56.0533 224.255C56.1405 224.211 56.2372 224.189 56.335 224.19C56.4788 224.19 56.6219 224.21 56.76 224.25C57.4143 224.401 58.0187 224.718 58.515 225.17C59.04 225.67 59.225 226.065 59.185 226.085C59.145 226.105 58.88 225.78 58.34 225.38C58.0333 225.148 57.697 224.958 57.34 224.815C57.1275 224.731 56.9084 224.664 56.685 224.615C56.445 224.555 56.245 224.555 56.185 224.66C56.125 224.765 56.185 224.715 56.215 224.785C56.2874 224.863 56.3718 224.929 56.465 224.98C56.659 225.104 56.8593 225.217 57.065 225.32C57.4178 225.493 57.7861 225.632 58.165 225.735C58.5154 225.801 58.8612 225.889 59.2 226Z" fill="#263238"/>
<path d="M59.06 226.155C59.02 226.155 58.8 225.78 58.755 225.06C58.7339 224.641 58.7846 224.222 58.905 223.82C58.9772 223.581 59.0726 223.35 59.19 223.13C59.2502 222.98 59.3481 222.848 59.4743 222.748C59.6005 222.647 59.7506 222.581 59.91 222.555C60.0152 222.552 60.119 222.58 60.208 222.636C60.2971 222.692 60.3674 222.774 60.41 222.87C60.4674 223.003 60.5077 223.142 60.53 223.285C60.5793 223.625 60.5604 223.971 60.4746 224.303C60.3887 224.635 60.2376 224.947 60.03 225.22C59.59 225.81 59.13 225.945 59.12 225.905C59.11 225.865 59.465 225.635 59.8 225.07C59.9966 224.746 60.1179 224.382 60.155 224.005C60.1873 223.788 60.1873 223.567 60.155 223.35C60.115 223.11 60.025 222.915 59.935 222.94C59.845 222.965 59.63 223.12 59.54 223.315C59.4293 223.512 59.3357 223.717 59.26 223.93C59.1355 224.295 59.0631 224.675 59.045 225.06C59 225.725 59.12 226.14 59.06 226.155Z" fill="#263238"/>
<path d="M50.605 114.455C50.605 114.455 47.43 117.85 45.875 121.105C44.32 124.36 43.32 132.105 43.32 132.105C43.32 132.105 38.94 141.86 39.605 146.85C40.27 151.84 44.73 186 44.73 186C44.73 186 44.51 219.18 47.67 225.095L48.375 228.29L61.135 226L61.055 224.085L64.055 159.025L71.735 114.73L50.605 114.455Z" fill="#263238"/>
<path d="M78.76 124.13C78.76 124.13 86.385 166.13 87.06 173.415C87.735 180.7 61.765 219.14 61.765 219.14L49.895 206.775L66.935 175.1L61.395 143.175L69.1 114.97L77.19 115.255L78.76 124.13Z" fill="#263238"/>
<path d="M45.69 214.76C45.7029 215.071 45.733 215.382 45.78 215.69C45.86 216.3 46.01 217.19 46.22 218.35C46.645 220.66 47.335 224.01 48.26 228.195V228.285H48.35L61.115 226.045H61.21V225.945C61.565 217.19 61.99 206.725 62.445 195.5C62.915 183.425 63.35 172.225 63.71 163.04C64.665 155.66 65.455 149.54 66.01 145.285C66.275 143.165 66.485 141.5 66.63 140.35C66.695 139.79 66.75 139.35 66.785 139.055C66.82 138.76 66.825 138.61 66.825 138.61C66.825 138.61 66.795 138.755 66.75 139.05C66.705 139.345 66.64 139.785 66.56 140.34C66.4 141.485 66.17 143.15 65.875 145.265C65.315 149.5 64.5 155.615 63.5 163C63.13 172.185 62.675 183.385 62.185 195.46C61.745 206.685 61.335 217.15 60.995 225.905L61.095 225.79L48.345 228.085L48.45 228.155C47.5 223.975 46.785 220.63 46.33 218.33C46.105 217.175 45.94 216.285 45.83 215.68C45.775 215.38 45.745 215.15 45.725 214.995C45.7174 214.916 45.7057 214.838 45.69 214.76Z" fill="#455A64"/>
<path d="M30.875 97.075C30.875 97.075 38.775 80.045 40.64 79.14C42.505 78.235 47.865 77.93 48.59 78.95L34.43 99.34L30.875 97.075Z" fill="#455A64"/>
<path d="M31.285 94.775C30.9361 94.5819 30.5269 94.5282 30.14 94.625C27.685 95.235 18.715 97.625 17.715 100.19C16.555 103.145 23.65 141.545 24.565 142.585C25.48 143.625 39.59 141.88 40.025 140.24C40.46 138.6 35.435 97.21 35.435 97.21L31.285 94.775Z" fill="#455A64"/>
<path d="M20.15 120.93C20.15 120.93 19.35 120.98 18.555 122.745C17.76 124.51 19.16 138.84 20.215 140.305C21.27 141.77 24.35 142.08 24.35 142.08L20.15 120.93Z" fill="#455A64"/>
<path d="M35.875 141.025C35.8466 140.997 35.8229 140.965 35.805 140.93L35.615 140.635C35.45 140.375 35.23 139.98 34.97 139.455C34.2547 137.967 33.7128 136.402 33.355 134.79C32.8357 132.403 32.4616 129.987 32.235 127.555C31.945 124.815 31.625 121.805 31.285 118.645C30.605 112.325 30.04 106.595 29.945 102.42C29.895 100.335 29.945 98.65 30 97.485C30.03 96.905 30.065 96.45 30.095 96.145C30.095 96.005 30.12 95.895 30.13 95.8C30.1248 95.7602 30.1248 95.7199 30.13 95.68C30.1356 95.7198 30.1356 95.7602 30.13 95.8C30.13 95.895 30.13 96.01 30.13 96.15C30.13 96.475 30.13 96.925 30.085 97.49C30.055 98.65 30.04 100.335 30.115 102.415C30.255 106.575 30.85 112.3 31.53 118.62C31.86 121.775 32.175 124.785 32.46 127.525C32.6733 129.952 33.0272 132.364 33.52 134.75C33.8593 136.355 34.3706 137.919 35.045 139.415C35.29 139.94 35.495 140.34 35.645 140.61L35.81 140.915C35.86 141 35.88 141 35.875 141.025Z" fill="#263238"/>
<path d="M31.375 118.25C30.8228 118.385 30.2636 118.49 29.7 118.565C28.67 118.74 27.245 119.015 25.7 119.4C24.155 119.785 22.76 120.205 21.765 120.53C21.2337 120.729 20.6911 120.896 20.14 121.03C20.2635 120.94 20.4001 120.869 20.545 120.82C20.815 120.7 21.21 120.54 21.705 120.355C24.2884 119.391 26.9719 118.72 29.705 118.355C30.205 118.29 30.65 118.245 30.945 118.23C31.0886 118.216 31.2334 118.223 31.375 118.25Z" fill="#263238"/>
<path d="M19.965 119.345C19.9968 119.42 20.017 119.499 20.025 119.58C20.06 119.765 20.1 119.99 20.15 120.26L20.565 122.76C20.92 124.875 21.435 127.795 22.065 131.005C22.695 134.215 23.365 137.11 23.855 139.2C24.095 140.2 24.29 141.05 24.44 141.675L24.59 142.35C24.6128 142.428 24.6246 142.509 24.625 142.59C24.5846 142.52 24.5559 142.444 24.54 142.365L24.34 141.7C24.175 141.125 23.945 140.285 23.675 139.245C23.14 137.165 22.455 134.275 21.81 131.06C21.165 127.845 20.68 124.915 20.37 122.785C20.215 121.725 20.1 120.86 20.035 120.285C20.005 120.01 19.98 119.785 19.96 119.595C19.9521 119.512 19.9537 119.428 19.965 119.345Z" fill="#263238"/>
<path d="M30 102.055C29.9784 101.698 30.0054 101.34 30.08 100.99C30.3333 99.2914 30.7743 97.6263 31.395 96.025C31.5034 95.6847 31.6564 95.3602 31.85 95.06C31.92 95.09 31.35 96.61 30.85 98.56C30.35 100.51 30.09 102.065 30 102.055Z" fill="#263238"/>
<path d="M79.57 65.595C79.49 64.15 79.31 57.095 79.225 56.045C79.1353 54.5816 78.5044 53.2039 77.455 52.18C76.9377 51.673 76.2827 51.3292 75.5715 51.1914C74.8603 51.0536 74.1243 51.1279 73.455 51.405C73.0324 51.5118 72.6455 51.7286 72.3337 52.0334C72.022 52.3381 71.7964 52.7199 71.68 53.14C68.72 63.64 69.18 74.875 67.88 85.755C71.745 86.385 76.945 86.13 80.85 85.925C80.84 77.235 80.105 75 79.57 65.595Z" fill="#263238"/>
<path d="M77.945 80.43C77.9222 80.3385 77.9121 80.2443 77.915 80.15C77.915 79.94 77.89 79.65 77.875 79.345C77.875 78.61 77.82 77.6 77.785 76.375C77.73 73.835 77.66 70.375 77.58 66.58C77.55 64.665 77.52 62.845 77.495 61.185C77.495 60.355 77.495 59.57 77.47 58.83C77.4789 58.1606 77.432 57.4916 77.33 56.83C77.2708 56.3473 77.1057 55.8836 76.8463 55.4722C76.587 55.0607 76.24 54.7117 75.83 54.45C75.521 54.2803 75.1808 54.1749 74.83 54.14C74.83 54.14 74.83 54.14 74.9 54.14C74.9698 54.1323 75.0402 54.1323 75.11 54.14C75.3847 54.1654 75.6516 54.2453 75.895 54.375C76.2798 54.5795 76.6118 54.8704 76.865 55.225C77.2013 55.6958 77.4284 56.2355 77.53 56.805C77.6476 57.4837 77.7061 58.1712 77.705 58.86C77.705 59.6 77.735 60.39 77.755 61.215C77.785 62.875 77.82 64.715 77.86 66.61C77.91 70.42 77.955 73.87 77.99 76.405C77.99 77.635 77.99 78.64 77.99 79.375C77.99 79.705 77.99 79.97 77.99 80.185C77.9818 80.2678 77.9668 80.3497 77.945 80.43Z" fill="#455A64"/>
<path d="M74.43 76.44C74.3963 76.2318 74.3813 76.0209 74.385 75.81C74.385 75.4 74.36 74.81 74.36 74.08C74.36 72.62 74.39 70.58 74.445 68.375C74.5 66.17 74.56 64.185 74.605 62.675C74.605 61.985 74.645 61.405 74.66 60.95C74.6554 60.737 74.6738 60.5241 74.715 60.315C74.7488 60.5249 74.7638 60.7374 74.76 60.95C74.76 61.355 74.76 61.95 74.76 62.68C74.76 64.14 74.73 66.18 74.675 68.38C74.62 70.58 74.555 72.57 74.515 74.08C74.49 74.77 74.475 75.35 74.46 75.81C74.4727 76.0205 74.4626 76.2317 74.43 76.44Z" fill="#455A64"/>
<path d="M48.97 79.14C48.47 79.14 39.04 79.81 36.85 89.91C34.66 100.01 34.03 114.16 34.03 114.16L44.255 113.16L48.97 79.14Z" fill="#18A0A0"/>
<path d="M53.6 76.905L55.26 73.84L69.76 73.445L70.76 76.055L79.305 79.14L78.59 117L84.92 151.955C84.92 151.955 84.855 157 68 158.6L66.665 140.33L58.24 140.13L58.47 157.975C58.47 157.975 43.6 157.735 38.885 154.37C38.885 154.37 37.455 137.37 41.515 125.125C45.07 114.405 46.455 111.625 46.455 111.625L46.745 79.5L53.6 76.905Z" fill="#18A0A0"/>
<g opacity="0.3">
<path d="M49.12 79.575C46.2067 92.045 43.29 104.52 40.37 117L43.335 120.145C44.8542 119.436 46.1413 118.312 47.0467 116.901C47.9521 115.49 48.4387 113.851 48.45 112.175C48.45 110.445 47.9 108.76 47.83 107.03C47.67 103.13 49.83 99.555 50.83 95.78C52.205 90.435 51.2 84.695 49.12 79.575Z" fill="black"/>
</g>
<path d="M77.455 78.655C80.955 79.3 83.65 83 84.455 86.97C84.92 89.295 86.275 100.505 86.275 100.505L87.02 104.615C87.02 104.615 87.645 118.74 84.65 120.32C81.15 122.16 79.15 120.14 77.99 118.66C76.83 117.18 75.595 107.55 75.595 107.55L76.9 84.5L77.455 78.655Z" fill="#18A0A0"/>
<path d="M79.11 84.325C79.109 84.4609 79.0956 84.5965 79.07 84.73C79.03 85.0134 78.975 85.3984 78.905 85.885C78.745 86.885 78.525 88.35 78.25 90.12C77.975 91.89 77.62 94.045 77.25 96.405C77.055 97.585 76.855 98.825 76.645 100.11C76.435 101.395 76.175 102.72 76.065 104.11C75.9976 104.895 75.9976 105.685 76.065 106.47C77.15 111.325 78.165 115.61 78.93 118.68C79.315 120.18 79.625 121.42 79.85 122.295C79.955 122.7 80.04 123.02 80.105 123.265C80.1438 123.377 80.169 123.492 80.18 123.61C80.1286 123.505 80.0884 123.394 80.06 123.28L79.76 122.32C79.51 121.48 79.16 120.255 78.76 118.725C77.95 115.665 76.905 111.38 75.815 106.53C75.7476 105.731 75.7476 104.929 75.815 104.13C75.925 102.74 76.185 101.41 76.4 100.13C76.615 98.85 76.825 97.63 77.02 96.425C77.42 94.07 77.78 91.925 78.08 90.15C78.38 88.375 78.64 86.95 78.82 85.925C78.91 85.45 78.98 85.065 79.035 84.78C79.0431 84.626 79.0683 84.4734 79.11 84.325Z" fill="#263238"/>
<path d="M42 81.5L44.65 117C44.65 117 49.61 94.385 49.81 88.6C49.9619 85.2821 49.625 81.9599 48.81 78.74C48.81 78.74 44 77.965 42 81.5Z" fill="#455A64"/>
<path d="M40.47 79.25C40.7975 79.3513 41.0993 79.5218 41.355 79.75C41.6535 79.9887 41.8773 80.308 42 80.67C42.141 81.0978 42.2299 81.541 42.265 81.99C42.35 82.93 42.345 83.78 42.345 84.395C42.3665 84.7288 42.3531 85.064 42.305 85.395C42.2058 85.071 42.1569 84.7338 42.16 84.395C42.11 83.785 42.09 82.935 42.005 82.01C41.92 81.085 41.71 80.255 41.26 79.87C40.81 79.485 40.445 79.29 40.47 79.25Z" fill="#263238"/>
<path d="M58.86 80.535C58.86 80.535 58.745 80.44 58.56 80.225C58.375 80.01 58.115 79.725 57.79 79.3H57.94C57.58 80.345 57.03 81.86 56.405 83.56L56.315 83.8L56.18 83.595C56.105 83.48 56.015 83.365 55.945 83.245C55.5257 82.493 55.1792 81.7028 54.91 80.885C54.645 80.14 54.41 79.47 54.24 78.885C54.07 78.3 53.9 77.885 53.785 77.56C53.7161 77.3987 53.6625 77.2313 53.625 77.06C53.7334 77.1973 53.8195 77.3508 53.88 77.515C54.025 77.815 54.205 78.265 54.415 78.82C54.625 79.375 54.87 80.055 55.135 80.775C55.4133 81.5724 55.7578 82.3451 56.165 83.085C56.235 83.2 56.315 83.305 56.385 83.41L56.16 83.445C56.795 81.75 57.37 80.245 57.78 79.215L57.835 79.07L57.93 79.195C58.2704 79.6198 58.5811 80.0675 58.86 80.535Z" fill="#263238"/>
<path d="M70.36 78.095C70.3216 78.26 70.2628 78.4195 70.185 78.57C70.055 78.87 69.855 79.295 69.605 79.82C69.355 80.345 69.045 80.965 68.68 81.65C68.2969 82.4012 67.8591 83.1231 67.37 83.81L67.205 84.035L67.14 83.76L67.115 83.645C66.705 81.9 66.35 80.315 66.115 79.145L66.275 79.185C65.9266 79.5178 65.5427 79.8113 65.13 80.06C64.86 80.255 64.735 80.395 64.72 80.38C64.705 80.365 64.805 80.21 65.065 79.98C65.4468 79.7038 65.8047 79.396 66.135 79.06L66.25 78.925L66.3 79.1C66.59 80.245 66.975 81.825 67.385 83.57V83.685L67.155 83.635C67.6343 82.9583 68.0702 82.2519 68.46 81.52L69.43 79.725L70.085 78.51C70.159 78.3608 70.2514 78.2213 70.36 78.095Z" fill="#263238"/>
<path d="M59.11 80.395C59.11 80.395 57.705 98.645 57.34 100.995C56.975 103.345 58.225 140.13 58.225 140.13L66.445 140.66C66.445 140.66 66.53 110.285 66.445 110.075C66.36 109.865 66.485 88.63 66.485 88.63L64.62 80.17L61.44 83.935L59.11 80.395Z" fill="white"/>
<path d="M68.285 97.745C68.285 97.785 67.995 97.85 67.85 98.245C67.8079 98.351 67.7891 98.4649 67.7952 98.5788C67.8012 98.6928 67.8319 98.804 67.885 98.905C67.9613 99.0162 68.0696 99.1015 68.1955 99.1497C68.3214 99.198 68.459 99.2068 68.59 99.175C68.7236 99.1598 68.8492 99.1036 68.9495 99.014C69.0498 98.9245 69.1199 98.806 69.15 98.675C69.1645 98.5618 69.1541 98.4467 69.1196 98.3379C69.085 98.2291 69.0272 98.1292 68.95 98.045C68.7909 97.8848 68.5869 97.7767 68.365 97.735C68.365 97.735 68.43 97.685 68.565 97.685C68.7533 97.7051 68.9294 97.7879 69.065 97.92C69.1742 98.0196 69.2586 98.1434 69.3116 98.2814C69.3645 98.4194 69.3845 98.5679 69.37 98.715C69.3295 98.8958 69.2367 99.0607 69.1032 99.1892C68.9697 99.3176 68.8013 99.404 68.6191 99.4376C68.4369 99.4712 68.2488 99.4504 68.0783 99.378C67.9078 99.3055 67.7623 99.1845 67.66 99.03C67.5928 98.8975 67.5578 98.7511 67.5578 98.6025C67.5578 98.4539 67.5928 98.3075 67.66 98.175C67.7421 97.9987 67.8837 97.857 68.06 97.775C68.205 97.72 68.28 97.73 68.285 97.745Z" fill="#263238"/>
<path d="M68.285 113.675C68.285 113.715 67.995 113.785 67.85 114.175C67.8079 114.281 67.7892 114.395 67.7952 114.509C67.8012 114.623 67.8319 114.734 67.885 114.835C67.9657 114.941 68.0744 115.023 68.1989 115.071C68.3234 115.119 68.4588 115.132 68.59 115.108C68.7212 115.083 68.8431 115.023 68.942 114.933C69.0409 114.844 69.1129 114.728 69.15 114.6C69.1649 114.487 69.1546 114.372 69.1201 114.263C69.0855 114.154 69.0275 114.054 68.95 113.97C68.67 113.655 68.36 113.7 68.365 113.655C68.37 113.61 68.43 113.605 68.565 113.61C68.753 113.628 68.9294 113.709 69.065 113.84C69.1733 113.94 69.2571 114.064 69.31 114.202C69.3628 114.34 69.3834 114.488 69.37 114.635C69.3295 114.816 69.2367 114.981 69.1032 115.109C68.9697 115.238 68.8014 115.324 68.6191 115.358C68.4369 115.391 68.2488 115.37 68.0783 115.298C67.9078 115.226 67.7623 115.105 67.66 114.95C67.5929 114.818 67.5579 114.673 67.5579 114.525C67.5579 114.377 67.5929 114.232 67.66 114.1C67.7421 113.924 67.8837 113.782 68.06 113.7C68.205 113.65 68.28 113.665 68.285 113.675Z" fill="#263238"/>
<path d="M69 132.945C69 132.985 68.71 133.055 68.565 133.445C68.5229 133.551 68.5041 133.665 68.5102 133.779C68.5162 133.893 68.5469 134.004 68.6 134.105C68.6807 134.211 68.7894 134.293 68.9139 134.341C69.0384 134.389 69.1738 134.402 69.305 134.378C69.4362 134.353 69.558 134.293 69.6569 134.203C69.7558 134.114 69.8279 133.998 69.865 133.87C69.8798 133.757 69.8696 133.642 69.8351 133.533C69.8005 133.424 69.7425 133.324 69.665 133.24C69.385 132.925 69.075 132.97 69.08 132.925C69.085 132.88 69.145 132.875 69.28 132.88C69.4684 132.896 69.6453 132.977 69.78 133.11C69.8901 133.209 69.9755 133.333 70.0293 133.471C70.0831 133.609 70.1039 133.758 70.09 133.905C70.0504 134.087 69.9578 134.253 69.8238 134.383C69.6899 134.513 69.5207 134.6 69.3374 134.633C69.1541 134.667 68.9649 134.646 68.7937 134.572C68.6225 134.499 68.4768 134.376 68.375 134.22C68.309 134.088 68.2747 133.943 68.2747 133.795C68.2747 133.647 68.309 133.502 68.375 133.37C68.457 133.194 68.5987 133.052 68.775 132.97C68.935 132.92 69 132.935 69 132.945Z" fill="#263238"/>
<g opacity="0.3">
<path d="M79.67 97.6C79.49 96.145 79.105 94.72 79.01 93.255C78.89 91.505 79.195 89.755 78.85 88.01C77.66 90.01 77.39 92.395 77.385 94.71C77.38 97.025 77.595 99.35 77.265 101.64C77.04 103.21 76.53 105.095 76.34 106.67C76.15 108.245 76.6 109.11 77.06 111.475C78.645 107 80.25 102.315 79.67 97.6Z" fill="black"/>
</g>
<path d="M76.895 93.88C77.8392 96.5788 78.145 99.4596 77.7885 102.296C77.4319 105.133 76.4227 107.849 74.84 110.23" fill="#18A0A0"/>
<path d="M74.84 110.23C74.795 110.2 75.34 109.41 76 108.02C76.3805 107.21 76.7046 106.375 76.97 105.52C77.2842 104.465 77.5149 103.386 77.66 102.295C77.7879 101.202 77.8313 100.1 77.79 99C77.7471 98.1021 77.6418 97.2083 77.475 96.325C77.18 94.825 76.845 93.915 76.895 93.895C77.0037 94.0935 77.0909 94.303 77.155 94.52C77.23 94.725 77.315 94.975 77.395 95.27C77.475 95.565 77.585 95.905 77.655 96.27C77.8497 97.1606 77.9751 98.065 78.03 98.975C78.1626 101.207 77.8812 103.445 77.2 105.575C76.9184 106.433 76.5724 107.269 76.165 108.075C76 108.43 75.815 108.73 75.665 108.995C75.535 109.226 75.3931 109.449 75.24 109.665C75.1271 109.867 74.993 110.056 74.84 110.23Z" fill="#263238"/>
<path d="M52.06 118C51.709 117.783 51.3865 117.522 51.1 117.225C49.6389 115.87 48.3569 114.335 47.285 112.655C47.0405 112.319 46.8405 111.952 46.69 111.565C46.9668 111.876 47.2161 112.211 47.435 112.565C47.88 113.18 48.505 114.02 49.245 114.91C49.985 115.8 50.7 116.56 51.245 117.11C51.5411 117.383 51.8137 117.681 52.06 118Z" fill="#263238"/>
<path d="M48.77 118.525C48.5586 118.238 48.3902 117.921 48.27 117.585C47.5661 116.011 47.0622 114.355 46.77 112.655C46.6842 112.307 46.6488 111.948 46.665 111.59C46.74 111.59 47.03 113.175 47.615 115.09C48.2 117.005 48.84 118.5 48.77 118.525Z" fill="#263238"/>
<path d="M64.85 109C64.85 109.035 64.545 108.84 64.05 108.645C63.4039 108.393 62.7097 108.288 62.0179 108.337C61.326 108.386 60.6538 108.589 60.05 108.93C59.59 109.195 59.345 109.43 59.31 109.39C59.4717 109.136 59.6931 108.924 59.955 108.775C60.5628 108.369 61.266 108.13 61.995 108.08C62.723 108.024 63.4527 108.162 64.11 108.48C64.3955 108.59 64.6496 108.769 64.85 109Z" fill="#263238"/>
<path d="M37.09 107.815C37.09 107.815 33.415 111.815 33.695 114.605C33.975 117.395 35.275 123.535 38.695 123.35C42.115 123.165 45.25 117.63 45.695 113.24C46.14 108.85 45.695 98.52 45.695 98.52L40.79 99.625L37.09 107.815Z" fill="#FFBE9D"/>
<path d="M29.79 82.215C32.33 85.46 38.625 93.285 38.625 93.285L44.55 91.785C44.7616 91.7321 44.9523 91.6164 45.0968 91.4531C45.2414 91.2898 45.3332 91.0865 45.36 90.87C45.3774 90.7284 45.3665 90.5848 45.3279 90.4474C45.2893 90.3101 45.2237 90.1818 45.135 90.07L36.83 79.57C36.5201 79.1761 36.0928 78.891 35.6101 78.7562C35.1273 78.6214 34.6142 78.6437 34.145 78.82L30.35 80.245C30.1638 80.3154 29.9966 80.4284 29.8619 80.5749C29.7272 80.7215 29.6287 80.8976 29.5742 81.0891C29.5198 81.2806 29.511 81.4822 29.5484 81.6777C29.5859 81.8732 29.6686 82.0572 29.79 82.215Z" fill="#263238"/>
<path d="M44.73 90.455C44.5258 90.2888 44.3352 90.1066 44.16 89.91C43.805 89.54 43.3 89.005 42.695 88.33C41.485 86.975 39.865 85.05 38.195 82.83C37.78 82.275 37.38 81.73 37 81.195C36.6858 80.6714 36.263 80.2213 35.76 79.875C35.5157 79.7614 35.2495 79.7025 34.98 79.7025C34.7105 79.7025 34.4443 79.7614 34.2 79.875L32.8 80.375L30.755 81.05C30.5089 81.1452 30.2545 81.2172 29.995 81.265C30.2286 81.1437 30.4709 81.04 30.72 80.955L32.72 80.2L34.115 79.7C34.3826 79.6001 34.6613 79.5329 34.945 79.5C35.2619 79.4738 35.5797 79.5398 35.86 79.69C36.4012 80.0461 36.857 80.5173 37.195 81.07L38.39 82.7C40.05 84.915 41.64 86.85 42.815 88.23C43.38 88.895 43.855 89.445 44.215 89.865C44.4021 90.0476 44.5744 90.2449 44.73 90.455Z" fill="#455A64"/>
<path d="M33.155 81.125C33.2439 81.0813 33.3438 81.0649 33.442 81.0781C33.5403 81.0912 33.6324 81.1332 33.7066 81.1988C33.7809 81.2644 33.8341 81.3506 33.8593 81.4464C33.8845 81.5423 33.8807 81.6434 33.8483 81.7371C33.8159 81.8307 33.7564 81.9126 33.6773 81.9724C33.5983 82.0322 33.5033 82.0671 33.4044 82.0728C33.3054 82.0785 33.207 82.0546 33.1217 82.0043C33.0363 81.9539 32.9679 81.8794 32.925 81.79C32.868 81.6712 32.8601 81.5347 32.9032 81.4102C32.9463 81.2857 33.0367 81.1832 33.155 81.125Z" fill="white"/>
<path d="M38.235 88.22L35.495 88.675L34.495 89.575C34.3536 89.6971 34.2449 89.8524 34.1785 90.027C34.1122 90.2015 34.0904 90.3899 34.115 90.575C34.1929 91.0677 34.4077 91.5286 34.735 91.905C35.088 92.3431 35.4869 92.7421 35.925 93.095C35.925 93.095 34.965 94.655 36.455 95.445C36.455 95.445 36.355 97.06 37.92 97.225C37.92 97.225 38.375 98.76 39.555 98.845L40.77 100.05L40.4 100.785L45.835 100.955C45.8625 99.5051 45.7907 98.0551 45.62 96.615C45.5277 96.029 45.3855 95.4519 45.195 94.89C45.47 93.36 44.325 92.72 44.15 92.83C44.15 92.83 46.745 92.15 46.415 90.365L43.915 91.005L39.35 91.955L42.28 90C42.4252 89.8667 42.5529 89.7155 42.66 89.55C42.91 89.155 43.28 88.44 42.965 88.02C42.83 87.845 39.23 89.35 39.23 89.35L37 91.405L36.3 90.405C36.3 90.405 38.595 89.935 38.235 88.22Z" fill="#FFBE9D"/>
<path d="M44.5 92.85C44.5 92.93 43.535 93.065 42.38 93.405C41.225 93.745 40.325 94.14 40.29 94.07C40.8899 93.6364 41.5696 93.3254 42.29 93.155C42.9988 92.9063 43.7503 92.8026 44.5 92.85Z" fill="#EB996E"/>
<path d="M43.245 97.555C43.5718 97.2578 43.8744 96.9352 44.15 96.59L44.245 96.465L44.31 96.61C44.3999 96.8013 44.5589 96.9514 44.755 97.03C44.8581 97.0816 44.9729 97.105 45.0879 97.098C45.2029 97.0909 45.314 97.0537 45.41 96.99C45.4515 96.9579 45.4824 96.9139 45.4984 96.864C45.5145 96.814 45.515 96.7603 45.5 96.71L45.425 96.26C45.3875 95.9474 45.3256 95.6381 45.24 95.335C45.199 95.2063 45.1174 95.0944 45.0074 95.016C44.8975 94.9376 44.7651 94.8969 44.63 94.9C44.3474 94.9123 44.068 94.9645 43.8 95.055L42.335 95.415C41.8892 95.5454 41.4323 95.6341 40.97 95.68C41.3962 95.4933 41.8379 95.3444 42.29 95.235L43.73 94.825C44.0219 94.7172 44.3291 94.6565 44.64 94.645C44.8179 94.6488 44.9912 94.7026 45.14 94.8C45.2912 94.9129 45.4059 95.0676 45.47 95.245C45.5604 95.5644 45.6256 95.8904 45.665 96.22C45.665 96.375 45.71 96.53 45.735 96.68C45.7534 96.7733 45.7448 96.8698 45.7103 96.9584C45.6758 97.047 45.6167 97.1238 45.54 97.18C45.4096 97.2668 45.2583 97.3173 45.1018 97.326C44.9454 97.3348 44.7894 97.3017 44.65 97.23C44.4213 97.1145 44.2433 96.9187 44.15 96.68H44.305C44.0958 96.9422 43.8499 97.1728 43.575 97.365C43.37 97.5 43.255 97.57 43.245 97.555Z" fill="#EB996E"/>
<path d="M38.44 90C38.0782 90.5646 37.6702 91.0981 37.22 91.595C36.8403 92.1473 36.4137 92.6659 35.945 93.145C36.199 92.5233 36.5557 91.9486 37 91.445C37.3909 90.882 37.8784 90.3928 38.44 90Z" fill="#EB996E"/>
<path d="M39.57 91.885C39.57 91.96 39 92.14 38.57 92.725C38.3452 93.0964 38.1767 93.4991 38.07 93.92C38.035 93.92 37.985 93.77 37.995 93.51C38.0258 93.1711 38.1475 92.8469 38.3473 92.5714C38.547 92.2959 38.8175 92.0795 39.13 91.945C39.4 91.855 39.56 91.855 39.57 91.885Z" fill="#EB996E"/>
<path d="M68.9 51.605C68.48 50.505 68.645 49.28 68.48 48.105C68.12 45.54 66.055 43.48 63.665 42.475C61.44 41.545 58.725 41.745 56.045 42.605C54.1834 43.1672 52.5203 44.2476 51.25 45.72C50.4405 46.7186 49.8818 47.8965 49.6209 49.1552C49.3599 50.414 49.4042 51.7169 49.75 52.955L62.88 51.06C64.105 52.06 65.38 53.115 66.855 53.685C67.2847 53.8764 67.757 53.9523 68.225 53.905C68.4539 53.8736 68.6693 53.778 68.8463 53.6294C69.0232 53.4807 69.1545 53.2851 69.225 53.065C69.375 52.57 69.085 52.085 68.9 51.605Z" fill="#263238"/>
<path d="M60.74 41.82C63.615 41.32 66.14 42.445 68.56 44.07C70.9766 45.7399 72.8244 48.1093 73.855 50.86C74.96 53.725 75.24 57.86 74.355 60.815C73.9734 62.2024 73.2622 63.4771 72.282 64.5305C71.3017 65.5839 70.0814 66.3848 68.725 66.865C64.775 68.265 60.225 68.09 56.865 65.56C53.505 63.03 51.615 58.845 51.46 54.655C51.3126 51.7466 52.084 48.8656 53.665 46.42C54.4617 45.2106 55.4987 44.1781 56.7116 43.3868C57.9244 42.5954 59.2872 42.0621 60.715 41.82" fill="#263238"/>
<path d="M56.175 73.085L56.28 75.425L61.44 84.55L68.94 74.95L69.195 50.95C69.1849 50.4137 68.9737 49.9007 68.6033 49.5127C68.2329 49.1247 67.7303 48.89 67.195 48.855L55.74 46.41C52.09 46.165 49.84 50.73 49.74 54.41C49.64 58.475 49.67 63.44 50.24 66.445C51.435 72.49 56.125 73.09 56.125 73.09" fill="#FFBE9D"/>
<path d="M51.41 59.445C51.414 59.6488 51.498 59.8428 51.644 59.9851C51.79 60.1273 51.9862 60.2064 52.19 60.205C52.2898 60.209 52.3893 60.1931 52.4828 60.1581C52.5763 60.1232 52.6619 60.0699 52.7345 60.0014C52.8072 59.933 52.8654 59.8507 52.9059 59.7595C52.9463 59.6682 52.9681 59.5698 52.97 59.47C52.9623 59.2679 52.8769 59.0766 52.7316 58.9359C52.5863 58.7953 52.3923 58.7161 52.19 58.715C52.0905 58.7103 51.9911 58.7256 51.8977 58.76C51.8042 58.7944 51.7185 58.8472 51.6458 58.9152C51.5731 58.9833 51.5148 59.0652 51.4743 59.1562C51.4338 59.2472 51.4119 59.3454 51.41 59.445Z" fill="#263238"/>
<path d="M50.94 56.75C51.04 56.85 51.615 56.39 52.44 56.36C53.265 56.33 53.91 56.725 53.995 56.62C54.08 56.515 53.935 56.395 53.655 56.21C53.284 55.9696 52.8466 55.8523 52.405 55.875C51.969 55.889 51.5487 56.0413 51.205 56.31C50.97 56.5 50.89 56.705 50.94 56.75Z" fill="#263238"/>
<path d="M59.025 59.3C59.0303 59.5043 59.1154 59.6983 59.2622 59.8404C59.409 59.9825 59.6057 60.0614 59.81 60.06C59.9091 60.064 60.008 60.0482 60.1009 60.0135C60.1938 59.9788 60.2788 59.9259 60.351 59.8579C60.4232 59.7899 60.481 59.7082 60.5212 59.6176C60.5614 59.5269 60.5831 59.4292 60.585 59.33C60.5811 59.1262 60.497 58.9322 60.351 58.7899C60.205 58.6477 60.0089 58.5687 59.805 58.57C59.7055 58.5653 59.6061 58.5806 59.5126 58.615C59.4192 58.6494 59.3335 58.7022 59.2608 58.7702C59.1881 58.8383 59.1298 58.9203 59.0893 59.0112C59.0488 59.1022 59.0269 59.2004 59.025 59.3Z" fill="#263238"/>
<path d="M58.91 56.555C59.01 56.655 59.585 56.195 60.41 56.165C61.235 56.135 61.91 56.535 61.97 56.425C62.03 56.315 61.91 56.2 61.63 56.015C61.259 55.7745 60.8216 55.6573 60.38 55.68C59.944 55.694 59.5237 55.8463 59.18 56.115C58.94 56.325 58.86 56.5 58.91 56.555Z" fill="#263238"/>
<path d="M56.38 62.935C55.9332 62.8133 55.473 62.7478 55.01 62.74C54.795 62.74 54.59 62.69 54.55 62.545C54.5222 62.3244 54.5641 62.1006 54.67 61.905L55.24 60.25C56.035 57.895 56.6 55.96 56.505 55.93C56.41 55.9 55.69 57.78 54.895 60.14L54.35 61.805C54.2264 62.0689 54.1981 62.3676 54.27 62.65C54.305 62.7238 54.3559 62.7889 54.419 62.8408C54.4821 62.8926 54.5558 62.9299 54.635 62.95C54.7546 62.9774 54.8773 62.9892 55 62.985C55.4602 63.0294 55.9242 63.0125 56.38 62.935Z" fill="#263238"/>
<path d="M56.175 73.085C59.0468 72.8923 61.8223 71.9718 64.24 70.41C64.24 70.41 62.35 74.695 56.24 74.355L56.175 73.085Z" fill="#EB996E"/>
<path d="M57.025 64.74C57.1773 64.5726 57.3695 64.4463 57.5836 64.3729C57.7977 64.2995 58.0269 64.2813 58.25 64.32C58.4098 64.335 58.5637 64.3883 58.6986 64.4753C58.8335 64.5624 58.9454 64.6806 59.025 64.82C59.1404 64.9889 59.2082 65.1856 59.2214 65.3897C59.2346 65.5938 59.1927 65.7977 59.1 65.98C58.9722 66.1376 58.7995 66.2527 58.6048 66.3098C58.4101 66.367 58.2027 66.3636 58.01 66.3C57.6467 66.2171 57.3056 66.0568 57.01 65.83C56.9146 65.7378 56.8485 65.6195 56.82 65.49C56.8 65.3565 56.8103 65.2203 56.8501 65.0913C56.8899 64.9624 56.9582 64.844 57.05 64.745" fill="#EB996E"/>
<path d="M58.96 54.59C59.05 54.815 59.885 54.675 60.87 54.76C61.855 54.845 62.67 55.08 62.79 54.87C62.845 54.77 62.7 54.56 62.37 54.37C61.9341 54.1092 61.442 53.9566 60.935 53.925C60.4234 53.8825 59.9091 53.963 59.435 54.16C59.095 54.295 58.92 54.5 58.96 54.59Z" fill="#263238"/>
<path d="M51.045 53.07C51.2 53.255 51.77 53.035 52.465 53C53.16 52.965 53.755 53.08 53.88 52.875C53.935 52.78 53.835 52.59 53.575 52.42C53.2208 52.2164 52.8141 52.1224 52.4065 52.15C51.9988 52.1776 51.6085 52.3255 51.285 52.575C51.05 52.78 51 53 51.045 53.07Z" fill="#263238"/>
<path d="M71 49.84C69.815 46.34 64.635 41.585 60.96 41.91L55.155 45.54C55.3646 46.5385 55.8399 47.4618 56.5308 48.2125C57.2216 48.9632 58.1024 49.5134 59.08 49.805C60.125 50.1 61.375 50.165 62.01 51.045C62.645 51.925 62.315 53.28 62.92 54.21C63.755 55.5 65.975 55.395 66.615 56.795C66.89 57.405 66.765 58.14 67.055 58.75C67.44 59.555 69.52 60.55 70.37 60.25C71.22 59.95 71.19 58.51 71.455 57.75C71.7895 56.8853 71.8159 55.9319 71.53 55.05C71.13 53.345 71.57 51.5 71 49.84Z" fill="#263238"/>
<path d="M67.87 61.03C67.87 60.575 68.34 59.49 68.785 59.4C69.97 59.17 72.125 59.185 72.285 62.22C72.47 66.365 68.285 65.69 68.255 65.575C68.225 65.46 67.925 62.595 67.87 61.03Z" fill="#FFBE9D"/>
<path d="M69.43 63.945C69.43 63.945 69.505 63.995 69.625 64.045C69.7114 64.0809 69.804 64.0994 69.8975 64.0994C69.991 64.0994 70.0836 64.0809 70.17 64.045C70.6 63.865 70.935 63.155 70.925 62.41C70.9217 62.0537 70.8361 61.7029 70.675 61.385C70.6318 61.257 70.5576 61.1416 70.459 61.0491C70.3604 60.9566 70.2405 60.89 70.11 60.855C70.0259 60.8354 69.9375 60.8462 69.8606 60.8855C69.7837 60.9249 69.7232 60.9903 69.69 61.07C69.64 61.19 69.69 61.27 69.65 61.275C69.61 61.28 69.555 61.21 69.585 61.04C69.6007 60.9349 69.654 60.8389 69.735 60.77C69.8458 60.6798 69.9877 60.6367 70.13 60.65C70.3018 60.6752 70.464 60.7447 70.6008 60.8517C70.7376 60.9587 70.8441 61.0994 70.91 61.26C71.1019 61.6117 71.2065 62.0044 71.215 62.405C71.215 63.24 70.83 64.04 70.215 64.24C70.1052 64.2773 69.9885 64.2894 69.8734 64.2756C69.7583 64.2617 69.6478 64.2222 69.55 64.16C69.44 64.045 69.415 63.955 69.43 63.945Z" fill="#EB996E"/>
<path d="M74.76 55.36C74.8854 54.9575 74.9396 54.5362 74.92 54.115C74.9312 52.0652 74.2552 50.0707 73 48.45C72.7613 48.1042 72.4654 47.8015 72.125 47.555C72.045 47.605 73.435 48.985 74.165 51.21C74.5759 52.5545 74.7766 53.9543 74.76 55.36Z" fill="#18A0A0"/>
<path d="M56.365 44.29C55.98 45.975 53.415 48.135 52.285 49.45C50.135 51.95 49.73 52.32 49.745 59.875C48.6326 57.5298 48.044 54.9706 48.02 52.375C48.0704 50.1679 48.9257 48.0554 50.425 46.435C51.1806 45.6411 52.1109 45.0344 53.1421 44.6629C54.1732 44.2914 55.2767 44.1654 56.365 44.295" fill="#263238"/>
<path d="M73.115 49.785C72.8885 49.8677 72.6539 49.9264 72.415 49.96C72.185 50.01 71.915 50.065 71.575 50.105C71.235 50.145 70.87 50.215 70.45 50.235C69.473 50.3065 68.4921 50.3065 67.515 50.235C66.3158 50.1483 65.1253 49.9661 63.955 49.69C62.7885 49.3974 61.648 49.0095 60.545 48.53C59.6469 48.1352 58.7795 47.6739 57.95 47.15C57.585 46.94 57.285 46.71 57.015 46.52C56.7799 46.3653 56.5529 46.1984 56.335 46.02C56.1406 45.8678 55.9584 45.7006 55.79 45.52C56.0034 45.6348 56.2059 45.7686 56.395 45.92C56.58 46.06 56.81 46.225 57.09 46.42C57.37 46.615 57.675 46.815 58.04 47.015C58.8735 47.5144 59.7406 47.9554 60.635 48.335C61.7252 48.809 62.8502 49.1985 64 49.5C65.1514 49.7722 66.3212 49.9594 67.5 50.06C68.4684 50.1326 69.4406 50.1409 70.41 50.085C70.825 50.085 71.2 50.02 71.525 49.995C71.85 49.97 72.135 49.925 72.365 49.89C72.6118 49.8348 72.8626 49.7997 73.115 49.785Z" fill="#455A64"/>
<path d="M73.545 52.76C73.384 52.8197 73.2159 52.8583 73.045 52.875C72.6037 52.958 72.158 53.0147 71.71 53.045C68.7291 53.2637 65.7444 52.6747 63.07 51.34C62.6661 51.1425 62.2738 50.9222 61.895 50.68C61.749 50.6001 61.6145 50.5008 61.495 50.385C61.495 50.35 62.12 50.715 63.145 51.185C65.823 52.416 68.7551 52.9936 71.7 52.87C72.845 52.825 73.54 52.715 73.545 52.76Z" fill="#455A64"/>
<path d="M74.595 52.86C74.6665 53.062 74.7135 53.2718 74.735 53.485C74.8 53.895 74.865 54.485 74.905 55.22C74.95 56.0811 74.95 56.9439 74.905 57.805C74.8656 58.863 74.7233 59.9146 74.48 60.945C73.9919 62.8385 72.8539 64.5003 71.265 65.64C70.7827 65.9694 70.2664 66.246 69.725 66.465C69.5326 66.5581 69.3294 66.627 69.12 66.67C69.2998 66.5561 69.4888 66.4574 69.685 66.375C70.2012 66.125 70.6948 65.8305 71.16 65.495C71.8422 64.9906 72.4368 64.3774 72.92 63.68C73.5283 62.8382 73.9743 61.8904 74.235 60.885C74.4715 59.8681 74.6187 58.8325 74.675 57.79C74.735 56.825 74.745 55.955 74.73 55.225C74.715 54.495 74.68 53.905 74.64 53.5C74.6059 53.2885 74.5908 53.0743 74.595 52.86Z" fill="#455A64"/>
<path d="M58.06 66.29C58.2845 66.2922 58.506 66.2389 58.705 66.135C58.8024 66.0751 58.8858 65.995 58.9497 65.9001C59.0135 65.8053 59.0562 65.6978 59.075 65.585C59.0974 65.4468 59.0894 65.3054 59.0514 65.1707C59.0134 65.0359 58.9463 64.9111 58.855 64.805C58.6606 64.5966 58.3943 64.4697 58.11 64.45C57.8706 64.4357 57.6319 64.4876 57.42 64.6C57.05 64.795 56.92 65.035 56.86 65.01C56.8 64.985 56.935 64.71 57.325 64.44C57.5597 64.2826 57.8375 64.2022 58.12 64.21C58.2958 64.214 58.4688 64.2538 58.6287 64.3268C58.7886 64.3999 58.932 64.5048 59.05 64.635C59.168 64.7701 59.2529 64.9307 59.2981 65.1043C59.3432 65.2779 59.3473 65.4596 59.31 65.635C59.2826 65.7765 59.2233 65.91 59.1367 66.0252C59.0501 66.1404 58.9383 66.2344 58.81 66.3C58.34 66.5 58.035 66.31 58.06 66.29Z" fill="#263238"/>
<path d="M83.635 100.43L85.865 95.675C86.235 94.175 87.745 93.675 89.595 93.555L91.55 92.755C91.55 92.755 92.975 90.7 94.295 90.755C94.3985 90.7585 94.4983 90.7941 94.5807 90.8568C94.6631 90.9195 94.724 91.0062 94.755 91.105C94.7773 91.1723 94.7839 91.2437 94.7744 91.3139C94.7649 91.3841 94.7394 91.4512 94.7 91.51L93.095 93.98L91.815 94.61C91.815 94.61 93.015 94.9 93.49 94.455C93.965 94.01 95.57 92.74 95.57 92.74C95.57 92.74 96.795 90.535 98.385 90.7C98.4327 90.7043 98.4785 90.7203 98.5185 90.7466C98.5584 90.773 98.5912 90.8087 98.614 90.8508C98.6368 90.8929 98.6488 90.94 98.649 90.9878C98.6491 91.0356 98.6375 91.0828 98.615 91.125L97.395 93.48C97.395 93.48 99.62 90.135 101.74 91.385L99.39 93.94C99.39 93.94 102.8 92.005 104.16 93.625L95.53 97.19L90.555 98.165L88.815 102.885L87.285 102L83.635 100.43Z" fill="#FFBE9D"/>
<path d="M88.805 106.605C88.805 106.605 89.07 115.055 87.51 117.385C85.95 119.715 83.05 122.885 79.46 120.345L77.215 111.845C77.215 111.845 80.87 107.845 81.535 106.195C83.19 102.1 85.865 95.695 85.865 95.695L90.625 97.815L88.805 106.605Z" fill="#FFBE9D"/>
<path d="M82.075 105.42C81.9278 105.792 81.7471 106.15 81.535 106.49C81.185 107.135 80.715 108.035 80.25 109.055C79.785 110.075 79.41 111.02 79.145 111.71C79.0294 112.092 78.877 112.462 78.69 112.815C78.7368 112.416 78.8326 112.025 78.975 111.65C79.2605 110.728 79.6063 109.826 80.01 108.95C80.412 108.071 80.8679 107.218 81.375 106.395C81.568 106.043 81.8031 105.715 82.075 105.42Z" fill="#EB996E"/>
<path d="M93.095 93.955C92.7532 94.2546 92.358 94.4869 91.93 94.64C91.5395 94.8701 91.1083 95.0228 90.66 95.09C91.0005 94.7912 91.394 94.5589 91.82 94.405C92.2125 94.1753 92.6453 94.0226 93.095 93.955Z" fill="#EB996E"/>
<path d="M93.81 96.19C93.81 96.155 94.035 96.005 94.44 95.83L95.16 95.535L95.575 95.36C95.7135 95.3074 95.8359 95.2195 95.93 95.105C96.365 94.605 96.72 94.105 97.005 93.77C97.29 93.435 97.505 93.225 97.53 93.27C97.5016 93.3284 97.4699 93.3852 97.435 93.44L97.155 93.88C96.8416 94.3692 96.4958 94.8369 96.12 95.28C96.0595 95.3495 95.9925 95.4131 95.92 95.47C95.8448 95.5203 95.7643 95.5622 95.68 95.595L95.245 95.76C94.97 95.86 94.715 95.935 94.505 96.005C94.2817 96.0946 94.0483 96.1568 93.81 96.19Z" fill="#EB996E"/>
</svg>
