<svg width="250" height="250" viewBox="0 0 250 250" fill="none" xmlns="http://www.w3.org/2000/svg">
<path d="M122.495 239.77C187.825 239.77 240.785 209.193 240.785 171.475C240.785 133.757 187.825 103.18 122.495 103.18C57.1652 103.18 4.20496 133.757 4.20496 171.475C4.20496 209.193 57.1652 239.77 122.495 239.77Z" fill="#F0F0F0"/>
<path d="M100.305 229.84C99.0431 229.858 97.7979 229.549 96.69 228.945L39.045 195.66C38.421 195.388 37.89 194.939 37.5172 194.369C37.1443 193.8 36.9457 193.133 36.9457 192.453C36.9457 191.772 37.1443 191.106 37.5172 190.536C37.89 189.966 38.421 189.518 39.045 189.245L140.545 130.64C141.66 130.052 142.902 129.745 144.162 129.745C145.423 129.745 146.665 130.052 147.78 130.64L205.425 163.925C206.049 164.198 206.58 164.646 206.953 165.216C207.326 165.786 207.524 166.452 207.524 167.133C207.524 167.813 207.326 168.48 206.953 169.049C206.58 169.619 206.049 170.068 205.425 170.34L103.925 228.945C102.815 229.549 101.568 229.857 100.305 229.84Z" fill="#E0E0E0"/>
<path d="M203.07 160.115L197.445 157.115C197.445 157.115 197.015 148.515 197.685 141.7C198.63 132.12 205.75 121 213.125 123.7C220.5 126.4 209.745 136.16 207.35 144.28C204.955 152.4 203.07 160.115 203.07 160.115Z" fill="#18A0A0"/>
<path opacity="0.1" d="M203.07 160.115L197.445 157.115C197.445 157.115 197.015 148.515 197.685 141.7C198.63 132.12 205.75 121 213.125 123.7C220.5 126.4 209.745 136.16 207.35 144.28C204.955 152.4 203.07 160.115 203.07 160.115Z" fill="black"/>
<path d="M200.32 159.115C200.385 159.112 200.447 159.084 200.492 159.037C200.537 158.989 200.561 158.925 200.56 158.86C199.835 137.58 210.43 126.86 210.535 126.77C210.558 126.747 210.577 126.72 210.589 126.69C210.602 126.66 210.609 126.628 210.609 126.595C210.609 126.562 210.602 126.53 210.589 126.5C210.577 126.47 210.558 126.443 210.535 126.42C210.512 126.397 210.484 126.378 210.454 126.365C210.423 126.353 210.39 126.346 210.357 126.346C210.324 126.346 210.292 126.353 210.261 126.365C210.231 126.378 210.203 126.397 210.18 126.42C210.075 126.53 199.325 137.385 200.055 158.88C200.057 158.913 200.065 158.945 200.08 158.975C200.094 159.004 200.114 159.031 200.139 159.053C200.163 159.074 200.192 159.091 200.223 159.102C200.254 159.113 200.287 159.117 200.32 159.115Z" fill="white"/>
<path d="M205.955 161.815L203.03 160.125C202.58 155.317 203.201 150.469 204.85 145.93C207.56 138.575 214.56 134.565 217.78 135.66C221.715 137 221.74 140.765 220.31 143.24C218.62 146.16 208.08 153.545 205.955 161.815Z" fill="#18A0A0"/>
<path d="M204.415 161.17C204.481 161.17 204.545 161.144 204.592 161.097C204.639 161.05 204.665 160.986 204.665 160.92C204.605 147.465 217.24 138.375 217.365 138.285C217.416 138.246 217.449 138.189 217.459 138.125C217.469 138.062 217.454 137.997 217.417 137.945C217.381 137.892 217.325 137.856 217.262 137.843C217.2 137.83 217.134 137.841 217.08 137.875C216.95 137.97 204.08 147.215 204.165 160.925C204.165 160.958 204.171 160.99 204.184 161.02C204.197 161.05 204.215 161.077 204.238 161.1C204.262 161.123 204.289 161.141 204.32 161.153C204.35 161.165 204.382 161.171 204.415 161.17Z" fill="white"/>
<path d="M34.5 165.95V154.23C34.5 154.23 33.9 147.615 29.27 142.6C24.64 137.585 20.5 139.29 19.145 141.67C17.79 144.05 20.865 148.57 22.83 151.115C25.195 154.175 34.5 168.39 34.5 174.755V165.95Z" fill="#18A0A0"/>
<g opacity="0.2">
<path d="M34.5 165.95V154.23C34.5 154.23 33.9 147.615 29.27 142.6C24.64 137.585 20.5 139.29 19.145 141.67C17.79 144.05 20.865 148.57 22.83 151.115C25.195 154.175 34.5 168.39 34.5 174.755V165.95Z" fill="black"/>
</g>
<path d="M34.5 164.1C34.4312 164.1 34.3647 164.075 34.3125 164.03C34.2603 163.985 34.2257 163.923 34.215 163.855C32.105 151.075 22.375 142.305 22.28 142.22C22.223 142.17 22.1883 142.099 22.1837 142.023C22.179 141.947 22.2046 141.872 22.255 141.815C22.3054 141.758 22.3764 141.723 22.4524 141.719C22.5283 141.714 22.603 141.74 22.66 141.79C22.76 141.88 32.66 150.79 34.785 163.765C34.7966 163.841 34.7778 163.918 34.7329 163.979C34.6879 164.041 34.6204 164.083 34.545 164.095L34.5 164.1Z" fill="white"/>
<path d="M34.56 167.5C34.56 167.5 34.945 166.335 33.235 166.04C31.525 165.745 30.865 164.325 30.705 161.935C30.545 159.545 29.825 157.835 27.675 157.485C25.525 157.135 23.805 158.21 22.41 157.135C21.015 156.06 17.41 153.465 14.41 154.635C11.41 155.805 12.41 158.385 13.95 160.045C15.49 161.705 15.95 162.27 14.77 164.97C13.59 167.67 14.445 170.2 17.205 170.83C19.965 171.46 21.515 171.14 21.555 174.17C21.595 177.2 22.015 178.55 23.555 179.74C25.095 180.93 29.83 180.39 31.81 180.85C32.4045 181.001 32.9597 181.278 33.4383 181.662C33.917 182.046 34.3079 182.528 34.585 183.075L34.56 167.5Z" fill="#18A0A0"/>
<path d="M34.56 179.97C34.5105 179.97 34.4624 179.954 34.4221 179.926C34.3819 179.897 34.3514 179.857 34.335 179.81C29.31 164.88 17.93 158.85 17.835 158.81C17.7793 158.781 17.7374 158.731 17.7187 158.671C17.6999 158.611 17.7058 158.546 17.735 158.49C17.7641 158.434 17.8142 158.392 17.8742 158.374C17.9343 158.355 17.9993 158.361 18.055 158.39C18.17 158.45 29.715 164.56 34.805 179.675C34.8151 179.705 34.8193 179.736 34.8172 179.767C34.8151 179.798 34.8069 179.829 34.7929 179.856C34.7789 179.884 34.7595 179.909 34.7359 179.93C34.7122 179.95 34.6847 179.965 34.655 179.975L34.56 179.97Z" fill="white"/>
<path d="M27.35 166.955H27.295C24.015 166.205 18.76 166.61 18.71 166.615C18.6471 166.621 18.5845 166.601 18.5358 166.561C18.4872 166.521 18.4563 166.463 18.45 166.4C18.4458 166.337 18.4664 166.274 18.5074 166.226C18.5485 166.177 18.6068 166.146 18.67 166.14C18.89 166.14 24.05 165.725 27.4 166.495C27.4571 166.507 27.5076 166.54 27.5419 166.587C27.5762 166.634 27.5917 166.692 27.5855 166.75C27.5792 166.808 27.5517 166.862 27.5082 166.9C27.4647 166.939 27.4083 166.96 27.35 166.96V166.955Z" fill="white"/>
<path d="M30.025 174.13C28.525 174.13 26.935 174.035 26.835 174.03C26.7718 174.025 26.713 173.995 26.671 173.948C26.6291 173.9 26.6072 173.838 26.61 173.775C26.6119 173.744 26.62 173.713 26.6339 173.685C26.6479 173.657 26.6673 173.632 26.691 173.611C26.7148 173.591 26.7425 173.575 26.7723 173.565C26.8022 173.556 26.8337 173.552 26.865 173.555C26.9 173.555 30.565 173.78 31.995 173.555C32.0277 173.545 32.0621 173.543 32.096 173.547C32.1298 173.552 32.1622 173.564 32.1911 173.582C32.22 173.6 32.2447 173.624 32.2635 173.653C32.2823 173.681 32.2948 173.714 32.3002 173.747C32.3056 173.781 32.3037 173.815 32.2947 173.848C32.2857 173.881 32.2698 173.912 32.248 173.938C32.2262 173.965 32.199 173.986 32.1683 174.001C32.1376 174.016 32.1041 174.024 32.07 174.025C31.3916 174.107 30.7083 174.142 30.025 174.13Z" fill="white"/>
<path d="M25.81 165.205C25.7477 165.2 25.6897 165.171 25.6479 165.125C25.606 165.078 25.5835 165.018 25.585 164.955C25.6993 163.247 26.0545 161.564 26.64 159.955C26.6634 159.896 26.7092 159.849 26.7672 159.824C26.8253 159.798 26.891 159.797 26.95 159.82C27.0077 159.843 27.054 159.888 27.0792 159.945C27.1044 160.002 27.1065 160.067 27.085 160.125C26.528 161.689 26.1914 163.323 26.085 164.98C26.0841 165.014 26.0759 165.047 26.0611 165.077C26.0462 165.107 26.025 165.134 25.9989 165.155C25.9728 165.177 25.9425 165.192 25.9099 165.201C25.8773 165.209 25.8432 165.211 25.81 165.205Z" fill="white"/>
<path d="M37.365 188.07C37.43 188.959 37.7038 189.821 38.1643 190.584C38.6247 191.348 39.2588 191.992 40.015 192.465L97.66 225.755C98.4803 226.172 99.3874 226.389 100.307 226.389C101.228 226.389 102.135 226.172 102.955 225.755L204.455 167.15C205.248 166.721 205.909 166.086 206.371 165.312C206.832 164.538 207.075 163.654 207.075 162.753C207.075 161.851 206.832 160.967 206.371 160.193C205.909 159.419 205.248 158.784 204.455 158.355L146.805 125.065C145.985 124.648 145.078 124.431 144.157 124.431C143.237 124.431 142.33 124.648 141.51 125.065L40 183.67C39.2467 184.146 38.6158 184.792 38.1581 185.556C37.7004 186.32 37.4287 187.181 37.365 188.07Z" fill="#18A0A0"/>
<path opacity="0.5" d="M207.11 162.75C207.045 163.64 206.772 164.501 206.313 165.266C205.853 166.03 205.22 166.676 204.465 167.15L102.965 225.755C102.151 226.187 101.241 226.406 100.32 226.39V220.655C101.241 220.671 102.151 220.452 102.965 220.02L204.465 161.415C205.745 160.675 205.905 159.535 204.965 158.695C205.585 159.184 206.096 159.798 206.466 160.496C206.835 161.194 207.055 161.962 207.11 162.75Z" fill="black"/>
<path opacity="0.3" d="M40 186.73L97.66 220C98.4803 220.417 99.3874 220.634 100.307 220.634C101.228 220.634 102.135 220.417 102.955 220L204.455 161.39C205.915 160.55 205.915 159.18 204.455 158.335L146.805 125.045C145.985 124.628 145.078 124.411 144.157 124.411C143.237 124.411 142.33 124.628 141.51 125.045L40 183.67C38.55 184.5 38.55 185.885 40 186.73Z" fill="black"/>
<path opacity="0.7" d="M100.31 220.655V226.385C99.3872 226.406 98.4746 226.189 97.66 225.755L40 192.465C39.2249 192.056 38.5721 191.449 38.1078 190.706C37.6436 189.962 37.3846 189.109 37.3572 188.234C37.3297 187.358 37.5348 186.49 37.9516 185.719C38.3684 184.948 38.982 184.302 39.73 183.845C38.545 184.695 38.64 185.94 40 186.73L97.66 220C98.4733 220.44 99.3853 220.665 100.31 220.655Z" fill="black"/>
<path d="M34.88 183.765C33.51 182.975 33.585 181.64 33.585 179.95V100.325C33.6348 99.4067 33.9002 98.5131 34.3598 97.7165C34.8193 96.9199 35.46 96.2428 36.23 95.74L137.73 37.135C138.517 36.7166 139.392 36.4899 140.284 36.4734C141.175 36.4569 142.058 36.651 142.86 37.04C144.235 37.83 144.16 39.17 144.16 40.855V120.5C144.11 121.419 143.844 122.313 143.384 123.11C142.924 123.907 142.281 124.583 141.51 125.085L40 183.67C39.2139 184.087 38.3408 184.312 37.4513 184.329C36.5618 184.346 35.6809 184.152 34.88 183.765Z" fill="#18A0A0"/>
<path opacity="0.3" d="M144.17 40.855C144.17 39.17 142.985 38.485 141.52 39.325L40 97.935C39.2144 98.4291 38.5702 99.1181 38.13 99.935L34.35 97.735C34.7951 96.92 35.4403 96.2317 36.225 95.735L137.725 37.135C138.512 36.7166 139.387 36.4899 140.279 36.4734C141.17 36.4569 142.053 36.651 142.855 37.04C144.24 37.83 144.17 39.17 144.17 40.855Z" fill="black"/>
<path opacity="0.5" d="M37.365 102.5V182.145C37.365 183.83 38.55 184.515 40.01 183.645L141.5 125.065C142.271 124.563 142.914 123.887 143.374 123.09C143.835 122.293 144.1 121.399 144.15 120.48V40.855C144.15 39.17 142.965 38.485 141.5 39.355L40 97.935C39.2345 98.437 38.5974 99.1114 38.1397 99.9042C37.6821 100.697 37.4168 101.586 37.365 102.5Z" fill="black"/>
<path opacity="0.7" d="M39.7 183.83C38.9408 184.173 38.1156 184.344 37.2827 184.333C36.4499 184.322 35.6296 184.128 34.88 183.765C33.51 182.975 33.585 181.64 33.585 179.95V100.325C33.6156 99.4046 33.8825 98.5075 34.36 97.72L38.14 99.905C37.6682 100.691 37.4017 101.584 37.365 102.5V182.145C37.365 183.71 38.385 184.415 39.7 183.83Z" fill="black"/>
<path d="M41.435 101L139.305 44.5C140.18 44 140.89 44.405 140.89 45.415V114.915C140.861 115.466 140.703 116.002 140.427 116.48C140.152 116.958 139.767 117.364 139.305 117.665L41.435 174.165C40.56 174.665 39.85 174.26 39.85 173.245V103.745C39.8795 103.195 40.0385 102.66 40.3139 102.183C40.5893 101.706 40.9734 101.301 41.435 101Z" fill="#FAFAFA"/>
<path d="M61.92 118.47L119.385 85.295C121.09 84.295 122.47 85.01 122.47 86.855C122.47 88.7 121.09 91 119.385 92L61.92 125.15C60.22 126.15 58.84 125.435 58.84 123.59C58.84 121.745 60.22 119.455 61.92 118.47Z" fill="#455A64"/>
<path d="M121.5 86.855C121.5 88.355 120.305 90.355 118.89 91.15L107.155 97.93L61.425 124.325C61.1365 124.517 60.8013 124.628 60.455 124.645C60 124.645 59.765 124.29 59.765 123.59C59.765 122.09 60.96 120.09 62.375 119.29L107.155 93.44L119.84 86.115C120.132 85.9266 120.468 85.8164 120.815 85.795C121.29 85.795 121.5 86.155 121.5 86.855Z" fill="#18A0A0"/>
<path d="M121.5 86.855C121.5 88.355 120.305 90.355 118.89 91.15L107.155 97.93L61.425 124.325C61.1365 124.517 60.8013 124.628 60.455 124.645C60 124.645 59.765 124.29 59.765 123.59C59.765 122.09 60.96 120.09 62.375 119.29L107.155 93.44L119.84 86.115C120.132 85.9266 120.468 85.8164 120.815 85.795C121.29 85.795 121.5 86.155 121.5 86.855Z" fill="#18A0A0"/>
<path d="M121.5 86.855C121.5 88.355 120.305 90.355 118.89 91.15L107.155 97.93V93.43L119.84 86.105C120.132 85.9166 120.468 85.8064 120.815 85.785C121.29 85.795 121.5 86.155 121.5 86.855Z" fill="#263238"/>
<path opacity="0.6" d="M75.5349 111.705L62.3949 119.29C60.9799 120.105 59.7849 122.075 59.7849 123.59C59.7849 124.29 60.0199 124.645 60.4749 124.645C60.8212 124.628 61.1564 124.517 61.4449 124.325L75.5349 116.195V111.705Z" fill="white"/>
<path opacity="0.4" d="M75.5399 116.19L91.4649 107V102.51L75.5399 111.705V116.19Z" fill="white"/>
<path d="M79.83 126.755C79.8481 126.739 79.8712 126.731 79.895 126.731C79.9188 126.731 79.9419 126.739 79.96 126.755C79.9796 126.777 79.9946 126.804 80.0041 126.832C80.0135 126.86 80.0172 126.89 80.015 126.92V127.65C80.014 127.73 79.9953 127.808 79.96 127.88C79.9334 127.944 79.888 127.998 79.83 128.035L76.895 129.73C76.8782 129.746 76.8558 129.755 76.8325 129.755C76.8092 129.755 76.7868 129.746 76.77 129.73C76.7503 129.707 76.7353 129.681 76.7259 129.653C76.7165 129.625 76.7127 129.595 76.715 129.565V122.9C76.7166 122.82 76.7353 122.742 76.77 122.67C76.795 122.607 76.8386 122.553 76.895 122.515L77.44 122.2C77.4573 122.185 77.4795 122.177 77.5025 122.177C77.5255 122.177 77.5477 122.185 77.565 122.2C77.5847 122.222 77.5996 122.249 77.6091 122.277C77.6185 122.305 77.6222 122.335 77.62 122.365V128.02L79.83 126.755Z" fill="#455A64"/>
<path d="M82.4649 121.055C82.6643 120.924 82.8964 120.851 83.1349 120.845C83.3181 120.846 83.4949 120.912 83.6349 121.03C83.7922 121.174 83.9122 121.354 83.9849 121.555C84.0763 121.812 84.1269 122.082 84.1349 122.355C84.1349 122.41 84.1349 122.49 84.1349 122.585V123.16C84.1349 123.25 84.1349 123.33 84.1349 123.395C84.1172 123.733 84.0653 124.068 83.9799 124.395C83.8973 124.713 83.7817 125.021 83.6349 125.315C83.5003 125.593 83.3324 125.853 83.1349 126.09C82.9447 126.314 82.7182 126.505 82.4649 126.655C82.266 126.782 82.0361 126.853 81.7999 126.86C81.6173 126.86 81.4404 126.797 81.2999 126.68C81.1434 126.546 81.0245 126.374 80.9549 126.18C80.8622 125.925 80.8099 125.656 80.7999 125.385C80.7999 125.325 80.7999 125.25 80.7999 125.155C80.7999 125.06 80.7999 124.97 80.7999 124.875C80.7999 124.78 80.7999 124.68 80.7999 124.585C80.7999 124.49 80.7999 124.405 80.7999 124.34C80.8138 124.002 80.8641 123.667 80.9499 123.34C81.0351 123.021 81.1524 122.711 81.2999 122.415C81.4333 122.135 81.6012 121.873 81.7999 121.635C81.9855 121.404 82.2106 121.207 82.4649 121.055ZM83.2799 122.91C83.2754 122.739 83.2415 122.57 83.1799 122.41C83.143 122.316 83.0762 122.237 82.9899 122.185C82.9089 122.157 82.8209 122.157 82.7399 122.185C82.643 122.209 82.5503 122.248 82.4649 122.3C82.3664 122.357 82.2742 122.424 82.1899 122.5C82.0943 122.593 82.0118 122.699 81.9449 122.815C81.8638 122.955 81.8 123.104 81.7549 123.26C81.6981 123.452 81.6645 123.65 81.6549 123.85C81.6549 123.905 81.6549 123.98 81.6549 124.06C81.6549 124.14 81.6549 124.23 81.6549 124.32C81.6549 124.41 81.6549 124.5 81.6549 124.585C81.6549 124.67 81.6549 124.735 81.6549 124.78C81.6593 124.943 81.6932 125.104 81.7549 125.255C81.7919 125.349 81.8586 125.428 81.9449 125.48C82.0213 125.516 82.1078 125.525 82.1899 125.505C82.287 125.484 82.3799 125.446 82.4649 125.395C82.5632 125.336 82.6554 125.267 82.7399 125.19C82.837 125.097 82.9211 124.991 82.9899 124.875C83.0718 124.735 83.1356 124.586 83.1799 124.43C83.2348 124.238 83.2683 124.04 83.2799 123.84C83.2799 123.79 83.2799 123.725 83.2799 123.635V123.135C83.2849 123.03 83.2799 122.96 83.2799 122.91Z" fill="#455A64"/>
<path d="M85.2549 120.87C85.2805 120.687 85.3223 120.506 85.3799 120.33C85.4502 120.114 85.5423 119.907 85.6549 119.71C85.7782 119.492 85.924 119.288 86.0899 119.1C86.2608 118.901 86.4636 118.732 86.6899 118.6C86.8762 118.483 87.0864 118.41 87.3049 118.385C87.3891 118.375 87.4743 118.382 87.5558 118.405C87.6373 118.428 87.7135 118.467 87.7799 118.52C87.9292 118.652 88.0354 118.827 88.0849 119.02C88.1617 119.303 88.1971 119.596 88.1899 119.89V122.925C88.191 123.003 88.1739 123.08 88.1399 123.15C88.1145 123.216 88.069 123.272 88.0099 123.31L87.5099 123.6C87.4931 123.616 87.4707 123.625 87.4474 123.625C87.4241 123.625 87.4017 123.616 87.3849 123.6C87.3652 123.578 87.3503 123.551 87.3408 123.523C87.3314 123.495 87.3277 123.465 87.3299 123.435V123.09C87.2296 123.356 87.0933 123.606 86.9249 123.835C86.7459 124.083 86.5157 124.289 86.2499 124.44C86.0984 124.536 85.9277 124.597 85.7499 124.62C85.6132 124.631 85.4774 124.59 85.3699 124.505C85.2556 124.406 85.1723 124.275 85.1299 124.13C85.0697 123.936 85.041 123.733 85.0449 123.53C85.0407 123.075 85.1544 122.628 85.3749 122.23C85.5992 121.826 85.8978 121.468 86.2549 121.175L87.3449 120.255C87.3449 119.97 87.2849 119.81 87.1649 119.755C87.0883 119.735 87.0081 119.732 86.9302 119.746C86.8524 119.761 86.7788 119.793 86.7149 119.84C86.6149 119.896 86.5266 119.971 86.4549 120.06C86.3837 120.155 86.3233 120.257 86.2749 120.365C86.2431 120.427 86.2045 120.486 86.1599 120.54C86.1294 120.578 86.0921 120.61 86.0499 120.635L85.4299 120.995C85.4128 121.006 85.3928 121.012 85.3724 121.012C85.352 121.012 85.332 121.006 85.3149 120.995C85.2959 120.98 85.2806 120.961 85.2701 120.94C85.2597 120.918 85.2545 120.894 85.2549 120.87ZM86.3749 123.135C86.5263 123.045 86.6629 122.932 86.7799 122.8C86.8977 122.668 86.9985 122.522 87.0799 122.365C87.158 122.214 87.2184 122.055 87.2599 121.89C87.2986 121.74 87.3187 121.585 87.3199 121.43V121.325L86.4099 122.1C86.2536 122.223 86.1199 122.371 86.0149 122.54C85.9341 122.676 85.891 122.832 85.8899 122.99C85.8899 123.135 85.9399 123.21 86.0349 123.225C86.155 123.232 86.2742 123.201 86.3749 123.135Z" fill="#455A64"/>
<path d="M90.76 116.265C90.8741 116.195 90.9991 116.144 91.13 116.115C91.2257 116.096 91.3243 116.096 91.42 116.115C91.495 116.126 91.5666 116.154 91.63 116.195C91.6818 116.229 91.7289 116.269 91.77 116.315V114.115C91.7715 114.037 91.7903 113.96 91.825 113.89C91.8516 113.826 91.897 113.772 91.955 113.735L92.455 113.44C92.4731 113.425 92.4962 113.416 92.52 113.416C92.5438 113.416 92.5669 113.425 92.585 113.44C92.6047 113.463 92.6197 113.489 92.6291 113.517C92.6385 113.545 92.6423 113.575 92.64 113.605V120.375C92.6385 120.453 92.6197 120.53 92.585 120.6C92.5596 120.666 92.5141 120.722 92.455 120.76L91.955 121.055C91.9365 121.07 91.9136 121.078 91.89 121.078C91.8664 121.078 91.8435 121.07 91.825 121.055C91.8054 121.033 91.7904 121.006 91.7809 120.978C91.7715 120.95 91.7678 120.92 91.77 120.89V120.65C91.7295 120.748 91.6828 120.843 91.63 120.935C91.5677 121.047 91.4975 121.153 91.42 121.255C91.3317 121.371 91.2347 121.479 91.13 121.58C91.0185 121.687 90.8942 121.779 90.76 121.855C90.5821 121.974 90.368 122.027 90.155 122.005C89.9718 121.976 89.806 121.88 89.69 121.735C89.547 121.56 89.4446 121.355 89.39 121.135C89.3119 120.86 89.2699 120.576 89.265 120.29C89.265 120.19 89.265 120.075 89.265 119.935C89.265 119.795 89.265 119.675 89.265 119.57C89.2746 119.233 89.3164 118.899 89.39 118.57C89.4574 118.244 89.558 117.926 89.69 117.62C89.8089 117.334 89.9653 117.065 90.155 116.82C90.3169 116.596 90.5227 116.407 90.76 116.265ZM90.135 119.125C90.125 119.317 90.125 119.508 90.135 119.7C90.165 120.135 90.25 120.405 90.405 120.51C90.4896 120.561 90.5875 120.586 90.6863 120.582C90.7851 120.577 90.8803 120.544 90.96 120.485C91.2018 120.337 91.3948 120.122 91.515 119.865C91.6714 119.554 91.7584 119.213 91.77 118.865C91.77 118.755 91.77 118.625 91.77 118.465C91.77 118.305 91.77 118.18 91.77 118.08C91.7774 117.953 91.7585 117.826 91.7147 117.706C91.6708 117.587 91.6028 117.477 91.515 117.385C91.4355 117.324 91.3379 117.291 91.2375 117.291C91.1371 117.291 91.0396 117.324 90.96 117.385C90.7195 117.532 90.5268 117.746 90.405 118C90.2351 118.351 90.143 118.735 90.135 119.125Z" fill="#455A64"/>
<path d="M94.63 112.175C94.6468 112.159 94.6692 112.15 94.6925 112.15C94.7158 112.15 94.7382 112.159 94.755 112.175C94.7747 112.198 94.7897 112.224 94.7991 112.252C94.8085 112.28 94.8123 112.31 94.81 112.34V113.145C94.8085 113.223 94.7897 113.3 94.755 113.37C94.7297 113.433 94.6862 113.487 94.63 113.525L94.05 113.86C94.0332 113.876 94.0108 113.885 93.9875 113.885C93.9642 113.885 93.9418 113.876 93.925 113.86C93.9054 113.838 93.8904 113.811 93.8809 113.783C93.8715 113.755 93.8678 113.725 93.87 113.695V112.89C93.8715 112.812 93.8903 112.735 93.925 112.665C93.9485 112.601 93.9924 112.547 94.05 112.51L94.63 112.175ZM94.775 119.14C94.7735 119.218 94.7547 119.295 94.72 119.365C94.6951 119.43 94.6516 119.485 94.595 119.525L94.095 119.815C94.0765 119.83 94.0536 119.838 94.03 119.838C94.0064 119.838 93.9835 119.83 93.965 119.815C93.9462 119.792 93.9322 119.766 93.9236 119.738C93.915 119.709 93.9121 119.679 93.915 119.65V114.84C93.9142 114.761 93.9313 114.682 93.965 114.61C93.9933 114.547 94.0383 114.494 94.095 114.455L94.595 114.16C94.6118 114.144 94.6342 114.135 94.6575 114.135C94.6808 114.135 94.7032 114.144 94.72 114.16C94.7397 114.183 94.7547 114.209 94.7641 114.237C94.7735 114.265 94.7773 114.295 94.775 114.325V119.14Z" fill="#455A64"/>
<path d="M99.305 116.525C99.3061 116.603 99.2889 116.68 99.255 116.75C99.2281 116.813 99.1828 116.867 99.125 116.905L98.625 117.2C98.6082 117.216 98.5858 117.225 98.5625 117.225C98.5392 117.225 98.5168 117.216 98.5 117.2C98.4803 117.178 98.4653 117.151 98.4559 117.123C98.4465 117.095 98.4427 117.065 98.445 117.035V114.415C98.4711 114.108 98.4068 113.801 98.26 113.53C98.13 113.355 97.94 113.345 97.68 113.495C97.4215 113.658 97.2245 113.903 97.12 114.19C96.9794 114.541 96.9097 114.917 96.915 115.295V117.92C96.9161 117.998 96.8989 118.075 96.865 118.145C96.8381 118.208 96.7928 118.262 96.735 118.3L96.235 118.595C96.2182 118.611 96.1958 118.62 96.1725 118.62C96.1492 118.62 96.1268 118.611 96.11 118.595C96.0901 118.573 96.0749 118.547 96.0655 118.518C96.056 118.49 96.0525 118.46 96.055 118.43V113.6C96.0565 113.522 96.0753 113.445 96.11 113.375C96.1335 113.311 96.1774 113.257 96.235 113.22L96.735 112.925C96.7531 112.91 96.7762 112.901 96.8 112.901C96.8238 112.901 96.8469 112.91 96.865 112.925C96.8838 112.948 96.8978 112.974 96.9064 113.003C96.915 113.031 96.9179 113.061 96.915 113.09V113.325C97.0308 113.086 97.168 112.859 97.325 112.645C97.4757 112.444 97.6642 112.274 97.88 112.145C98.0807 112.006 98.321 111.936 98.565 111.945C98.6539 111.956 98.7395 111.986 98.8162 112.033C98.8928 112.079 98.9589 112.141 99.01 112.215C99.1334 112.407 99.2136 112.624 99.245 112.85C99.2953 113.141 99.3188 113.435 99.315 113.73L99.305 116.525Z" fill="#455A64"/>
<path d="M102.055 116.245C102.162 116.183 102.26 116.105 102.345 116.015C102.447 115.902 102.536 115.778 102.61 115.645C102.698 115.488 102.765 115.32 102.81 115.145C102.861 114.961 102.886 114.771 102.885 114.58V114.2C102.843 114.296 102.797 114.389 102.745 114.48C102.681 114.592 102.611 114.701 102.535 114.805C102.447 114.919 102.35 115.026 102.245 115.125C102.134 115.233 102.009 115.327 101.875 115.405C101.696 115.521 101.482 115.572 101.27 115.55C101.087 115.521 100.921 115.425 100.805 115.28C100.662 115.105 100.56 114.9 100.505 114.68C100.427 114.407 100.385 114.124 100.38 113.84C100.38 113.74 100.38 113.62 100.38 113.485C100.38 113.35 100.38 113.225 100.38 113.12C100.389 112.783 100.431 112.448 100.505 112.12C100.571 111.794 100.672 111.475 100.805 111.17C100.924 110.882 101.08 110.612 101.27 110.365C101.432 110.142 101.638 109.955 101.875 109.815C101.99 109.745 102.115 109.693 102.245 109.66C102.341 109.643 102.439 109.643 102.535 109.66C102.61 109.672 102.681 109.699 102.745 109.74C102.798 109.772 102.845 109.813 102.885 109.86V109.62C102.887 109.542 102.905 109.465 102.94 109.395C102.965 109.331 103.011 109.276 103.07 109.24L103.57 108.945C103.588 108.929 103.611 108.921 103.635 108.921C103.659 108.921 103.682 108.929 103.7 108.945C103.72 108.967 103.735 108.994 103.744 109.022C103.754 109.05 103.757 109.08 103.755 109.11V114C103.773 114.741 103.617 115.475 103.3 116.145C103.027 116.711 102.592 117.182 102.05 117.5C101.857 117.62 101.64 117.697 101.415 117.725C101.245 117.747 101.071 117.721 100.915 117.65C100.773 117.574 100.655 117.46 100.575 117.32C100.485 117.16 100.437 116.979 100.435 116.795C100.431 116.717 100.448 116.639 100.485 116.57C100.51 116.506 100.556 116.451 100.615 116.415L101.07 116.15C101.092 116.131 101.121 116.121 101.15 116.121C101.179 116.121 101.208 116.131 101.23 116.15L101.345 116.265C101.372 116.306 101.407 116.341 101.448 116.367C101.49 116.392 101.536 116.409 101.585 116.415C101.756 116.41 101.921 116.351 102.055 116.245ZM101.25 112.705C101.235 112.898 101.235 113.092 101.25 113.285C101.28 113.715 101.365 113.985 101.52 114.095C101.605 114.146 101.703 114.171 101.801 114.167C101.9 114.162 101.995 114.129 102.075 114.07C102.315 113.92 102.507 113.705 102.63 113.45C102.786 113.139 102.873 112.798 102.885 112.45C102.885 112.34 102.885 112.205 102.885 112.05C102.885 111.895 102.885 111.76 102.885 111.665C102.892 111.537 102.874 111.409 102.83 111.289C102.786 111.168 102.718 111.058 102.63 110.965C102.55 110.905 102.452 110.873 102.353 110.873C102.253 110.873 102.155 110.905 102.075 110.965C101.836 111.114 101.644 111.327 101.52 111.58C101.351 111.931 101.259 112.315 101.25 112.705Z" fill="#455A64"/>
<path d="M105.745 111.5C105.763 111.486 105.785 111.478 105.808 111.478C105.83 111.478 105.852 111.486 105.87 111.5C105.89 111.522 105.905 111.549 105.914 111.577C105.924 111.605 105.927 111.635 105.925 111.665V112.665C105.923 112.743 105.905 112.82 105.87 112.89C105.845 112.953 105.801 113.007 105.745 113.045L105.12 113.405C105.102 113.42 105.079 113.429 105.055 113.429C105.031 113.429 105.008 113.42 104.99 113.405C104.971 113.382 104.957 113.356 104.948 113.328C104.94 113.299 104.937 113.269 104.94 113.24V112.24C104.939 112.162 104.956 112.085 104.99 112.015C105.018 111.951 105.063 111.896 105.12 111.855L105.745 111.5Z" fill="#455A64"/>
<path d="M107.825 110.315C107.843 110.3 107.866 110.291 107.89 110.291C107.914 110.291 107.937 110.3 107.955 110.315C107.975 110.337 107.991 110.363 108 110.392C108.01 110.42 108.013 110.45 108.01 110.48V111.48C108.009 111.558 107.99 111.635 107.955 111.705C107.93 111.769 107.884 111.824 107.825 111.86L107.205 112.22C107.187 112.236 107.164 112.244 107.14 112.244C107.116 112.244 107.093 112.236 107.075 112.22C107.056 112.197 107.042 112.171 107.034 112.143C107.025 112.114 107.022 112.084 107.025 112.055V111.055C107.024 110.977 107.041 110.9 107.075 110.83C107.1 110.766 107.146 110.711 107.205 110.675L107.825 110.315Z" fill="#455A64"/>
<path d="M109.91 109.11C109.928 109.095 109.951 109.086 109.975 109.086C109.999 109.086 110.022 109.095 110.04 109.11C110.06 109.132 110.075 109.159 110.084 109.187C110.094 109.215 110.097 109.245 110.095 109.275V110.275C110.093 110.355 110.074 110.433 110.04 110.505C110.013 110.569 109.968 110.623 109.91 110.66L109.29 111.02C109.271 111.035 109.249 111.043 109.225 111.043C109.201 111.043 109.179 111.035 109.16 111.02C109.141 110.997 109.127 110.971 109.119 110.942C109.11 110.914 109.107 110.884 109.11 110.855V109.855C109.11 109.776 109.127 109.697 109.16 109.625C109.187 109.561 109.232 109.507 109.29 109.47L109.91 109.11Z" fill="#455A64"/>
<path opacity="0.3" d="M47.34 183.83L141.56 129.43C141.971 129.223 142.425 129.115 142.885 129.115C143.345 129.115 143.799 129.223 144.21 129.43L145.78 130.29C146.51 130.715 146.51 131.4 145.78 131.82L51.54 186.21C51.1306 186.419 50.6773 186.529 50.2175 186.529C49.7577 186.529 49.3044 186.419 48.895 186.21L47.34 185.355C46.61 184.935 46.61 184.25 47.34 183.83Z" fill="black"/>
<path opacity="0.3" d="M54.7299 188.225L148.95 133.825C149.315 133.616 149.724 133.495 150.144 133.471C150.564 133.448 150.984 133.523 151.37 133.69L175.895 147.85C176.5 148.2 176.395 148.825 175.665 149.25L81.5549 203.575C81.1884 203.783 80.7789 203.903 80.3582 203.926C79.9376 203.95 79.5172 203.876 79.1299 203.71L54.4999 189.615C53.8949 189.27 53.9999 188.645 54.7299 188.225Z" fill="#263238"/>
<path d="M136.375 156.675L139.325 154.97C139.45 154.895 139.46 154.785 139.35 154.72L136.525 153.09C136.458 153.059 136.386 153.043 136.312 153.043C136.239 153.043 136.166 153.059 136.1 153.09L133.15 154.795C133.02 154.87 133.01 154.98 133.125 155.045L135.945 156.67C136.012 156.703 136.085 156.72 136.159 156.721C136.234 156.722 136.307 156.706 136.375 156.675ZM132.065 150.78L129.115 152.48C128.99 152.555 128.98 152.665 129.09 152.73L131.915 154.36C131.981 154.391 132.054 154.407 132.127 154.407C132.201 154.407 132.273 154.391 132.34 154.36L135.29 152.655C135.415 152.585 135.43 152.475 135.315 152.41L132.5 150.765C132.432 150.732 132.356 150.717 132.281 150.719C132.205 150.722 132.131 150.743 132.065 150.78ZM122.535 156.28L117.535 159.165C117.405 159.235 117.395 159.35 117.505 159.41L120.33 161.04C120.396 161.074 120.47 161.092 120.545 161.092C120.62 161.092 120.693 161.074 120.76 161.04L125.76 158.16C125.885 158.085 125.895 157.975 125.76 157.91L122.94 156.28C122.876 156.252 122.807 156.237 122.737 156.237C122.668 156.237 122.599 156.252 122.535 156.28ZM127.755 153.28L124.805 154.98C124.68 155.055 124.67 155.165 124.78 155.23L127.6 156.86C127.667 156.892 127.741 156.909 127.815 156.909C127.889 156.909 127.963 156.892 128.03 156.86L130.98 155.155C131.105 155.085 131.115 154.975 131.005 154.91L128.185 153.28C128.119 153.244 128.046 153.225 127.971 153.223C127.896 153.221 127.822 153.237 127.755 153.27V153.28ZM116.18 159.95L113.23 161.655C113.105 161.725 113.095 161.835 113.205 161.9L116.03 163.53C116.096 163.564 116.168 163.582 116.242 163.582C116.316 163.582 116.389 163.564 116.455 163.53L119.405 161.83C119.53 161.755 119.545 161.645 119.43 161.58L116.61 159.95C116.543 159.918 116.469 159.901 116.395 159.901C116.321 159.901 116.247 159.918 116.18 159.95ZM111.87 162.45L108.92 164.155C108.795 164.225 108.785 164.335 108.895 164.4L111.715 166.03C111.781 166.064 111.855 166.082 111.93 166.082C112.005 166.082 112.078 166.064 112.145 166.03L115.095 164.325C115.22 164.255 115.23 164.145 115.12 164.08L112.3 162.45C112.234 162.414 112.161 162.395 112.086 162.393C112.011 162.391 111.937 162.407 111.87 162.44V162.45ZM122.93 169.1L125.88 167.395C126.005 167.325 126.02 167.21 125.905 167.15L123.085 165.5C123.018 165.466 122.945 165.448 122.87 165.448C122.795 165.448 122.721 165.466 122.655 165.5L119.705 167.2C119.58 167.275 119.57 167.385 119.705 167.45L122.53 169.08C122.592 169.109 122.66 169.125 122.729 169.127C122.798 169.128 122.866 169.116 122.93 169.09V169.1ZM118.62 171.6L121.57 169.895C121.695 169.82 121.705 169.71 121.595 169.645L118.775 168C118.708 167.968 118.634 167.951 118.56 167.951C118.486 167.951 118.412 167.968 118.345 168L115.395 169.705C115.27 169.78 115.26 169.89 115.395 169.955L118.215 171.585C118.279 171.612 118.348 171.626 118.418 171.625C118.488 171.625 118.557 171.609 118.62 171.58V171.6ZM114.31 174.1L117.26 172.395C117.385 172.32 117.395 172.21 117.26 172.145L114.46 170.5C114.393 170.469 114.321 170.453 114.247 170.453C114.174 170.453 114.101 170.469 114.035 170.5L111.085 172.205C110.955 172.28 110.945 172.39 111.085 172.45L113.905 174.08C113.969 174.107 114.039 174.12 114.108 174.118C114.178 174.116 114.247 174.1 114.31 174.07V174.1ZM109.995 176.6L112.945 174.9C113.07 174.825 113.085 174.715 112.97 174.65L110.15 173C110.083 172.968 110.009 172.951 109.935 172.951C109.861 172.951 109.787 172.968 109.72 173L106.77 174.705C106.645 174.775 106.635 174.89 106.77 174.95L109.595 176.58C109.66 176.607 109.73 176.619 109.8 176.615C109.871 176.61 109.939 176.59 110 176.555L109.995 176.6ZM132.06 159.205L135.01 157.505C135.135 157.43 135.15 157.32 135.035 157.255L132.215 155.625C132.148 155.593 132.074 155.576 132 155.576C131.926 155.576 131.852 155.593 131.785 155.625L128.835 157.33C128.71 157.4 128.7 157.515 128.81 157.575L131.635 159.205C131.704 159.232 131.779 159.243 131.853 159.235C131.927 159.227 131.998 159.201 132.06 159.16V159.205ZM127.245 166.645L133.825 162.845C133.95 162.77 133.96 162.66 133.85 162.595L127 158.595C126.933 158.563 126.859 158.546 126.785 158.546C126.711 158.546 126.637 158.563 126.57 158.595L123.17 160.56C123.045 160.635 123.03 160.745 123.145 160.81L126.77 162.905C126.885 162.965 126.87 163.08 126.745 163.15L124 164.735C123.875 164.81 123.86 164.92 124 164.985L126.82 166.615C126.888 166.644 126.961 166.658 127.034 166.655C127.108 166.652 127.18 166.634 127.245 166.6V166.645ZM107.56 164.975L104.61 166.675C104.48 166.75 104.47 166.86 104.58 166.925L107.405 168.555C107.472 168.587 107.546 168.604 107.62 168.604C107.694 168.604 107.768 168.587 107.835 168.555L110.785 166.85C110.91 166.78 110.92 166.67 110.81 166.605L108 164.915C107.931 164.881 107.855 164.864 107.778 164.866C107.701 164.869 107.626 164.891 107.56 164.93V164.975ZM103.245 167.475L100.295 169.175C100.17 169.25 100.16 169.36 100.27 169.425L103.095 171.055C103.161 171.086 103.234 171.102 103.307 171.102C103.381 171.102 103.453 171.086 103.52 171.055L106.47 169.35C106.595 169.28 106.61 169.165 106.495 169.105L103.675 167.475C103.613 167.432 103.541 167.405 103.467 167.395C103.392 167.385 103.316 167.394 103.245 167.42V167.475ZM79.3849 194C79.4514 194.034 79.5251 194.052 79.5999 194.052C79.6747 194.052 79.7484 194.034 79.8149 194L82.7649 192.3C82.8899 192.225 82.8999 192.115 82.7899 192.05L79.9699 190.42C79.9028 190.388 79.8293 190.371 79.7549 190.371C79.6805 190.371 79.6071 190.388 79.5399 190.42L76.5899 192.125C76.4649 192.195 76.4549 192.31 76.5649 192.37L79.3849 194ZM68.7549 187.34L65.8049 189.04C65.6749 189.115 65.6649 189.225 65.7799 189.29L68.5999 190.92C68.6671 190.952 68.7405 190.969 68.8149 190.969C68.8893 190.969 68.9628 190.952 69.0299 190.92L71.9799 189.215C72.1049 189.145 72.1149 189.03 71.9799 188.97L69.1549 187.34C69.0929 187.309 69.0248 187.293 68.9555 187.292C68.8862 187.291 68.8177 187.306 68.7549 187.335V187.34ZM74.2199 192.34C74.2871 192.372 74.3605 192.389 74.4349 192.389C74.5093 192.389 74.5828 192.372 74.6499 192.34L77.5999 190.635C77.7249 190.565 77.7349 190.455 77.6249 190.39L74.7999 188.76C74.7343 188.726 74.6614 188.708 74.5874 188.708C74.5134 188.708 74.4405 188.726 74.3749 188.76L71.4249 190.46C71.2999 190.535 71.2849 190.645 71.4249 190.71L74.2199 192.34ZM86.1149 195L89.0649 193.295C89.1899 193.225 89.2049 193.115 89.0899 193.05L86.2699 191.42C86.2034 191.386 86.1297 191.368 86.0549 191.368C85.9801 191.368 85.9064 191.386 85.8399 191.42L82.8899 193.12C82.7649 193.195 82.7549 193.305 82.8649 193.37L85.6899 195C85.7564 195.031 85.829 195.047 85.9024 195.047C85.9759 195.047 86.0484 195.031 86.1149 195ZM81.3749 197.5C81.4421 197.532 81.5155 197.549 81.5899 197.549C81.6643 197.549 81.7378 197.532 81.8049 197.5L84.7549 195.795C84.8799 195.725 84.8899 195.615 84.7799 195.55L81.9599 193.92C81.8934 193.886 81.8197 193.868 81.7449 193.868C81.6701 193.868 81.5964 193.886 81.5299 193.92L78.5799 195.62C78.4549 195.695 78.4449 195.805 78.5799 195.87L81.3749 197.5ZM73.0649 184.84L70.1149 186.54C69.9899 186.615 69.9799 186.725 70.1149 186.79L72.9349 188.42C73.0021 188.452 73.0755 188.469 73.1499 188.469C73.2243 188.469 73.2978 188.452 73.3649 188.42L76.3149 186.715C76.4399 186.645 76.4499 186.535 76.3149 186.47L73.4999 184.83C73.4316 184.797 73.3563 184.782 73.2806 184.784C73.2048 184.787 73.1309 184.808 73.0649 184.845V184.84ZM94.6249 172.39L91.6749 174.095C91.5449 174.17 91.5349 174.28 91.6449 174.345L94.4699 175.97C94.5371 176.002 94.6105 176.019 94.6849 176.019C94.7593 176.019 94.8328 176.002 94.8999 175.97L97.8499 174.265C97.9749 174.19 97.9849 174.08 97.8749 174.015L95.0499 172.39C94.9837 172.357 94.9107 172.341 94.8368 172.342C94.763 172.343 94.6904 172.361 94.6249 172.395V172.39ZM77.3749 182.35L74.4249 184.055C74.2999 184.125 74.2899 184.235 74.4249 184.3L77.2499 185.93C77.3164 185.961 77.389 185.977 77.4624 185.977C77.5359 185.977 77.6084 185.961 77.6749 185.93L80.6249 184.225C80.7499 184.155 80.7649 184.045 80.6499 183.98L77.8299 182.35C77.7599 182.312 77.6814 182.293 77.6018 182.294C77.5222 182.295 77.4441 182.316 77.3749 182.355V182.35ZM98.9349 169.905L95.9849 171.605C95.8599 171.68 95.8499 171.79 95.9599 171.855L98.7799 173.485C98.8471 173.517 98.9205 173.534 98.9949 173.534C99.0693 173.534 99.1428 173.517 99.2099 173.485L102.16 171.78C102.285 171.71 102.295 171.595 102.185 171.535L99.3649 169.905C99.298 169.872 99.2241 169.855 99.1493 169.855C99.0745 169.856 99.001 169.875 98.9349 169.91V169.905ZM90.3099 174.88L87.3599 176.585C87.2349 176.655 87.2249 176.77 87.3349 176.83L90.1599 178.46C90.2256 178.494 90.2984 178.512 90.3724 178.512C90.4464 178.512 90.5193 178.494 90.5849 178.46L93.5349 176.76C93.6599 176.685 93.6749 176.575 93.5599 176.51L90.7399 174.88C90.6724 174.849 90.5988 174.833 90.5244 174.834C90.45 174.835 90.3767 174.852 90.3099 174.885V174.88ZM85.9999 177.38L83.0499 179.085C82.9249 179.155 82.9149 179.265 83.0499 179.33L85.8699 180.96C85.9364 180.994 86.0101 181.012 86.0849 181.012C86.1597 181.012 86.2334 180.994 86.2999 180.96L89.2499 179.26C89.3749 179.185 89.3849 179.075 89.2749 179.01L86.4549 177.38C86.3849 177.343 86.3071 177.324 86.228 177.323C86.1489 177.322 86.0708 177.34 85.9999 177.375V177.38ZM81.6899 179.88L78.7399 181.585C78.6099 181.655 78.5999 181.765 78.7099 181.83L81.5349 183.46C81.6014 183.494 81.6751 183.512 81.7499 183.512C81.8247 183.512 81.8984 183.494 81.9649 183.46L84.9149 181.755C85.0399 181.685 85.0499 181.575 84.9149 181.51L82.0899 179.88C82.0279 179.85 81.9603 179.833 81.8915 179.831C81.8227 179.828 81.754 179.84 81.6899 179.865V179.88ZM101.375 181.55L104.325 179.845C104.45 179.775 104.46 179.665 104.325 179.6L101.5 177.97C101.433 177.939 101.361 177.923 101.287 177.923C101.214 177.923 101.141 177.939 101.075 177.97L98.1249 179.675C97.9949 179.745 97.9849 179.855 98.0999 179.92L100.92 181.55C100.991 181.586 101.07 181.604 101.149 181.601C101.229 181.599 101.307 181.576 101.375 181.535V181.55ZM141.595 145.29L138.645 146.995C138.52 147.065 138.51 147.18 138.62 147.24L141.445 148.87C141.511 148.904 141.585 148.922 141.66 148.922C141.735 148.922 141.808 148.904 141.875 148.87L144.825 147.17C144.95 147.095 144.96 146.985 144.85 146.92L142.025 145.29C141.959 145.256 141.886 145.236 141.812 145.234C141.737 145.231 141.663 145.245 141.595 145.275V145.29ZM136.38 148.29L133.43 149.995C133.3 150.065 133.29 150.175 133.4 150.24L136.225 151.87C136.291 151.904 136.365 151.922 136.44 151.922C136.515 151.922 136.588 151.904 136.655 151.87L139.605 150.165C139.73 150.095 139.74 149.985 139.63 149.92L136.805 148.29C136.738 148.259 136.666 148.243 136.592 148.243C136.519 148.243 136.446 148.259 136.38 148.29ZM145.91 142.79L142.96 144.495C142.835 144.57 142.82 144.68 142.935 144.745L145.755 146.37C145.822 146.402 145.896 146.419 145.97 146.419C146.044 146.419 146.118 146.402 146.185 146.37L149.135 144.665C149.26 144.59 149.27 144.48 149.16 144.415L146.335 142.785C146.268 142.754 146.196 142.738 146.122 142.738C146.049 142.738 145.976 142.754 145.91 142.785V142.79ZM122.075 164.93L125.025 163.23C125.15 163.155 125.165 163.045 125.025 162.98L122.205 161.35C122.138 161.318 122.064 161.301 121.99 161.301C121.916 161.301 121.842 161.318 121.775 161.35L118.825 163.055C118.7 163.125 118.69 163.235 118.825 163.3L121.65 164.93C121.716 164.963 121.789 164.98 121.863 164.98C121.937 164.979 122.01 164.96 122.075 164.925V164.93ZM150.65 140.29C150.583 140.256 150.51 140.238 150.435 140.238C150.36 140.238 150.286 140.256 150.22 140.29L147.27 141.99C147.145 142.065 147.135 142.175 147.245 142.24L150.065 143.87C150.132 143.902 150.206 143.919 150.28 143.919C150.354 143.919 150.428 143.902 150.495 143.87L153.445 142.165C153.57 142.095 153.585 141.98 153.47 141.92L150.65 140.29ZM105.685 179.05L108.635 177.35C108.76 177.275 108.77 177.165 108.635 177.1L105.815 175.47C105.748 175.438 105.674 175.421 105.6 175.421C105.526 175.421 105.452 175.438 105.385 175.47L102.435 177.175C102.31 177.245 102.3 177.355 102.435 177.42L105.255 179.05C105.322 179.083 105.396 179.1 105.471 179.1C105.545 179.099 105.619 179.08 105.685 179.045V179.05ZM158.56 148.55L161.51 146.845C161.635 146.775 161.645 146.66 161.535 146.6L158.715 144.97C158.648 144.936 158.575 144.918 158.5 144.918C158.425 144.918 158.351 144.936 158.285 144.97L155.335 146.67C155.21 146.745 155.195 146.855 155.31 146.92L158.13 148.55C158.201 148.574 158.276 148.583 158.351 148.574C158.425 148.565 158.497 148.54 158.56 148.5V148.55ZM150.215 148.71L153.165 147.005C153.29 146.935 153.305 146.825 153.19 146.76L150.37 145.13C150.303 145.098 150.229 145.081 150.155 145.081C150.081 145.081 150.007 145.098 149.94 145.13L146.99 146.835C146.865 146.905 146.855 147.015 146.965 147.08L149.79 148.71C149.858 148.74 149.932 148.752 150.006 148.747C150.08 148.742 150.152 148.719 150.215 148.68V148.71ZM154.68 142.64C154.613 142.608 154.539 142.591 154.465 142.591C154.391 142.591 154.317 142.608 154.25 142.64L151.3 144.345C151.175 144.415 151.165 144.525 151.275 144.59L154.1 146.22C154.166 146.254 154.24 146.272 154.315 146.272C154.39 146.272 154.463 146.254 154.53 146.22L157.5 144.5C157.625 144.425 157.635 144.315 157.525 144.25L154.68 142.64ZM155.59 142.115L162.445 146.075C162.511 146.106 162.584 146.122 162.657 146.122C162.731 146.122 162.803 146.106 162.87 146.075L165.82 144.37C165.945 144.3 165.96 144.19 165.845 144.125L159 140.12C158.933 140.089 158.861 140.073 158.787 140.073C158.714 140.073 158.641 140.089 158.575 140.12L155.625 141.825C155.5 141.91 155.5 142.025 155.59 142.085V142.115ZM145.63 147.615L142.68 149.32C142.555 149.39 142.54 149.5 142.655 149.565L145.475 151.195C145.542 151.227 145.616 151.244 145.69 151.244C145.764 151.244 145.838 151.227 145.905 151.195L148.855 149.49C148.98 149.42 148.99 149.31 148.88 149.245L146.06 147.615C145.994 147.579 145.921 147.56 145.846 147.558C145.771 147.556 145.697 147.572 145.63 147.605V147.615ZM113.18 166.35L110.23 168.055C110.105 168.125 110.09 168.235 110.205 168.3L113.025 169.93C113.091 169.964 113.165 169.982 113.24 169.982C113.315 169.982 113.388 169.964 113.455 169.93L116.405 168.225C116.53 168.155 116.54 168.045 116.43 167.98L113.605 166.35C113.54 166.314 113.468 166.295 113.394 166.293C113.32 166.291 113.246 166.307 113.18 166.34V166.35ZM153.82 151.035C153.887 151.067 153.961 151.084 154.035 151.084C154.109 151.084 154.183 151.067 154.25 151.035L157.2 149.33C157.325 149.26 157.335 149.145 157.225 149.085L154.4 147.455C154.334 147.421 154.261 147.403 154.187 147.403C154.113 147.403 154.041 147.421 153.975 147.455L151.025 149.155C150.895 149.23 150.885 149.34 150.995 149.405L153.82 151.035ZM117.5 163.85L114.55 165.555C114.425 165.625 114.415 165.735 114.525 165.8L117.345 167.43C117.411 167.464 117.485 167.482 117.56 167.482C117.635 167.482 117.708 167.464 117.775 167.43L120.725 165.73C120.85 165.655 120.86 165.545 120.725 165.48L117.905 163.85C117.841 163.822 117.772 163.807 117.702 163.807C117.633 163.807 117.564 163.822 117.5 163.85ZM83.6999 191.5C83.7658 191.533 83.8386 191.551 83.9124 191.551C83.9863 191.551 84.0591 191.533 84.1249 191.5L87.0749 189.795C87.1999 189.72 87.2149 189.61 87.0749 189.545L84.2549 187.92C84.1878 187.888 84.1143 187.871 84.0399 187.871C83.9655 187.871 83.8921 187.888 83.8249 187.92L80.8749 189.625C80.7499 189.7 80.7399 189.81 80.8499 189.875L83.6999 191.5ZM78.6999 186.25L75.7499 187.955C75.6249 188.025 75.6149 188.135 75.7249 188.2L78.5449 189.83C78.6121 189.862 78.6855 189.879 78.7599 189.879C78.8343 189.879 78.9078 189.862 78.9749 189.83L81.9249 188.125C82.0499 188.055 82.0599 187.945 81.9499 187.88L79.1299 186.25C79.0611 186.214 78.9844 186.196 78.9068 186.197C78.8291 186.197 78.7529 186.217 78.6849 186.255L78.6999 186.25ZM88.4549 189L91.4049 187.295C91.5299 187.225 91.5399 187.11 91.4299 187.05L88.6049 185.42C88.5393 185.386 88.4664 185.368 88.3924 185.368C88.3184 185.368 88.2455 185.386 88.1799 185.42L85.2299 187.12C85.1049 187.195 85.0899 187.305 85.2049 187.37L87.9999 189C88.0684 189.034 88.1437 189.051 88.2199 189.051C88.2962 189.051 88.3714 189.034 88.4399 189H88.4549ZM92.7649 186.5L95.7149 184.795C95.8399 184.725 95.8499 184.615 95.7149 184.55L92.8949 182.92C92.8284 182.886 92.7547 182.868 92.6799 182.868C92.6051 182.868 92.5314 182.886 92.4649 182.92L89.5149 184.62C89.3899 184.695 89.3799 184.805 89.4899 184.87L92.3099 186.5C92.3784 186.534 92.4537 186.551 92.5299 186.551C92.6062 186.551 92.6814 186.534 92.7499 186.5H92.7649ZM97.0749 184L100.025 182.295C100.15 182.225 100.165 182.115 100.025 182.05L97.2049 180.42C97.1384 180.386 97.0647 180.368 96.9899 180.368C96.9151 180.368 96.8414 180.386 96.7749 180.42L93.8249 182.12C93.6999 182.195 93.6899 182.305 93.8249 182.37L96.6499 184C96.7126 184.033 96.7816 184.052 96.8522 184.057C96.9229 184.061 96.9937 184.05 97.0599 184.025L97.0749 184ZM82.9999 183.765L80.0499 185.47C79.9249 185.54 79.9149 185.65 80.0249 185.715L82.8499 187.345C82.9155 187.379 82.9884 187.397 83.0624 187.397C83.1364 187.397 83.2093 187.379 83.2749 187.345L86.2249 185.64C86.3499 185.57 86.3649 185.46 86.2499 185.395L83.4299 183.765C83.3628 183.733 83.2893 183.716 83.2149 183.716C83.1405 183.716 83.0671 183.733 82.9999 183.765ZM87.3149 181.265L84.3649 182.97C84.2399 183.04 84.2249 183.15 84.3399 183.215L87.1599 184.845C87.2264 184.879 87.3001 184.897 87.3749 184.897C87.4497 184.897 87.5234 184.879 87.5899 184.845L90.5399 183.145C90.6649 183.07 90.6749 182.96 90.5649 182.895L87.7399 181.265C87.672 181.235 87.5982 181.22 87.5238 181.221C87.4494 181.223 87.3763 181.241 87.3099 181.275L87.3149 181.265ZM104.56 171.31L101.61 173.01C101.485 173.085 101.475 173.195 101.585 173.26L104.405 174.89C104.472 174.922 104.546 174.939 104.62 174.939C104.694 174.939 104.768 174.922 104.835 174.89L107.785 173.185C107.91 173.115 107.92 173 107.81 172.94L105 171.305C104.93 171.271 104.853 171.254 104.776 171.256C104.698 171.259 104.622 171.281 104.555 171.32L104.56 171.31ZM100.25 173.81L97.2999 175.51C97.1749 175.585 97.1599 175.695 97.2749 175.76L100.095 177.39C100.162 177.422 100.236 177.439 100.31 177.439C100.384 177.439 100.458 177.422 100.525 177.39L103.475 175.685C103.6 175.615 103.61 175.5 103.5 175.44L100.675 173.81C100.609 173.775 100.535 173.757 100.46 173.757C100.385 173.757 100.311 173.775 100.245 173.81H100.25ZM108.87 168.81L105.92 170.51C105.795 170.585 105.785 170.695 105.895 170.76L108.72 172.39C108.786 172.421 108.859 172.437 108.932 172.437C109.006 172.437 109.078 172.421 109.145 172.39L112.095 170.685C112.22 170.615 112.235 170.505 112.095 170.44L109.275 168.81C109.21 168.782 109.139 168.769 109.068 168.773C108.997 168.776 108.927 168.796 108.865 168.83L108.87 168.81ZM91.6249 178.765L88.6749 180.47C88.5499 180.54 88.5399 180.655 88.6499 180.715L91.4699 182.345C91.5364 182.379 91.6101 182.397 91.6849 182.397C91.7597 182.397 91.8334 182.379 91.8999 182.345L94.8499 180.645C94.9749 180.57 94.9849 180.46 94.8749 180.395L92.0549 178.765C91.9856 178.735 91.9105 178.722 91.8351 178.725C91.7598 178.729 91.6862 178.749 91.6199 178.785L91.6249 178.765ZM95.9349 176.265L92.9999 178C92.8749 178.075 92.8649 178.185 92.9749 178.25L95.7999 179.875C95.8658 179.908 95.9386 179.926 96.0124 179.926C96.0863 179.926 96.1591 179.908 96.2249 179.875L99.1749 178.17C99.2999 178.095 99.3149 177.985 99.1999 177.92L96.3799 176.295C96.3101 176.26 96.2331 176.242 96.1549 176.242C96.0768 176.242 95.9997 176.26 95.9299 176.295L95.9349 176.265ZM90.4349 192.48L93.3849 190.775C93.5099 190.705 93.5199 190.595 93.4099 190.53L90.5849 188.9C90.5193 188.866 90.4464 188.848 90.3724 188.848C90.2984 188.848 90.2256 188.866 90.1599 188.9L87.2099 190.605C87.0799 190.675 87.0699 190.785 87.1799 190.85L90.0049 192.48C90.0692 192.517 90.1412 192.537 90.215 192.541C90.2889 192.544 90.3625 192.53 90.4299 192.5L90.4349 192.48ZM67.6949 191.405L64.8749 189.78C64.8078 189.748 64.7343 189.731 64.6599 189.731C64.5855 189.731 64.5121 189.748 64.4449 189.78L61.4949 191.485C61.3699 191.56 61.3599 191.67 61.4949 191.735L64.3199 193.365C64.3864 193.396 64.459 193.412 64.5324 193.412C64.6059 193.412 64.6784 193.396 64.7449 193.365L67.6949 191.66C67.7899 191.61 67.8049 191.5 67.6899 191.435L67.6949 191.405ZM73.3149 192.82L70.4999 191.22C70.4334 191.186 70.3597 191.168 70.2849 191.168C70.2101 191.168 70.1364 191.186 70.0699 191.22L65.5349 193.84C65.4099 193.91 65.3949 194.02 65.5099 194.085L68.3299 195.715C68.3964 195.749 68.4701 195.767 68.5449 195.767C68.6197 195.767 68.6934 195.749 68.7599 195.715L73.2949 193.095C73.4099 193.025 73.4249 192.91 73.3099 192.85L73.3149 192.82ZM63.4999 188.22L60.6749 186.59C60.6093 186.556 60.5364 186.538 60.4624 186.538C60.3884 186.538 60.3155 186.556 60.2499 186.59L56.6199 188.685C56.4949 188.76 56.4799 188.87 56.5899 188.935L59.4149 190.56C59.4821 190.592 59.5555 190.609 59.6299 190.609C59.7043 190.609 59.7778 190.592 59.8449 190.56L63.4749 188.46C63.5799 188.395 63.5899 188.285 63.4999 188.22ZM66.2849 186.61C66.3505 186.644 66.4234 186.662 66.4974 186.662C66.5714 186.662 66.6443 186.644 66.7099 186.61L69.6599 184.91C69.7849 184.835 69.7999 184.725 69.6849 184.66L66.8449 183C66.7778 182.968 66.7043 182.951 66.6299 182.951C66.5555 182.951 66.4821 182.968 66.4149 183L63.4649 184.705C63.3399 184.775 63.3299 184.89 63.4399 184.95L66.2849 186.61ZM78.4999 194.5L75.6749 192.87C75.6084 192.839 75.5359 192.823 75.4624 192.823C75.389 192.823 75.3164 192.839 75.2499 192.87L69.5749 196.145C69.4499 196.22 69.4399 196.33 69.5499 196.395L72.3699 198.025C72.4371 198.057 72.5105 198.074 72.5849 198.074C72.6593 198.074 72.7328 198.057 72.7999 198.025L78.4749 194.75C78.5799 194.695 78.5899 194.585 78.4999 194.5ZM80.4999 198L77.6749 196.37C77.6093 196.336 77.5364 196.318 77.4624 196.318C77.3884 196.318 77.3155 196.336 77.2499 196.37L73.5849 198.5C73.4599 198.57 73.4499 198.68 73.5849 198.745L76.4099 200.375C76.4755 200.409 76.5484 200.427 76.6224 200.427C76.6964 200.427 76.7693 200.409 76.8349 200.375L80.4699 198.28C80.5699 198.205 80.5799 198.09 80.4699 198.03L80.4999 198ZM98.3499 168.075C98.4171 168.107 98.4905 168.124 98.5649 168.124C98.6393 168.124 98.7128 168.107 98.7799 168.075L101.73 166.37C101.855 166.3 101.865 166.19 101.73 166.125L98.8999 164.5C98.8343 164.466 98.7614 164.448 98.6874 164.448C98.6134 164.448 98.5405 164.466 98.4749 164.5L95.5249 166.2C95.3999 166.275 95.3849 166.385 95.4999 166.45L98.3499 168.075ZM89.7249 173.075C89.7921 173.107 89.8655 173.124 89.9399 173.124C90.0143 173.124 90.0878 173.107 90.1549 173.075L93.1049 171.37C93.2299 171.295 93.2449 171.185 93.1049 171.12L90.2799 169.5C90.2128 169.468 90.1393 169.451 90.0649 169.451C89.9905 169.451 89.9171 169.468 89.8499 169.5L86.8999 171.205C86.7749 171.28 86.7649 171.39 86.8749 171.455L89.7249 173.075ZM70.6049 184.115C70.6721 184.147 70.7455 184.164 70.8199 184.164C70.8943 184.164 70.9678 184.147 71.0349 184.115L73.9849 182.41C74.1099 182.335 74.1199 182.225 74.0099 182.16L71.1849 180.535C71.1193 180.501 71.0464 180.483 70.9724 180.483C70.8984 180.483 70.8255 180.501 70.7599 180.535L67.8099 182.235C67.6849 182.31 67.6699 182.42 67.7799 182.485L70.6049 184.115ZM93.9999 170.595C94.0671 170.627 94.1405 170.644 94.2149 170.644C94.2893 170.644 94.3628 170.627 94.4299 170.595L97.3799 168.89C97.5049 168.82 97.5149 168.705 97.4049 168.645L94.5899 167C94.5234 166.966 94.4497 166.948 94.3749 166.948C94.3001 166.948 94.2264 166.966 94.1599 167L91.2099 168.7C91.0849 168.775 91.0749 168.885 91.2099 168.95L93.9999 170.595ZM85.3749 175.57C85.4414 175.604 85.5151 175.622 85.5899 175.622C85.6647 175.622 85.7384 175.604 85.8049 175.57L88.7549 173.87C88.8799 173.795 88.8899 173.685 88.7799 173.62L85.9649 172C85.8984 171.969 85.8259 171.953 85.7524 171.953C85.679 171.953 85.6064 171.969 85.5399 172L82.5899 173.705C82.4649 173.775 82.4499 173.89 82.5649 173.95L85.3749 175.57ZM82.5749 198.2C82.5078 198.168 82.4343 198.151 82.3599 198.151C82.2855 198.151 82.2121 198.168 82.1449 198.2L77.6099 200.82C77.4849 200.895 77.4699 201.005 77.5849 201.07L80.4049 202.7C80.4721 202.732 80.5455 202.749 80.6199 202.749C80.6943 202.749 80.7678 202.732 80.8349 202.7L85.3749 200.08C85.4999 200.005 85.5099 199.895 85.3749 199.83L82.5749 198.2ZM79.1899 179.145C79.2564 179.176 79.329 179.192 79.4024 179.192C79.4759 179.192 79.5484 179.176 79.6149 179.145L82.5649 177.44C82.6899 177.37 82.7049 177.26 82.5649 177.195L79.7449 175.565C79.6784 175.531 79.6047 175.513 79.5299 175.513C79.4551 175.513 79.3814 175.531 79.3149 175.565L76.3649 177.265C76.2399 177.34 76.2299 177.45 76.3399 177.515L79.1899 179.145ZM74.8749 181.645C74.9421 181.677 75.0155 181.694 75.0899 181.694C75.1643 181.694 75.2378 181.677 75.3049 181.645L78.2549 179.94C78.3799 179.87 78.3899 179.755 78.2799 179.695L75.4599 178.065C75.3934 178.031 75.3197 178.013 75.2449 178.013C75.1701 178.013 75.0964 178.031 75.0299 178.065L72.0799 179.765C71.9549 179.84 71.9449 179.95 72.0549 180.015L74.8749 181.645ZM162.455 152.095C162.388 152.061 162.315 152.043 162.24 152.043C162.165 152.043 162.091 152.061 162.025 152.095L154.765 156.285C154.64 156.36 154.63 156.47 154.74 156.535L157.56 158.165C157.627 158.197 157.701 158.214 157.775 158.214C157.849 158.214 157.923 158.197 157.99 158.165L165.25 153.97C165.375 153.9 165.39 153.79 165.275 153.725L162.455 152.095ZM152.925 157.595C152.858 157.563 152.784 157.546 152.71 157.546C152.636 157.546 152.562 157.563 152.495 157.595L149.545 159.3C149.42 159.37 149.41 159.485 149.52 159.545L152.34 161.175C152.406 161.209 152.48 161.227 152.555 161.227C152.63 161.227 152.703 161.209 152.77 161.175L155.72 159.475C155.845 159.4 155.855 159.29 155.745 159.225L152.925 157.595ZM94.7399 190L97.6899 188.3C97.8149 188.225 97.8249 188.115 97.7149 188.05L94.8949 186.42C94.8278 186.388 94.7543 186.371 94.6799 186.371C94.6055 186.371 94.5321 186.388 94.4649 186.42L91.5149 188.125C91.3899 188.195 91.3799 188.305 91.4899 188.37L94.3099 190C94.3764 190.034 94.4501 190.052 94.5249 190.052C94.5997 190.052 94.6734 190.034 94.7399 190ZM144.31 162.545C144.243 162.513 144.169 162.496 144.095 162.496C144.021 162.496 143.947 162.513 143.88 162.545L140.93 164.25C140.805 164.32 140.795 164.43 140.905 164.495L143.73 166.125C143.796 166.159 143.868 166.177 143.942 166.177C144.016 166.177 144.089 166.159 144.155 166.125L147.105 164.42C147.235 164.35 147.245 164.24 147.135 164.175L144.31 162.545ZM166.775 149.575C166.709 149.541 166.636 149.523 166.562 149.523C166.488 149.523 166.416 149.541 166.35 149.575L163.4 151.275C163.275 151.35 163.26 151.46 163.375 151.525L166.195 153.155C166.262 153.187 166.336 153.204 166.41 153.204C166.484 153.204 166.558 153.187 166.625 153.155L169.575 151.45C169.7 151.38 169.71 151.27 169.6 151.205L166.775 149.575ZM173.91 148.715L167.055 144.755C166.988 144.724 166.916 144.708 166.842 144.708C166.769 144.708 166.696 144.724 166.63 144.755L163.68 146.46C163.55 146.535 163.54 146.645 163.65 146.705L170.5 150.7C170.566 150.734 170.64 150.752 170.715 150.752C170.79 150.752 170.863 150.734 170.93 150.7L173.88 148.995C174 148.91 174 148.8 173.91 148.735V148.715ZM128.2 171.865C128.133 171.833 128.059 171.816 127.985 171.816C127.911 171.816 127.837 171.833 127.77 171.865L124.14 173.965C124.015 174.035 124 174.145 124.115 174.21L126.935 175.84C127.001 175.874 127.075 175.892 127.15 175.892C127.225 175.892 127.298 175.874 127.365 175.84L130.995 173.745C131.12 173.67 131.13 173.56 131.02 173.495L128.2 171.865ZM139.09 165.58C139.024 165.546 138.951 165.528 138.877 165.528C138.803 165.528 138.731 165.546 138.665 165.58L134.125 168.2C134 168.27 133.99 168.38 134.1 168.445L136.92 170.075C136.986 170.109 137.06 170.127 137.135 170.127C137.21 170.127 137.283 170.109 137.35 170.075L141.89 167.455C142.015 167.385 142.025 167.275 141.915 167.21L139.09 165.58ZM118.215 177.63C118.148 177.598 118.074 177.581 118 177.581C117.926 177.581 117.852 177.598 117.785 177.63L93.5049 191.63C93.3799 191.705 93.3649 191.815 93.5049 191.88L96.3249 193.51C96.3921 193.542 96.4655 193.559 96.5399 193.559C96.6143 193.559 96.6878 193.542 96.7549 193.51L121 179.5C121.125 179.425 121.135 179.315 121 179.25L118.215 177.63ZM92.5699 192.435C92.5028 192.403 92.4293 192.386 92.3549 192.386C92.2805 192.386 92.2071 192.403 92.1399 192.435L88.4999 194.55C88.3749 194.62 88.3649 194.73 88.4749 194.795L91.2999 196.425C91.3656 196.459 91.4384 196.477 91.5124 196.477C91.5864 196.477 91.6593 196.459 91.7249 196.425L95.3599 194.33C95.4849 194.255 95.4949 194.145 95.3599 194.08L92.5699 192.435ZM123.205 174.75C123.139 174.716 123.066 174.698 122.992 174.698C122.918 174.698 122.846 174.716 122.78 174.75L119.145 176.845C119.02 176.92 119.01 177.03 119.145 177.095L121.97 178.72C122.036 178.753 122.109 178.771 122.182 178.771C122.256 178.771 122.329 178.753 122.395 178.72L126.03 176.62C126.155 176.55 126.165 176.44 126.055 176.375L123.205 174.75ZM87.5799 195.32C87.5134 195.286 87.4397 195.268 87.3649 195.268C87.2901 195.268 87.2164 195.286 87.1499 195.32L83.4999 197.43C83.3749 197.505 83.3599 197.615 83.4999 197.68L86.3199 199.305C86.3871 199.337 86.4605 199.354 86.5349 199.354C86.6093 199.354 86.6828 199.337 86.7499 199.305L90.3799 197.205C90.5049 197.135 90.5149 197.025 90.4049 196.96L87.5799 195.32ZM133.19 169C133.123 168.966 133.05 168.948 132.975 168.948C132.9 168.948 132.826 168.966 132.76 169L129.13 171.095C129.005 171.17 128.995 171.28 129.105 171.345L131.93 172.975C131.996 173.006 132.069 173.022 132.142 173.022C132.216 173.022 132.288 173.006 132.355 172.975L135.99 170.875C136.115 170.805 136.125 170.695 135.99 170.63L133.19 169ZM148.62 160.09C148.553 160.059 148.481 160.043 148.407 160.043C148.334 160.043 148.261 160.059 148.195 160.09L145.245 161.795C145.12 161.865 145.105 161.975 145.22 162.04L148.04 163.67C148.106 163.704 148.18 163.722 148.255 163.722C148.33 163.722 148.403 163.704 148.47 163.67L151.42 161.97C151.545 161.895 151.555 161.785 151.445 161.72L148.62 160.09ZM158.28 153.35L161.23 151.65C161.355 151.575 161.365 151.465 161.255 151.4L158.435 149.77C158.368 149.738 158.294 149.721 158.22 149.721C158.146 149.721 158.072 149.738 158.005 149.77L155.055 151.475C154.93 151.545 154.92 151.655 155.03 151.72L157.85 153.35C157.918 153.382 157.992 153.397 158.067 153.395C158.142 153.392 158.215 153.372 158.28 153.335V153.35ZM140.685 154.2L143.635 152.495C143.76 152.425 143.77 152.31 143.66 152.245L140.84 150.62C140.773 150.586 140.7 150.568 140.625 150.568C140.55 150.568 140.476 150.586 140.41 150.62L137.46 152.32C137.335 152.395 137.325 152.505 137.435 152.57L140.255 154.2C140.323 154.23 140.397 154.244 140.472 154.241C140.546 154.239 140.619 154.219 140.685 154.185V154.2ZM129.235 170.12L137.855 165.145C137.98 165.07 137.995 164.96 137.88 164.895L135.06 163.265C134.993 163.233 134.919 163.216 134.845 163.216C134.771 163.216 134.697 163.233 134.63 163.265L126.005 168.265C125.88 168.335 125.87 168.445 126.005 168.51L128.83 170.14C128.896 170.165 128.966 170.175 129.036 170.169C129.107 170.163 129.174 170.141 129.235 170.105V170.12ZM153.54 155.855C153.606 155.889 153.68 155.907 153.755 155.907C153.83 155.907 153.903 155.889 153.97 155.855L156.92 154.15C157.045 154.08 157.055 153.97 156.945 153.905L154.12 152.275C154.053 152.244 153.981 152.228 153.907 152.228C153.834 152.228 153.761 152.244 153.695 152.275L150.745 153.98C150.615 154.05 150.605 154.16 150.715 154.225L153.54 155.855ZM149.935 153.5L152.885 151.795C153.01 151.72 153.025 151.61 152.91 151.545L150.09 149.92C150.023 149.888 149.949 149.871 149.875 149.871C149.801 149.871 149.727 149.888 149.66 149.92L146.71 151.625C146.585 151.7 146.575 151.81 146.685 151.875L149.5 153.5C149.567 153.535 149.642 153.553 149.717 153.553C149.793 153.553 149.868 153.535 149.935 153.5ZM124.935 172.595L127.885 170.89C128.01 170.82 128.025 170.71 127.885 170.645L125.075 169C125.008 168.968 124.934 168.951 124.86 168.951C124.786 168.951 124.712 168.968 124.645 169L121.695 170.705C121.57 170.775 121.56 170.885 121.695 170.95L124.52 172.58C124.581 172.612 124.649 172.631 124.718 172.633C124.787 172.636 124.856 172.623 124.92 172.595H124.935ZM144 161.345C144.066 161.376 144.139 161.392 144.212 161.392C144.286 161.392 144.358 161.376 144.425 161.345L147.375 159.64C147.505 159.57 147.515 159.455 147.405 159.395L144.58 157.765C144.513 157.731 144.44 157.713 144.365 157.713C144.29 157.713 144.216 157.731 144.15 157.765L141.2 159.465C141.075 159.54 141.065 159.65 141.175 159.715L144 161.345ZM103.355 185.04L106.305 183.34C106.43 183.265 106.44 183.155 106.33 183.09L103.5 181.46C103.433 181.429 103.361 181.413 103.287 181.413C103.214 181.413 103.141 181.429 103.075 181.46L100.125 183.165C99.9949 183.24 99.9849 183.35 100.095 183.41L102.92 185.04C102.988 185.077 103.065 185.096 103.142 185.096C103.22 185.096 103.297 185.077 103.365 185.04H103.355ZM107.665 182.54L110.615 180.835C110.74 180.76 110.75 180.65 110.64 180.585L107.83 179C107.763 178.966 107.69 178.948 107.615 178.948C107.54 178.948 107.466 178.966 107.4 179L104.45 180.7C104.325 180.775 104.315 180.885 104.425 180.95L107.245 182.58C107.314 182.608 107.388 182.621 107.463 182.616C107.537 182.612 107.61 182.591 107.675 182.555L107.665 182.54ZM99.0399 187.515L101.99 185.815C102.115 185.74 102.13 185.63 102.015 185.565L99.1949 183.935C99.1278 183.903 99.0543 183.886 98.9799 183.886C98.9055 183.886 98.8321 183.903 98.7649 183.935L95.8149 185.64C95.6899 185.71 95.6799 185.825 95.7899 185.885L98.6149 187.515C98.6806 187.553 98.7546 187.575 98.8305 187.577C98.9064 187.58 98.9818 187.564 99.0499 187.53L99.0399 187.515ZM116.29 177.56L119.24 175.855C119.365 175.785 119.375 175.675 119.265 175.61L116.45 174C116.383 173.966 116.31 173.948 116.235 173.948C116.16 173.948 116.086 173.966 116.02 174L113.07 175.7C112.945 175.775 112.935 175.885 113.07 175.95L115.895 177.58C115.959 177.607 116.028 177.621 116.098 177.62C116.168 177.619 116.237 177.604 116.3 177.575L116.29 177.56ZM111.975 180.06L114.925 178.355C115.05 178.285 115.065 178.17 114.925 178.11L112.14 176.5C112.073 176.466 112 176.448 111.925 176.448C111.85 176.448 111.776 176.466 111.71 176.5L108.76 178.2C108.635 178.275 108.625 178.385 108.735 178.45L111.56 180.08C111.63 180.111 111.705 180.126 111.782 180.124C111.858 180.121 111.933 180.101 112 180.065L111.975 180.06ZM120.6 175.06L123.55 173.355C123.675 173.285 123.685 173.175 123.55 173.11L120.765 171.5C120.698 171.466 120.625 171.448 120.55 171.448C120.475 171.448 120.401 171.466 120.335 171.5L117.385 173.205C117.26 173.275 117.245 173.385 117.36 173.45L120.18 175.08C120.247 175.113 120.32 175.13 120.394 175.131C120.469 175.132 120.542 175.116 120.61 175.085L120.6 175.06ZM144.13 140.43C144.196 140.464 144.268 140.482 144.342 140.482C144.416 140.482 144.489 140.464 144.555 140.43L147.505 138.725C147.63 138.655 147.645 138.545 147.53 138.48L146.78 138.045C146.713 138.013 146.639 137.996 146.565 137.996C146.491 137.996 146.417 138.013 146.35 138.045L143.4 139.75C143.275 139.82 143.265 139.93 143.375 139.995L144.13 140.43ZM122.7 154C122.766 154.031 122.839 154.047 122.912 154.047C122.986 154.047 123.058 154.031 123.125 154L126.075 152.295C126.2 152.225 126.215 152.11 126.1 152.05L123.28 150.42C123.213 150.386 123.14 150.368 123.065 150.368C122.99 150.368 122.916 150.386 122.85 150.42L119.9 152.12C119.775 152.195 119.765 152.305 119.9 152.37L122.7 154ZM131.32 149C131.387 149.032 131.461 149.049 131.535 149.049C131.609 149.049 131.683 149.032 131.75 149L134.7 147.295C134.825 147.225 134.835 147.115 134.725 147.05L131.905 145.42C131.838 145.386 131.765 145.368 131.69 145.368C131.615 145.368 131.541 145.386 131.475 145.42L128.525 147.125C128.4 147.195 128.39 147.305 128.5 147.37L131.32 149ZM117.435 157C117.501 157.031 117.574 157.047 117.647 157.047C117.721 157.047 117.793 157.031 117.86 157L120.81 155.295C120.935 155.225 120.95 155.11 120.835 155.05L118.015 153.42C117.948 153.386 117.875 153.368 117.8 153.368C117.725 153.368 117.651 153.386 117.585 153.42L114.635 155.12C114.51 155.195 114.5 155.305 114.635 155.37L117.435 157ZM127 151.535C127.067 151.567 127.141 151.584 127.215 151.584C127.289 151.584 127.363 151.567 127.43 151.535L130.38 149.83C130.505 149.76 130.515 149.65 130.405 149.585L127.58 147.955C127.514 147.921 127.441 147.903 127.367 147.903C127.293 147.903 127.221 147.921 127.155 147.955L124.205 149.655C124.075 149.73 124.065 149.84 124.175 149.905L127 151.535ZM108.8 162.035C108.866 162.069 108.94 162.087 109.015 162.087C109.09 162.087 109.163 162.069 109.23 162.035L112.18 160.335C112.305 160.26 112.315 160.15 112.18 160.085L109.355 158.455C109.288 158.424 109.216 158.408 109.142 158.408C109.069 158.408 108.996 158.424 108.93 158.455L105.98 160.16C105.85 160.235 105.84 160.345 105.955 160.405L108.8 162.035ZM113.11 159.535C113.177 159.567 113.251 159.584 113.325 159.584C113.399 159.584 113.473 159.567 113.54 159.535L116.49 157.83C116.615 157.755 116.625 157.645 116.49 157.58L113.67 155.955C113.603 155.923 113.529 155.906 113.455 155.906C113.381 155.906 113.307 155.923 113.24 155.955L110.29 157.66C110.165 157.735 110.155 157.845 110.29 157.91L113.11 159.535ZM135.5 145.435C135.567 145.467 135.641 145.484 135.715 145.484C135.789 145.484 135.863 145.467 135.93 145.435L138.88 143.73C139.005 143.66 139.015 143.55 138.88 143.485L138.13 143.05C138.063 143.016 137.99 142.998 137.915 142.998C137.84 142.998 137.766 143.016 137.7 143.05L134.75 144.755C134.625 144.825 134.61 144.935 134.725 145L135.5 145.435ZM148.435 137.965C148.501 137.999 148.575 138.017 148.65 138.017C148.725 138.017 148.798 137.999 148.865 137.965L151.815 136.265C151.94 136.19 151.95 136.08 151.815 136.015L151.065 135.58C150.998 135.548 150.924 135.531 150.85 135.531C150.776 135.531 150.702 135.548 150.635 135.58L147.685 137.285C147.56 137.355 147.545 137.47 147.66 137.53L148.435 137.965ZM154.365 141.39C154.431 141.421 154.504 141.437 154.577 141.437C154.651 141.437 154.723 141.421 154.79 141.39L157.74 139.685C157.87 139.615 157.88 139.505 157.77 139.44L154.945 137.81C154.878 137.776 154.805 137.758 154.73 137.758C154.655 137.758 154.581 137.776 154.515 137.81L151.565 139.51C151.44 139.585 151.43 139.695 151.54 139.76L154.365 141.39ZM162.575 150.845L165.525 149.145C165.65 149.07 165.665 148.96 165.55 148.895L162.73 147.265C162.663 147.233 162.589 147.216 162.515 147.216C162.441 147.216 162.367 147.233 162.3 147.265L159.35 148.97C159.225 149.04 159.215 149.155 159.325 149.215L162.15 150.845C162.217 150.882 162.293 150.901 162.37 150.901C162.447 150.901 162.522 150.882 162.59 150.845H162.575ZM139.81 142.945C139.877 142.977 139.951 142.994 140.025 142.994C140.099 142.994 140.173 142.977 140.24 142.945L143.19 141.24C143.315 141.17 143.325 141.06 143.19 140.995L142.44 140.56C142.373 140.526 142.3 140.508 142.225 140.508C142.15 140.508 142.076 140.526 142.01 140.56L139.06 142.265C138.935 142.335 138.925 142.445 139.035 142.51L139.81 142.945ZM104.5 164.53C104.566 164.564 104.638 164.582 104.712 164.582C104.786 164.582 104.859 164.564 104.925 164.53L107.875 162.83C108 162.755 108.015 162.645 107.875 162.58L105.055 160.95C104.988 160.918 104.914 160.901 104.84 160.901C104.766 160.901 104.692 160.918 104.625 160.95L101.675 162.655C101.55 162.725 101.54 162.835 101.675 162.9L104.5 164.53Z" fill="#263238"/>
<path opacity="0.4" d="M117.27 186.77L117.875 187.115L133.94 196.39L162.51 179.895L163.105 179.555L146.435 169.935L117.27 186.77Z" fill="black"/>
<path d="M117.875 187.115L133.94 196.39L162.51 179.895L146.435 170.62L117.875 187.115Z" fill="#18A0A0"/>
<path opacity="0.45" d="M117.875 187.115L133.94 196.39L162.51 179.895L146.435 170.62L117.875 187.115Z" fill="black"/>
<path d="M34.88 183.76C35.1368 183.909 35.4104 184.026 35.695 184.11C35.4108 184.029 35.1372 183.915 34.88 183.77C34.7937 183.72 34.7102 183.665 34.63 183.605C34.7103 183.661 34.7938 183.713 34.88 183.76Z" fill="#18A0A0"/>
<path d="M39.5 184C39.5 184 39.5 184 39.545 183.96L39.51 183.99L39.5 184Z" fill="#18A0A0"/>
<path d="M223.8 12.28L160.3 48.945C160 49.1394 159.75 49.402 159.571 49.7114C159.392 50.0207 159.289 50.3681 159.27 50.725V121.825C159.29 122.181 159.394 122.527 159.574 122.835C159.754 123.142 160.005 123.403 160.305 123.595L162.18 124.655C162.501 124.814 162.854 124.897 163.213 124.897C163.571 124.897 163.924 124.814 164.245 124.655L227.745 87.99C228.044 87.7947 228.292 87.5318 228.47 87.2225C228.648 86.9133 228.751 86.5664 228.77 86.21V15.1C228.751 14.7444 228.648 14.3985 228.469 14.0907C228.29 13.7829 228.04 13.5222 227.74 13.33L225.86 12.27C225.539 12.1125 225.186 12.0315 224.829 12.0332C224.471 12.035 224.119 12.1194 223.8 12.28Z" fill="#FAFAFA"/>
<path d="M163.215 124.05V52.95C163.234 52.5932 163.338 52.246 163.517 51.9367C163.696 51.6274 163.945 51.3647 164.245 51.17L227.745 14.5C228.31 14.175 228.77 14.44 228.77 15.095V86.2C228.751 86.5564 228.648 86.9033 228.47 87.2126C228.292 87.5218 228.044 87.7848 227.745 87.98L164.245 124.645C163.675 124.97 163.215 124.705 163.215 124.05Z" fill="#37474F"/>
<path d="M164.245 124.645C163.923 124.8 163.57 124.881 163.213 124.881C162.855 124.881 162.502 124.8 162.18 124.645L160.305 123.58C160.004 123.39 159.753 123.131 159.573 122.824C159.393 122.516 159.289 122.171 159.27 121.815V50.725C159.285 50.3519 159.399 49.9894 159.6 49.675L163.52 51.94C163.333 52.2412 163.228 52.5858 163.215 52.94V124.05C163.215 124.65 163.64 125 164.245 124.645Z" fill="#263238"/>
<path d="M228.76 14.915C228.68 14.415 228.26 14.21 227.76 14.505L164.26 51.17C163.956 51.3597 163.706 51.625 163.535 51.94L159.61 49.675C159.778 49.3751 160.021 49.1237 160.315 48.945L223.815 12.28C224.134 12.1183 224.487 12.0341 224.845 12.0341C225.203 12.0341 225.556 12.1183 225.875 12.28L227.75 13.34C228.02 13.5162 228.25 13.7476 228.424 14.0191C228.598 14.2906 228.713 14.596 228.76 14.915Z" fill="#455A64"/>
<path d="M151.535 93.24C150.89 92.855 147.895 91.15 147.74 91.06C147.619 90.9865 147.516 90.887 147.438 90.7687C147.36 90.6504 147.31 90.5163 147.29 90.3761C147.27 90.2359 147.282 90.0931 147.325 89.958C147.367 89.8229 147.439 89.6989 147.535 89.595L159.36 76.91L163.215 79.125L151.395 91.81C151.302 91.9092 151.231 92.0271 151.187 92.1559C151.143 92.2847 151.127 92.4213 151.141 92.5567C151.154 92.6921 151.196 92.8231 151.264 92.941C151.332 93.0588 151.424 93.1608 151.535 93.24Z" fill="#FAFAFA"/>
<path d="M151.535 93.24C150.89 92.855 147.895 91.15 147.74 91.06C147.619 90.9865 147.516 90.887 147.438 90.7687C147.36 90.6504 147.31 90.5163 147.29 90.3761C147.27 90.2359 147.282 90.0931 147.325 89.958C147.367 89.8229 147.439 89.6989 147.535 89.595L159.36 76.91L163.215 79.125L151.395 91.81C151.302 91.9092 151.231 92.0271 151.187 92.1559C151.143 92.2847 151.127 92.4213 151.141 92.5567C151.154 92.6921 151.196 92.8231 151.264 92.941C151.332 93.0588 151.424 93.1608 151.535 93.24Z" fill="#455A64"/>
<path d="M163.215 79.125L151.395 91.81C151.264 91.95 151.179 92.1263 151.15 92.3156C151.122 92.505 151.151 92.6985 151.234 92.871C151.317 93.0435 151.451 93.1867 151.617 93.282C151.783 93.3773 151.974 93.4202 152.165 93.405L163.215 92.495V79.125Z" fill="#FAFAFA"/>
<path d="M163.215 79.125L151.395 91.81C151.264 91.95 151.179 92.1263 151.15 92.3156C151.122 92.505 151.151 92.6985 151.234 92.871C151.317 93.0435 151.451 93.1867 151.617 93.282C151.783 93.3773 151.974 93.4202 152.165 93.405L163.215 92.495V79.125Z" fill="#37474F"/>
<path d="M199.44 73.375C198.535 72.83 197.27 72.875 195.87 73.705C193.1 75.305 190.87 79.205 190.87 82.395C190.87 83.985 191.425 85.1 192.325 85.63C192.915 85.975 195.165 87.265 195.745 87.63C196.655 88.165 197.91 88.095 199.305 87.29C202.075 85.69 204.305 81.79 204.305 78.6C204.305 77.02 203.75 75.9 202.855 75.375C202.265 75 200 73.715 199.44 73.375Z" fill="#EBEBEB"/>
<path d="M201.09 85.835L191.195 80.12C190.98 80.8595 190.865 81.6248 190.855 82.395C190.855 83.985 191.41 85.1 192.31 85.63C192.9 85.975 195.15 87.265 195.73 87.63C196.64 88.165 197.895 88.095 199.29 87.29C199.953 86.8889 200.559 86.3994 201.09 85.835Z" fill="#E0E0E0"/>
<path d="M199.285 75.68C196.515 77.28 194.285 81.18 194.285 84.37C194.285 87.56 196.535 88.87 199.285 87.265C202.035 85.66 204.285 81.765 204.285 78.575C204.285 75.385 202.055 74.08 199.285 75.68Z" fill="#FAFAFA"/>
<path d="M199.285 77.73C198.342 78.346 197.557 79.1752 196.995 80.1507C196.432 81.1262 196.106 82.2204 196.045 83.345C196.045 85.41 197.5 86.25 199.29 85.215C200.233 84.599 201.017 83.7697 201.58 82.7943C202.143 81.8188 202.468 80.7245 202.53 79.6C202.525 77.535 201.075 76.7 199.285 77.73Z" fill="#37474F"/>
<path d="M221 68.89C221 69.355 221 69.755 220.975 70.225L215.31 73.5L211.9 71.53C211.9 71.15 211.9 70.595 211.9 70.22C211.9 66.35 210.98 63.255 209.4 61.07L214 54.5L217.415 56.47C219.685 59.365 221 63.57 221 68.89Z" fill="#18A0A0"/>
<path d="M221 68.89C221 69.36 221 69.755 220.975 70.225L215.31 73.5C215.31 73.12 215.335 72.57 215.335 72.19C215.335 68.325 214.415 65.225 212.835 63.045L217.41 56.5C219.685 59.365 221 63.575 221 68.89Z" fill="#18A0A0"/>
<path opacity="0.1" d="M212.82 63.04L209.405 61.07L213.995 54.5L217.41 56.475L212.82 63.04Z" fill="black"/>
<path opacity="0.2" d="M215.33 72.185C215.33 72.565 215.33 73.115 215.33 73.495L211.92 71.525C211.92 71.145 211.92 70.59 211.92 70.215C211.92 66.345 211 63.25 209.42 61.065L212.835 63.065C214.415 65.22 215.33 68.32 215.33 72.185Z" fill="black"/>
<path d="M216.39 54.86L211.82 61.4L208.405 59.4L208.215 59.23C206.753 58.8114 205.218 58.7125 203.715 58.94L200.285 57L202 49.695C205.285 49.195 208.23 49.695 210.655 51.09L213.995 53.01C214.145 53.095 214.295 53.185 214.44 53.28L214.735 53.475C214.835 53.54 214.935 53.605 215.03 53.68C215.125 53.755 215.17 53.78 215.235 53.835C215.502 54.0426 215.757 54.2646 216 54.5C216.15 54.62 216.27 54.735 216.39 54.86Z" fill="#18A0A0"/>
<path opacity="0.2" d="M211.82 61.4L208.405 59.4L208.22 59.235C209.58 59.6484 210.817 60.3922 211.82 61.4Z" fill="black"/>
<path opacity="0.2" d="M216.395 54.86L211.82 61.4C209.78 59.4 206.97 58.51 203.7 58.965L205.385 51.67C209.82 51 213.645 52.125 216.395 54.86Z" fill="white"/>
<path opacity="0.1" d="M201.97 49.695L205.385 51.67L203.7 58.965L200.285 56.995L201.97 49.695Z" fill="black"/>
<path opacity="0.5" d="M210.63 51.09L213.97 53.01C211.56 51.64 208.64 51.16 205.385 51.665L202 49.695C205.26 49.185 208.205 49.685 210.63 51.09Z" fill="white"/>
<path d="M203.74 52L202.055 59.285C200.39 59.7369 198.792 60.4095 197.305 61.285C195.598 62.2857 193.998 63.4585 192.53 64.785L189.12 62.785L187.465 57.39C189.423 55.6061 191.563 54.0325 193.85 52.695C195.873 51.4986 198.052 50.5883 200.325 49.99L203.74 52Z" fill="#18A0A0"/>
<path opacity="0.05" d="M187.465 57.435L190.88 59.41L192.53 64.805L189.12 62.835L187.465 57.435Z" fill="black"/>
<path opacity="0.6" d="M203.74 52C201.458 52.592 199.27 53.5008 197.24 54.7C194.956 56.0409 192.816 57.6143 190.855 59.395L187.44 57.425C189.398 55.6412 191.538 54.0675 193.825 52.73C195.848 51.5336 198.027 50.6233 200.3 50.025L203.74 52Z" fill="white"/>
<path opacity="0.4" d="M203.74 52L202.06 59.285C200.394 59.7354 198.796 60.4081 197.31 61.285C195.602 62.2846 194.002 63.4575 192.535 64.785L190.88 59.39C192.838 57.6062 194.978 56.0326 197.265 54.695C199.288 53.5 201.467 52.5929 203.74 52Z" fill="white"/>
<path d="M190.925 66.335C187.817 69.5313 185.231 73.196 183.26 77.195L178.8 75.58L175.385 73.605C178.061 68.1895 181.595 63.2423 185.85 58.955L189.265 60.955L190.925 66.335Z" fill="#18A0A0"/>
<path opacity="0.7" d="M189.265 60.93C185.008 65.2154 181.473 70.163 178.8 75.58L175.385 73.605C178.061 68.1895 181.595 63.2423 185.85 58.955L189.265 60.93Z" fill="white"/>
<path opacity="0.6" d="M190.925 66.335C187.817 69.5332 185.231 73.1995 183.26 77.2L178.8 75.58C181.473 70.163 185.007 65.2154 189.265 60.93L190.925 66.335Z" fill="white"/>
<path d="M182.23 79.41C180.435 83.615 179.365 87.75 179.3 91.84L173.545 95.165L170.13 93.165C170.24 87.555 171.78 81.525 174.34 75.795L178.84 77.415L182.23 79.41Z" fill="#18A0A0"/>
<path opacity="0.6" d="M177.755 77.79L174.34 75.82L178.82 77.44L182.235 79.41L177.755 77.79Z" fill="white"/>
<path opacity="0.9" d="M177.755 77.79C175.19 83.525 173.655 89.55 173.545 95.165L170.13 93.165C170.24 87.555 171.78 81.525 174.34 75.795L177.755 77.79Z" fill="white"/>
<path opacity="0.75" d="M182.235 79.41C180.435 83.61 179.365 87.75 179.295 91.84L173.545 95.16C173.655 89.55 175.19 83.52 177.755 77.785L182.235 79.41Z" fill="white"/>
<path d="M218.315 66.215L217.41 65.705L192.765 84.83L192.84 88.49L193.745 89L218.315 66.215Z" fill="#E0E0E0"/>
<path d="M193.745 89L193.675 85.34L218.315 66.215L193.745 89Z" fill="#EBEBEB"/>
<path d="M192.765 84.83L193.675 85.34L218.315 66.215L217.41 65.705L192.765 84.83Z" fill="white"/>
</svg>
