<svg width="250" height="250" viewBox="0 0 250 250" fill="none" xmlns="http://www.w3.org/2000/svg">
<path d="M206.61 123.675C206.61 124.609 206.333 125.521 205.815 126.297C205.296 127.074 204.559 127.678 203.696 128.036C202.834 128.393 201.885 128.486 200.969 128.304C200.054 128.122 199.213 127.673 198.553 127.013C197.892 126.352 197.443 125.511 197.261 124.596C197.079 123.68 197.172 122.731 197.529 121.869C197.887 121.006 198.492 120.269 199.268 119.75C200.044 119.232 200.957 118.955 201.89 118.955C203.142 118.955 204.342 119.452 205.228 120.337C206.113 121.223 206.61 122.423 206.61 123.675Z" fill="#EBEBEB"/>
<path d="M191.431 127.231C193.395 125.266 193.395 122.081 191.431 120.117C189.467 118.153 186.282 118.153 184.317 120.117C182.353 122.081 182.353 125.266 184.317 127.231C186.282 129.195 189.467 129.195 191.431 127.231Z" fill="#EBEBEB"/>
<path d="M177.105 120.115C180.051 120.115 182.44 117.726 182.44 114.78C182.44 111.834 180.051 109.445 177.105 109.445C174.159 109.445 171.77 111.834 171.77 114.78C171.77 117.726 174.159 120.115 177.105 120.115Z" fill="#EBEBEB"/>
<path d="M180.416 102.098C180.96 99.0679 178.945 96.17 175.914 95.6259C172.884 95.0817 169.986 97.0972 169.442 100.128C168.898 103.158 170.913 106.056 173.944 106.6C176.974 107.145 179.872 105.129 180.416 102.098Z" fill="#EBEBEB"/>
<path d="M181.745 94.895C184.926 94.895 187.505 92.3162 187.505 89.135C187.505 85.9538 184.926 83.375 181.745 83.375C178.564 83.375 175.985 85.9538 175.985 89.135C175.985 92.3162 178.564 94.895 181.745 94.895Z" fill="#EBEBEB"/>
<path d="M197.284 90.2127C200.484 88.8753 201.994 85.197 200.657 81.9968C199.319 78.7967 195.641 77.2866 192.441 78.6239C189.241 79.9613 187.731 83.6396 189.068 86.8398C190.405 90.0399 194.084 91.55 197.284 90.2127Z" fill="#EBEBEB"/>
<path d="M216.744 115.712C217.32 113.26 215.8 110.806 213.348 110.229C210.897 109.653 208.442 111.173 207.866 113.625C207.29 116.076 208.81 118.531 211.261 119.107C213.713 119.684 216.167 118.163 216.744 115.712Z" fill="#EBEBEB"/>
<path d="M216.257 104.884C218.439 104.048 219.53 101.602 218.694 99.4207C217.858 97.2392 215.412 96.1481 213.231 96.9838C211.049 97.8195 209.958 100.265 210.794 102.447C211.63 104.629 214.076 105.72 216.257 104.884Z" fill="#EBEBEB"/>
<path d="M211.539 89.6052C211.88 87.4981 210.449 85.5133 208.342 85.172C206.234 84.8307 204.25 86.2622 203.908 88.3693C203.567 90.4765 204.999 92.4613 207.106 92.8026C209.213 93.1439 211.198 91.7123 211.539 89.6052Z" fill="#EBEBEB"/>
<path fill-rule="evenodd" clip-rule="evenodd" d="M71.1301 66.265C72.2799 67.4951 73.2618 68.8721 74.0501 70.36H78.7101L80.4451 77.86L76.2451 79.885C76.1894 81.5678 75.9103 83.2357 75.4151 84.845L78.7251 88.13L74.6301 94.67L70.2301 93.135C69.003 94.2871 67.6255 95.2677 66.1351 96.05V100.715L58.6351 102.445L56.6351 98.245C54.9519 98.1933 53.2834 97.9141 51.6751 97.415L48.3951 100.725L41.8551 96.635L43.3901 92.235C42.2402 91.0049 41.2583 89.6279 40.4701 88.14H35.8101L34.0751 80.64L38.2751 78.615C38.3312 76.9322 38.6103 75.2644 39.1051 73.655L35.8001 70.37L39.8901 63.83L44.2901 65.365C45.5194 64.2156 46.8965 63.2353 48.3851 62.45V57.785L55.8851 56.055L57.8851 60.255C59.5681 60.3087 61.2363 60.5879 62.8451 61.085L66.1251 57.775L72.6701 61.865L71.1301 66.265ZM61.9301 72.42C60.5423 71.5526 58.9285 71.1162 57.2927 71.1659C55.6569 71.2157 54.0726 71.7493 52.7401 72.6994C51.4076 73.6495 50.3868 74.9734 49.8066 76.5037C49.2265 78.0339 49.1131 79.7018 49.4808 81.2965C49.8486 82.8912 50.6809 84.3411 51.8726 85.4627C53.0643 86.5844 54.5618 87.3275 56.1758 87.5982C57.7898 87.8688 59.4478 87.6548 60.9402 86.9832C62.4326 86.3116 63.6923 85.2125 64.5601 83.825C65.1371 82.9037 65.5267 81.8776 65.7068 80.8056C65.8869 79.7335 65.8539 78.6365 65.6096 77.5772C65.3654 76.5179 64.9146 75.5172 64.2833 74.6323C63.6519 73.7474 62.8523 72.9956 61.9301 72.42Z" fill="#E0E0E0"/>
<path fill-rule="evenodd" clip-rule="evenodd" d="M75.675 34.65C76.3103 35.3328 76.8532 36.096 77.29 36.92H79.87L80.83 41.08L78.5 42.19C78.4706 43.1231 78.3159 44.0481 78.04 44.94L79.87 46.755L77.605 50.375L75.17 49.525C74.4884 50.1618 73.725 50.7049 72.9 51.14V53.725L68.74 54.68L67.62 52.355C66.6885 52.3256 65.7652 52.1709 64.875 51.895L63.055 53.73L59.435 51.465L60.285 49.03C59.6482 48.3484 59.1051 47.585 58.67 46.76H56.09L55.13 42.6L57.47 41.5C57.4998 40.5685 57.6545 39.6453 57.93 38.755L56.1 36.94L58.36 33.315L60.8 34.17C61.4788 33.5321 62.2407 32.9889 63.065 32.555V29.97L67.215 29L68.34 31.33C69.271 31.3602 70.194 31.5132 71.085 31.785L72.905 29.955L76.525 32.22L75.675 34.655V34.65ZM70.58 38.06C69.812 37.5795 68.9187 37.3376 68.0132 37.3649C67.1077 37.3922 66.2306 37.6874 65.4928 38.2132C64.7551 38.739 64.1899 39.4717 63.8686 40.3188C63.5474 41.1659 63.4846 42.0892 63.6881 42.9719C63.8917 43.8547 64.3525 44.6573 65.0122 45.2781C65.6719 45.899 66.5009 46.3103 67.3944 46.4599C68.2879 46.6096 69.2057 46.4909 70.0317 46.1189C70.8578 45.7469 71.5549 45.1383 72.035 44.37C72.6785 43.3402 72.8868 42.097 72.6139 40.9138C72.3411 39.7305 71.6095 38.704 70.58 38.06Z" fill="#E0E0E0"/>
<path d="M39.4651 42.345C39.4651 42.345 39.5401 42.375 39.6751 42.46C39.8675 42.5827 40.0453 42.727 40.2051 42.89C40.7151 43.4053 41.0652 44.057 41.2134 44.7667C41.3615 45.4763 41.3013 46.2137 41.0401 46.89C40.7942 47.5233 40.3833 48.0792 39.8501 48.5C39.2549 48.9679 38.5348 49.2497 37.7801 49.31C36.9678 49.3754 36.156 49.1773 35.4652 48.745C34.7744 48.3126 34.2413 47.6692 33.9451 46.91C33.7978 46.5551 33.7099 46.1784 33.6851 45.795C33.6559 45.4264 33.6829 45.0555 33.7651 44.695C33.9112 44.0295 34.2323 43.415 34.6951 42.915C35.0994 42.4834 35.5995 42.1528 36.1551 41.95C36.9632 41.6603 37.8469 41.6603 38.6551 41.95C38.8724 42.0197 39.0806 42.1154 39.2751 42.235C39.4051 42.32 39.4751 42.365 39.4701 42.375C39.4651 42.385 39.1851 42.21 38.6251 42.035C37.8353 41.797 36.9886 41.8304 36.2201 42.13C35.6646 42.3485 35.1715 42.7005 34.7843 43.1549C34.3971 43.6092 34.1278 44.1519 34.0001 44.735C33.8529 45.4329 33.9174 46.1589 34.1851 46.82C34.4682 47.5299 34.9688 48.132 35.6151 48.54C36.2663 48.9412 37.027 49.1283 37.7901 49.075C38.1506 49.0515 38.5051 48.9705 38.8401 48.835C39.1647 48.7171 39.4685 48.5483 39.7401 48.335C40.2183 47.9661 40.5963 47.483 40.8392 46.93C41.082 46.3769 41.1821 45.7717 41.1301 45.17C41.0639 44.3478 40.7241 43.5715 40.1651 42.965C39.7401 42.53 39.4501 42.365 39.4651 42.345Z" fill="#E0E0E0"/>
<path d="M43.5901 39.585C43.5901 39.585 43.5901 39.54 43.6251 39.46C43.6601 39.38 43.6951 39.24 43.7501 39.08L44.2501 37.58V37.625L41.3051 35.81H41.3801L39.9151 37.31L39.8851 37.34H39.8451C39.1279 37.1212 38.3846 37.0001 37.6351 36.98H37.6001V36.94L36.6851 35.06L36.7801 35.105L33.4101 35.89L33.4801 35.8C33.4801 36.445 33.4801 37.16 33.4801 37.89V37.95H33.4251C32.7669 38.3014 32.1583 38.7386 31.6151 39.25L31.5701 39.29H31.5101L29.5351 38.605L29.6601 38.56L27.8251 41.5V41.365L29.3251 42.865L29.3751 42.91V42.975C29.1577 43.6875 29.035 44.4255 29.0101 45.17V45.24L28.9451 45.27L27.0001 46.135L27.0651 46.005C27.3101 47.07 27.5651 48.215 27.8451 49.375L27.7301 49.285H29.8201H29.8901L29.9251 49.35C30.2719 50.0085 30.7058 50.6173 31.2151 51.16C31.2151 51.215 31.2151 51.045 31.2401 51.28V51.31V51.375L31.1951 51.5L31.1101 51.745L30.9351 52.245L30.5901 53.245L30.5451 53.105L33.4751 54.94H33.3301L34.8301 53.44L34.8801 53.39H34.9451C35.6568 53.6113 36.3951 53.7357 37.1401 53.76H37.2101L37.2401 53.82C37.5451 54.455 37.8501 55.085 38.1451 55.705L38.0201 55.645L41.3951 54.87L41.3101 54.975C41.3101 54.265 41.3101 53.57 41.3101 52.885V52.82L41.3651 52.79C42.0266 52.4433 42.6387 52.0094 43.1851 51.5L43.2301 51.46H43.2851L45.2851 52.15L45.1701 52.195C45.8151 51.16 46.4301 50.195 47.0101 49.265V49.375L45.5101 47.875L45.4701 47.835V47.79C45.6941 47.0753 45.8202 46.3336 45.8451 45.585V45.54H45.8851L47.7751 44.635L47.7351 44.715C47.4401 43.41 47.1901 42.295 46.9751 41.34L47.0251 41.38H44.8751C44.609 40.8919 44.2976 40.4298 43.9451 40C43.8301 39.865 43.7451 39.755 43.6801 39.675C43.6481 39.6417 43.6181 39.6067 43.5901 39.57C43.5901 39.57 43.6301 39.6 43.6951 39.665C43.7601 39.73 43.8551 39.835 43.9751 39.975C44.3422 40.4129 44.6639 40.887 44.9351 41.39H44.9001H46.9901H47.0351V41.43C47.2551 42.385 47.5351 43.495 47.8251 44.8V44.855H47.7751L45.8951 45.775L45.9351 45.705C45.9136 46.4679 45.7909 47.2245 45.5701 47.955V47.87L47.0701 49.335L47.1201 49.39L47.0851 49.45L45.2551 52.385L45.2151 52.455L45.1401 52.425L43.1401 51.74H43.2401C42.684 52.263 42.0601 52.7086 41.3851 53.065L41.4401 52.975C41.4401 53.66 41.4401 54.355 41.4401 55.065V55.15H41.3551L38.0001 55.92H37.9151L37.8751 55.835C37.5751 55.22 37.2751 54.59 36.9651 53.955L37.0651 54.02C36.2998 53.9948 35.5413 53.867 34.8101 53.64H34.9251L33.4551 55.14L33.3851 55.205L33.3101 55.155L30.3751 53.32L30.2951 53.27L30.3251 53.18L30.6701 52.18L30.8401 51.68L30.9301 51.43L30.9701 51.305V51.245V51.215C31.0201 51.45 30.9701 51.28 30.9951 51.33C30.4698 50.7741 30.0239 50.1481 29.6701 49.47L29.7701 49.53H27.6801H27.5851V49.44C27.3201 48.28 27.0551 47.135 26.8101 46.065V45.975L26.8901 45.935L28.7901 45L28.7301 45.1C28.7556 44.3351 28.8816 43.577 29.1051 42.845L29.1351 42.955L27.6351 41.455L27.5701 41.395L27.6151 41.32L29.5001 38.435L29.5451 38.365H29.6251L31.5951 39.06H31.4951C32.054 38.5398 32.6795 38.0959 33.3551 37.74L33.3051 37.825C33.3051 37.095 33.3051 36.38 33.3051 35.735V35.66H33.3751L36.7501 34.89H36.8151L36.8451 34.95C37.1601 35.615 37.4651 36.25 37.7501 36.835L37.6801 36.795C38.4422 36.8228 39.1972 36.9523 39.9251 37.18H39.8551L41.3551 35.68L41.3901 35.645H41.4301L44.3501 37.495H44.3751L43.8451 38.955C43.7851 39.11 43.7401 39.235 43.7051 39.33C43.6701 39.425 43.5951 39.58 43.5901 39.585Z" fill="#E0E0E0"/>
<path d="M163.28 20.84L148.58 20.77C148.1 20.7798 147.627 20.884 147.187 21.0767C146.747 21.2695 146.35 21.547 146.017 21.8934C145.685 22.2397 145.424 22.6482 145.249 23.0955C145.075 23.5428 144.99 24.02 145 24.5V27.165C145.009 27.6444 144.923 28.1207 144.747 28.5669C144.572 29.013 144.31 29.4202 143.977 29.7652C143.644 30.1102 143.247 30.3862 142.807 30.5775C142.367 30.7688 141.894 30.8716 141.415 30.88L112.76 30.75C111.791 30.7239 110.873 30.3141 110.206 29.611C109.54 28.9078 109.179 27.9686 109.205 27V24.335C109.23 23.3664 108.87 22.4273 108.204 21.7241C107.537 21.0209 106.619 20.6112 105.65 20.585H100.48L87.61 20.5C84.5462 20.4881 81.6028 21.6923 79.4261 23.8484C77.2494 26.0045 76.0172 28.9363 76 32L75.215 217.54C75.2017 220.605 76.4052 223.55 78.5613 225.729C80.7174 227.908 83.6499 229.142 86.715 229.16L162.385 229.505C165.45 229.518 168.396 228.314 170.574 226.157C172.752 223.999 173.984 221.066 174 218L174.785 32.46C174.793 30.9415 174.501 29.4363 173.928 28.0305C173.354 26.6246 172.508 25.3456 171.44 24.2665C170.371 23.1874 169.101 22.3294 167.701 21.7415C166.301 21.1535 164.798 20.8472 163.28 20.84Z" fill="white"/>
<path d="M163.28 20.84C163.28 20.84 163.415 20.84 163.675 20.84C164.068 20.8437 164.461 20.8754 164.85 20.935C166.384 21.121 167.86 21.6324 169.18 22.435C170.16 23.0109 171.045 23.7344 171.805 24.58C172.741 25.6057 173.484 26.7912 174 28.08C174.592 29.5729 174.88 31.1693 174.845 32.775C174.845 34.48 174.845 36.275 174.845 38.225C174.79 53.64 174.71 75.94 174.61 103.49C174.51 131.04 174.375 163.855 174.23 200.29C174.21 204.847 174.192 209.455 174.175 214.115C174.175 215.285 174.175 216.45 174.175 217.615C174.189 218.797 174.036 219.976 173.72 221.115C173.389 222.267 172.883 223.361 172.22 224.36C171.548 225.356 170.736 226.25 169.81 227.015C167.907 228.545 165.573 229.44 163.135 229.575C162.525 229.615 161.925 229.605 161.32 229.6H159.5H155.86L141.13 229.53L110.895 229.395L95.43 229.325L87.62 229.285C84.9568 229.425 82.3214 228.685 80.12 227.18C77.9316 225.646 76.3291 223.414 75.575 220.85C75.2144 219.579 75.0575 218.26 75.11 216.94V213.04C75.13 207.85 75.1517 202.695 75.175 197.575C75.2183 187.335 75.2617 177.253 75.305 167.33C75.39 147.505 75.475 128.38 75.555 110.16C75.635 91.94 75.715 74.63 75.785 58.43C75.8217 50.33 75.8567 42.515 75.89 34.985C75.89 34.045 75.89 33.11 75.89 32.18C75.89 31.715 75.935 31.245 75.96 30.78C75.985 30.315 76.08 29.85 76.2 29.405C76.6141 27.6276 77.4403 25.9725 78.612 24.5732C79.7837 23.174 81.268 22.0699 82.945 21.35C84.5662 20.6602 86.3193 20.3359 88.08 20.4L98.165 20.45L103 20.5H105.375C106.18 20.4611 106.976 20.6877 107.64 21.145C108.288 21.6009 108.777 22.2476 109.04 22.995C109.254 23.7348 109.328 24.5079 109.26 25.275C109.26 25.65 109.26 26.025 109.26 26.4C109.246 26.7687 109.258 27.1379 109.295 27.505C109.383 28.2256 109.682 28.9041 110.155 29.455C110.615 30.003 111.236 30.3915 111.93 30.565C112.272 30.6495 112.623 30.6865 112.975 30.675H114.04H118.215L133.47 30.76L140.195 30.795C140.725 30.795 141.265 30.825 141.77 30.795C142.277 30.7374 142.764 30.5666 143.195 30.295C143.609 30.0351 143.967 29.6951 144.248 29.295C144.528 28.8949 144.726 28.4427 144.83 27.965C144.914 27.5 144.946 27.0271 144.925 26.555C144.925 26.09 144.925 25.625 144.925 25.175C144.906 24.724 144.928 24.2722 144.99 23.825C145.066 23.3915 145.215 22.974 145.43 22.59C145.841 21.8542 146.492 21.2822 147.275 20.97C148.035 20.645 148.84 20.75 149.57 20.735L157.07 20.785L161.685 20.815C162.725 20.815 163.255 20.815 163.255 20.815H161.685H157.07H149.57C148.809 20.7392 148.04 20.8192 147.31 21.05C146.543 21.3521 145.907 21.9128 145.51 22.635C145.299 23.0093 145.154 23.4168 145.08 23.84C145.022 24.2825 145.002 24.7291 145.02 25.175C145.02 25.63 145.02 26.09 145.02 26.555C145.04 27.0337 145.008 27.5132 144.925 27.985C144.819 28.4768 144.616 28.9425 144.327 29.3546C144.039 29.7668 143.671 30.1171 143.245 30.385C142.8 30.6589 142.3 30.8298 141.78 30.885C141.245 30.93 140.725 30.885 140.19 30.885L133.5 30.89L118.245 30.83H114.07H113C112.635 30.8431 112.27 30.806 111.915 30.72C111.191 30.5384 110.542 30.1344 110.06 29.565C109.567 28.9896 109.254 28.2819 109.16 27.53C109.126 27.156 109.114 26.7804 109.125 26.405C109.125 26.03 109.125 25.655 109.125 25.28C109.193 24.5314 109.12 23.7768 108.91 23.055C108.656 22.341 108.188 21.7228 107.57 21.285C106.934 20.8479 106.171 20.6335 105.4 20.675H103.025H98.17L88.09 20.63C86.3341 20.5563 84.5846 20.8852 82.9753 21.5915C81.366 22.2978 79.9395 23.3628 78.805 24.705C77.6399 26.0968 76.8179 27.7426 76.405 29.51C76.285 29.95 76.25 30.41 76.165 30.86C76.08 31.31 76.105 31.775 76.1 32.24C76.1 33.17 76.1 34.105 76.1 35.045C76.0733 42.565 76.0433 50.38 76.01 58.49C75.945 74.69 75.875 91.99 75.805 110.225C75.735 128.46 75.65 147.565 75.57 167.395C75.53 177.305 75.4883 187.385 75.445 197.635C75.425 202.755 75.4033 207.912 75.38 213.105C75.38 214.398 75.38 215.698 75.38 217.005C75.3303 218.298 75.4838 219.59 75.835 220.835C76.5697 223.326 78.1213 225.498 80.24 227C82.4016 228.473 84.9877 229.196 87.6 229.055L95.41 229.095L110.87 229.165L141.105 229.305L155.84 229.375H159.48H161.29C161.895 229.375 162.5 229.375 163.09 229.35C165.475 229.221 167.759 228.346 169.62 226.85C170.53 226.102 171.327 225.227 171.985 224.25C172.631 223.273 173.122 222.202 173.44 221.075C173.754 219.952 173.906 218.791 173.89 217.625V214.125C173.91 209.458 173.93 204.85 173.95 200.3C174.115 163.865 174.265 131.055 174.385 103.5C174.505 75.945 174.63 53.65 174.705 38.235C174.705 36.31 174.705 34.49 174.735 32.785C174.774 31.1885 174.492 29.6004 173.905 28.115C173.393 26.8485 172.662 25.6823 171.745 24.67C169.938 22.6857 167.5 21.3888 164.845 21C164.458 20.9397 164.067 20.903 163.675 20.89L163.28 20.84Z" fill="#263238"/>
<path d="M149.695 79.255L148.56 77.91L151.94 76.095L136.235 70.78L141.55 86L143.485 83.465C143.485 83.465 153.645 101.345 143.485 112.215C133.395 123.01 121.485 120.67 121.485 120.67L123.78 128.17C123.78 128.17 142.5 129.5 152.545 112.58C162.59 95.66 149.695 79.255 149.695 79.255Z" fill="#18A0A0"/>
<path d="M102.605 116.775L103.74 118.12L100.355 119.935L116.06 125.25L110.745 110.03L108.815 112.565C108.815 112.565 98.65 94.685 108.815 83.815C118.905 73.02 130.815 75.36 130.815 75.36L128.52 67.86C128.52 67.86 109.795 66.53 99.77 83.44C89.745 100.35 102.605 116.775 102.605 116.775Z" fill="#18A0A0"/>
<path d="M149.695 79.255L148.56 77.91L151.94 76.095L136.235 70.78L141.55 86L143.485 83.465C143.485 83.465 153.645 101.345 143.485 112.215C133.395 123.01 121.485 120.67 121.485 120.67L123.78 128.17C123.78 128.17 142.5 129.5 152.545 112.58C162.59 95.66 149.695 79.255 149.695 79.255Z" fill="#18A0A0"/>
<path d="M102.605 116.775L103.74 118.12L100.355 119.935L116.06 125.25L110.745 110.03L108.815 112.565C108.815 112.565 98.65 94.685 108.815 83.815C118.905 73.02 130.815 75.36 130.815 75.36L128.52 67.86C128.52 67.86 109.795 66.53 99.77 83.44C89.745 100.35 102.605 116.775 102.605 116.775Z" fill="#18A0A0"/>
<g opacity="0.8">
<path d="M149.695 79.255L148.56 77.91L151.94 76.095L136.235 70.78L141.55 86L143.485 83.465C143.485 83.465 153.645 101.345 143.485 112.215C133.395 123.01 121.485 120.67 121.485 120.67L123.78 128.17C123.78 128.17 142.5 129.5 152.545 112.58C162.59 95.66 149.695 79.255 149.695 79.255Z" fill="white"/>
</g>
<g opacity="0.8">
<path d="M102.605 116.775L103.74 118.12L100.355 119.935L116.06 125.25L110.745 110.03L108.815 112.565C108.815 112.565 98.65 94.685 108.815 83.815C118.905 73.02 130.815 75.36 130.815 75.36L128.52 67.86C128.52 67.86 109.795 66.53 99.77 83.44C89.745 100.35 102.605 116.775 102.605 116.775Z" fill="white"/>
</g>
<path fill-rule="evenodd" clip-rule="evenodd" d="M135.105 89.135C135.849 89.9319 136.483 90.8248 136.99 91.79H139.99L141.11 96.655L138.395 97.97C138.358 99.0592 138.177 100.139 137.855 101.18L140 103.305L137.35 107.535L134.5 106.535C133.706 107.282 132.815 107.918 131.85 108.425V111.425L127 112.555L125.69 109.835C124.608 109.798 123.535 109.618 122.5 109.3L120.375 111.44L116.14 108.795L117.14 105.945C116.396 105.15 115.762 104.259 115.255 103.295H112.255L111.135 98.43L113.85 97.12C113.886 96.0307 114.068 94.9512 114.39 93.91L112.25 91.785L114.895 87.55L117.745 88.55C118.54 87.8045 119.431 87.1689 120.395 86.66V83.66L125.26 82.535L126.57 85.255C127.659 85.2891 128.739 85.4708 129.78 85.795L131.905 83.65L136.14 86.3L135.14 89.145L135.105 89.135ZM129.15 93.135C128.252 92.5715 127.207 92.2872 126.148 92.318C125.088 92.3488 124.062 92.6934 123.198 93.3081C122.335 93.9227 121.673 94.7799 121.297 95.7709C120.921 96.7619 120.847 97.8423 121.086 98.8751C121.324 99.908 121.864 100.847 122.636 101.573C123.408 102.299 124.379 102.779 125.424 102.953C126.47 103.127 127.544 102.987 128.51 102.55C129.475 102.113 130.29 101.4 130.85 100.5C131.223 99.9038 131.475 99.24 131.591 98.5464C131.708 97.8529 131.686 97.1432 131.528 96.4579C131.371 95.7726 131.079 95.1251 130.671 94.5524C130.263 93.9797 129.746 93.4929 129.15 93.12V93.135Z" fill="#18A0A0"/>
<g opacity="0.6">
<path fill-rule="evenodd" clip-rule="evenodd" d="M129.15 93.12C128.252 92.5584 127.208 92.2756 126.149 92.3074C125.091 92.3393 124.065 92.6843 123.203 93.2989C122.34 93.9135 121.679 94.7701 121.303 95.7603C120.928 96.7506 120.854 97.83 121.092 98.862C121.33 99.8941 121.868 100.833 122.639 101.559C123.41 102.285 124.379 102.766 125.424 102.941C126.468 103.116 127.541 102.978 128.507 102.544C129.473 102.109 130.288 101.398 130.85 100.5C131.223 99.9038 131.475 99.24 131.591 98.5465C131.708 97.8529 131.686 97.1432 131.529 96.4579C131.371 95.7726 131.079 95.1251 130.671 94.5524C130.263 93.9797 129.746 93.493 129.15 93.12Z" fill="white"/>
</g>
<path d="M109.845 147.395V144.19H110.435V147.37C110.435 148.7 111.06 149.305 112.145 149.305C113.23 149.305 113.865 148.7 113.865 147.37V144.19H114.44V147.395C114.44 149.005 113.58 149.835 112.145 149.835C110.71 149.835 109.845 149 109.845 147.395Z" fill="#263238"/>
<path d="M120.6 146.11C120.6 147.3 119.74 148.02 118.315 148.02H116.815V149.785H116.22V144.19H118.315C119.74 144.19 120.6 144.91 120.6 146.11ZM120.01 146.11C120.01 145.215 119.42 144.7 118.3 144.7H116.8V147.5H118.3C119.42 147.5 120 147 120 146.11H120.01Z" fill="#263238"/>
<path d="M121.88 144.19H124.155C125.945 144.19 127.155 145.34 127.155 146.99C127.155 148.64 125.945 149.785 124.155 149.785H121.88V144.19ZM124.125 149.275C125.625 149.275 126.57 148.33 126.57 146.99C126.57 145.65 125.61 144.7 124.125 144.7H122.47V149.275H124.125Z" fill="#263238"/>
<path d="M131.905 148.29H128.79L128.115 149.79H127.5L130.06 144.195H130.645L133.2 149.79H132.58L131.905 148.29ZM131.69 147.79L130.35 144.79L129.005 147.79H131.69Z" fill="#263238"/>
<path d="M134.935 144.7H132.965V144.2H137.5V144.7H135.535V149.785H134.945L134.935 144.7Z" fill="#263238"/>
<path d="M142.39 149.275V149.775H138.435V144.19H142.27V144.69H139.025V146.69H141.92V147.19H139.025V149.27L142.39 149.275Z" fill="#263238"/>
<path d="M167.665 38.84C167.665 38.89 165.64 38.95 163.14 38.97C160.64 38.99 158.64 38.97 158.64 38.915C158.64 38.86 160.64 38.8 163.14 38.78C165.64 38.76 167.665 38.785 167.665 38.84Z" fill="#263238"/>
<path d="M167.685 41.155C167.685 41.21 165.66 41.27 163.16 41.29C160.66 41.31 158.635 41.29 158.635 41.23C158.635 41.17 160.66 41.12 163.16 41.1C165.66 41.08 167.685 41.105 167.685 41.155Z" fill="#263238"/>
<path d="M167.705 43.47C167.705 43.525 165.68 43.585 163.18 43.605C160.68 43.625 158.65 43.605 158.65 43.545C158.65 43.485 160.675 43.435 163.18 43.415C165.685 43.395 167.705 43.42 167.705 43.47Z" fill="#263238"/>
<path d="M85.3249 46.115H85.5099H86.0099L87.9449 46.07L87.8899 46.125C87.8899 45.695 87.8899 45.23 87.8899 44.725C87.8899 44.46 87.8899 44.225 87.8899 43.915C87.9209 43.7596 88.0007 43.6181 88.1175 43.5111C88.2344 43.4041 88.3824 43.3371 88.5399 43.32C88.8499 43.32 89.1249 43.32 89.4649 43.32C89.6411 43.3496 89.8011 43.4407 89.9165 43.5771C90.0318 43.7135 90.095 43.8864 90.0949 44.065C90.0949 44.72 90.095 45.405 90.12 46.11L90.0299 46.025H92.4699L92.3749 46.115C92.3749 45.115 92.3749 44.115 92.3749 43.08C92.3749 42.82 92.3749 42.58 92.3749 42.305C92.3647 42.1899 92.3289 42.0785 92.2701 41.979C92.2113 41.8795 92.1309 41.7944 92.035 41.73L90.9699 40.68L89.9399 39.68L89.4399 39.18C89.2699 39.015 89.1349 38.845 88.9399 38.805C88.8446 38.7803 88.745 38.7769 88.6482 38.795C88.5514 38.8132 88.4598 38.8524 88.3799 38.91C88.2299 39.035 88.075 39.215 87.925 39.36L86.9999 40.17C86.4499 40.74 85.8749 41.265 85.4599 41.76C85.3382 42.0469 85.2951 42.3609 85.3349 42.67V43.53C85.3349 44.03 85.3349 44.53 85.3349 44.91C85.3349 45.29 85.3349 45.555 85.3349 45.795C85.3349 46.035 85.3349 46.11 85.3349 46.115C85.329 46.0184 85.329 45.9216 85.3349 45.825C85.3349 45.585 85.3349 45.3 85.3349 44.95C85.3349 44.6 85.335 44.085 85.3 43.555C85.3 43.28 85.3 42.99 85.3 42.68C85.3 42.525 85.3 42.365 85.3 42.18C85.2987 42.0048 85.3436 41.8324 85.4299 41.68C85.8849 41.125 86.4299 40.64 86.9749 40.05L87.8449 39.16C87.9999 39.005 88.13 38.855 88.3149 38.695C88.4143 38.62 88.5293 38.5684 88.6514 38.5442C88.7735 38.5199 88.8995 38.5236 89.0199 38.555C89.252 38.637 89.4565 38.7825 89.6099 38.975L90.1099 39.475L91.1399 40.475L92.2099 41.525C92.3096 41.6141 92.4 41.7129 92.48 41.82C92.5601 41.9421 92.6051 42.084 92.6099 42.23C92.6099 42.485 92.6099 42.73 92.6099 43.005C92.6099 44.05 92.6099 45.065 92.6099 46.045V46.14H92.4999H90.0599H89.9749V46.055C89.9749 45.345 89.9749 44.66 89.9749 44.01C89.9778 43.8671 89.9287 43.728 89.8368 43.6185C89.7448 43.5091 89.6162 43.4368 89.4749 43.415C89.1949 43.415 88.8599 43.415 88.5899 43.415C88.4635 43.4264 88.3442 43.4783 88.2496 43.563C88.155 43.6477 88.0903 43.7606 88.0649 43.885C88.0649 44.13 88.0649 44.42 88.0649 44.665V46.15H88.0099H86.0449H85.5449C85.4705 46.1466 85.3967 46.1348 85.3249 46.115Z" fill="#263238"/>
<path d="M145.25 44.14C145.25 44.21 137.63 44.27 128.25 44.27C118.87 44.27 111.25 44.21 111.25 44.14C111.25 44.07 118.87 44.01 128.25 44.01C137.63 44.01 145.25 44.07 145.25 44.14Z" fill="#263238"/>
<path d="M144.365 202.165H108.64C106.449 202.165 104.347 201.295 102.798 199.746C101.248 198.197 100.376 196.096 100.375 193.905C100.375 191.713 101.246 189.611 102.796 188.061C104.346 186.511 106.448 185.64 108.64 185.64H144.365C146.557 185.64 148.659 186.511 150.209 188.061C151.759 189.611 152.63 191.713 152.63 193.905C152.629 196.096 151.757 198.197 150.207 199.746C148.658 201.295 146.556 202.165 144.365 202.165Z" fill="#18A0A0"/>
<path d="M119.685 195.11L119.985 194.45C120.352 194.705 120.788 194.843 121.235 194.845C121.735 194.845 121.97 194.675 121.97 194.44C121.97 193.73 119.76 194.215 119.76 192.805C119.76 192.16 120.26 191.625 121.36 191.625C121.822 191.614 122.279 191.73 122.68 191.96L122.41 192.625C122.089 192.438 121.726 192.336 121.355 192.33C120.855 192.33 120.635 192.525 120.635 192.765C120.635 193.465 122.84 192.98 122.84 194.375C122.84 195.01 122.315 195.55 121.23 195.55C120.682 195.563 120.144 195.409 119.685 195.11Z" fill="white"/>
<path d="M125.265 195.345C125.059 195.474 124.818 195.539 124.575 195.53C124.434 195.548 124.29 195.533 124.155 195.488C124.019 195.444 123.896 195.369 123.793 195.27C123.69 195.172 123.61 195.052 123.56 194.918C123.509 194.785 123.489 194.642 123.5 194.5V193.3H123.05V192.645H123.5V191.935H124.345V192.645H125.075V193.3H124.345V194.485C124.338 194.535 124.343 194.587 124.358 194.635C124.374 194.684 124.4 194.728 124.435 194.765C124.47 194.802 124.513 194.831 124.561 194.849C124.608 194.867 124.659 194.874 124.71 194.87C124.832 194.873 124.951 194.836 125.05 194.765L125.265 195.345Z" fill="white"/>
<path d="M128.325 193.82V195.5H127.53V195.14C127.432 195.281 127.297 195.394 127.141 195.465C126.984 195.536 126.811 195.564 126.64 195.545C125.955 195.545 125.55 195.165 125.55 194.66C125.55 194.155 125.915 193.785 126.805 193.785H127.5C127.5 193.425 127.285 193.21 126.83 193.21C126.528 193.207 126.232 193.304 125.99 193.485L125.685 192.89C126.061 192.652 126.5 192.53 126.945 192.54C127.805 192.525 128.325 192.935 128.325 193.82ZM127.475 194.565V194.265H126.895C126.5 194.265 126.395 194.41 126.395 194.605C126.395 194.8 126.575 194.96 126.87 194.96C127.004 194.971 127.137 194.939 127.251 194.867C127.364 194.796 127.452 194.69 127.5 194.565H127.475Z" fill="white"/>
<path d="M130.895 192.525V193.305H130.71C130.602 193.295 130.493 193.309 130.391 193.347C130.29 193.385 130.198 193.446 130.123 193.524C130.048 193.602 129.992 193.697 129.958 193.8C129.925 193.903 129.915 194.013 129.93 194.12V195.5H129.085V192.585H129.895V192.97C130.012 192.82 130.165 192.7 130.339 192.623C130.514 192.545 130.705 192.512 130.895 192.525Z" fill="white"/>
<path d="M133.385 195.345C133.179 195.474 132.938 195.539 132.695 195.53C132.551 195.549 132.405 195.536 132.267 195.491C132.129 195.446 132.003 195.371 131.898 195.27C131.793 195.17 131.713 195.047 131.662 194.911C131.611 194.775 131.592 194.63 131.605 194.485V193.285H131.155V192.63H131.605V191.92H132.455V192.63H133.18V193.285H132.455V194.47C132.448 194.52 132.453 194.571 132.468 194.619C132.483 194.667 132.509 194.711 132.544 194.748C132.578 194.785 132.62 194.814 132.667 194.832C132.714 194.851 132.765 194.858 132.815 194.855C132.938 194.857 133.059 194.821 133.16 194.75L133.385 195.345Z" fill="white"/>
<path d="M160.455 162.965C160.455 163.035 145.095 163.095 126.15 163.095C107.205 163.095 91.84 163.035 91.84 162.965C91.84 162.895 107.2 162.835 126.15 162.835C145.1 162.835 160.455 162.89 160.455 162.965Z" fill="#263238"/>
<path d="M146.785 167.17C146.785 167.24 137.545 167.3 126.15 167.3C114.755 167.3 105.51 167.24 105.51 167.17C105.51 167.1 114.75 167.04 126.15 167.04C137.55 167.04 146.785 167.095 146.785 167.17Z" fill="#263238"/>
<path d="M51.8501 229.12L48.8101 240.355L58.6851 241.255L60.7601 230.56L51.8501 229.12Z" fill="#18A0A0"/>
<path d="M58.9701 240.34C58.4879 240.371 58.0039 240.354 57.5251 240.29C56.6351 240.22 55.4101 240.085 54.0601 239.91L50.6101 239.445C50.1284 239.409 49.6512 239.327 49.1851 239.2C49.6674 239.17 50.1514 239.188 50.6301 239.255C51.5201 239.325 52.7451 239.465 54.0951 239.635L57.5451 240.095C58.0263 240.135 58.5031 240.217 58.9701 240.34Z" fill="#263238"/>
<g opacity="0.6">
<path d="M48.8101 240.355L58.6851 241.255L58.8451 240.43L49.0951 239.19L48.8201 240.24" fill="white"/>
</g>
<path d="M53.715 239.855C53.9545 238.405 54.2682 236.968 54.655 235.55C54.9668 234.113 55.3557 232.695 55.82 231.3C55.5805 232.75 55.2667 234.187 54.88 235.605C54.5654 237.041 54.1765 238.459 53.715 239.855Z" fill="#263238"/>
<path d="M58.425 240.265C58.5813 239.579 58.5813 238.866 58.425 238.18C58.2523 237.441 57.8785 236.764 57.345 236.225C56.6806 235.578 55.8138 235.179 54.89 235.095C53.9662 234.997 53.0359 235.208 52.245 235.695C51.6055 236.104 51.0779 236.666 50.71 237.33C50.3813 237.953 50.1695 238.631 50.085 239.33C50.085 239.33 50.085 239.275 50.085 239.18C50.0747 239.037 50.0747 238.893 50.085 238.75C50.1512 238.226 50.3104 237.718 50.555 237.25C50.9245 236.537 51.4744 235.934 52.15 235.5C52.9771 234.977 53.9566 234.748 54.93 234.85C55.8171 234.919 56.657 235.277 57.3209 235.87C57.9847 236.462 58.4358 237.256 58.605 238.13C58.7115 238.65 58.7115 239.185 58.605 239.705C58.5751 239.844 58.535 239.981 58.485 240.115C58.455 240.22 58.43 240.27 58.425 240.265Z" fill="#263238"/>
<path d="M92.61 226.105L91.95 236.105C91.95 236.105 101.88 239.4 101.95 241.26L82.545 241.4L82.935 225.81L92.61 226.105Z" fill="#18A0A0"/>
<g opacity="0.6">
<path d="M86 235.065C85.8119 235.116 85.6492 235.234 85.5431 235.397C85.4369 235.561 85.3949 235.758 85.425 235.95C85.4683 236.141 85.5833 236.307 85.7463 236.415C85.9093 236.523 86.1076 236.564 86.3 236.53C86.4999 236.476 86.6723 236.349 86.7833 236.174C86.8943 235.999 86.936 235.789 86.9 235.585C86.8337 235.392 86.6951 235.232 86.5133 235.138C86.3315 235.045 86.1207 235.026 85.925 235.085" fill="white"/>
</g>
<g opacity="0.6">
<path d="M82.535 241.38L82.575 239.805L101.315 240.305C101.514 240.407 101.685 240.557 101.811 240.741C101.938 240.925 102.016 241.138 102.04 241.36L82.535 241.38Z" fill="white"/>
</g>
<path d="M92.27 236C92.27 236.095 91.77 236.125 91.31 236.415C90.85 236.705 90.575 237.095 90.49 237.055C90.405 237.015 90.56 236.475 91.145 236.13C91.73 235.785 92.29 235.91 92.27 236Z" fill="#263238"/>
<path d="M94.2751 236.9C94.2751 236.99 93.8801 237.14 93.5451 237.53C93.2101 237.92 93.1051 238.345 93.0151 238.335C92.9251 238.325 92.8751 237.79 93.3001 237.335C93.7251 236.88 94.2751 236.81 94.2751 236.9Z" fill="#263238"/>
<path d="M95.3601 239.37C95.2701 239.37 95.1551 238.91 95.4151 238.4C95.6751 237.89 96.1201 237.695 96.1601 237.775C96.2001 237.855 95.9151 238.125 95.7101 238.545C95.5051 238.965 95.4551 239.365 95.3601 239.37Z" fill="#263238"/>
<path d="M92.165 233.705C92.125 233.79 91.695 233.65 91.165 233.67C90.635 233.69 90.21 233.845 90.165 233.76C90.12 233.675 90.53 233.355 91.165 233.34C91.8 233.325 92.215 233.635 92.165 233.705Z" fill="#263238"/>
<path d="M92.26 231.69C91.9394 231.766 91.6042 231.754 91.29 231.655C90.944 231.583 90.6082 231.469 90.29 231.315C90.1009 231.22 89.9173 231.115 89.74 231C89.6339 230.936 89.5379 230.857 89.455 230.765C89.3954 230.697 89.3602 230.611 89.3547 230.52C89.3493 230.43 89.374 230.34 89.425 230.265C89.4735 230.198 89.5376 230.145 89.6118 230.109C89.6859 230.073 89.7677 230.057 89.85 230.06C89.9722 230.062 90.0935 230.083 90.21 230.12C90.4163 230.177 90.6172 230.252 90.81 230.345C91.1319 230.503 91.4271 230.711 91.685 230.96C92.125 231.39 92.265 231.75 92.235 231.765C92.205 231.78 91.98 231.495 91.53 231.135C91.2687 230.933 90.9831 230.765 90.68 230.635C90.5028 230.556 90.3187 230.494 90.13 230.45C89.925 230.39 89.75 230.38 89.695 230.45C89.64 230.52 89.695 230.5 89.695 230.56C89.7585 230.628 89.8308 230.687 89.91 230.735C90.0698 230.848 90.2368 230.949 90.41 231.04C90.7067 231.2 91.0182 231.33 91.34 231.43C91.6527 231.494 91.9602 231.581 92.26 231.69Z" fill="#263238"/>
<path d="M92.135 231.825C91.9608 231.54 91.8803 231.208 91.905 230.875C91.8947 230.299 92.0435 229.732 92.335 229.235C92.3915 229.109 92.4796 228.999 92.5909 228.917C92.7021 228.834 92.8327 228.782 92.97 228.765C93.0567 228.768 93.1408 228.796 93.2118 228.845C93.2829 228.895 93.3379 228.964 93.37 229.045C93.4158 229.16 93.4461 229.282 93.46 229.405C93.4904 229.622 93.4904 229.843 93.46 230.06C93.3954 230.425 93.2427 230.768 93.015 231.06C92.62 231.56 92.22 231.655 92.215 231.62C92.21 231.585 92.52 231.4 92.825 230.925C92.9999 230.651 93.1142 230.342 93.16 230.02C93.185 229.834 93.185 229.646 93.16 229.46C93.135 229.255 93.06 229.085 92.985 229.105C92.91 229.125 92.72 229.25 92.635 229.41C92.5342 229.568 92.4488 229.736 92.38 229.91C92.2613 230.22 92.1872 230.545 92.16 230.875C92.095 231.45 92.185 231.81 92.135 231.825Z" fill="#263238"/>
<path d="M92.61 139.415L63.045 139.195L48.76 233.035L61.03 234.59L76.755 157.43L81.46 234.865L81.475 235.095L94.745 234.865L92.61 139.415Z" fill="#263238"/>
<path d="M79.165 147C79.3675 146.975 79.5711 146.962 79.775 146.96L81.555 146.895L87.945 146.715H88.065V146.84C88.065 148.695 88.065 150.765 88.065 152.97V153.025L88.02 153.065L86.91 154.065L83.63 157.065L83.54 157.145L83.455 157.07L79.08 153.17L79.045 153.14V153.09C79.045 151.23 79.085 149.695 79.1 148.59C79.1 148.09 79.1 147.685 79.125 147.38C79.1219 147.243 79.1302 147.106 79.15 146.97C79.1577 147.12 79.1577 147.27 79.15 147.42C79.15 147.73 79.15 148.145 79.18 148.655C79.18 149.74 79.21 151.25 79.235 153.085L79.2 153.01L83.605 156.87H83.43L86.705 153.87L87.82 152.87L87.775 152.97C87.775 150.765 87.775 148.695 87.775 146.84L87.9 146.96L81.58 147.02H79.29C79.2479 147.017 79.2061 147.01 79.165 147Z" fill="#455A64"/>
<path d="M65.25 146.615C65.4315 146.603 65.6136 146.603 65.795 146.615L67.385 146.745L73.135 147.245H73.255V147.365C73.04 149.18 72.79 151.245 72.53 153.45V153.505L72.49 153.54L71.215 154.54L68.07 157.04L67.965 157.12L67.885 157.02L64.45 152.67L64.42 152.635V152.59C64.67 150.75 64.875 149.235 65.02 148.14C65.095 147.64 65.15 147.245 65.195 146.935C65.2051 146.799 65.2303 146.665 65.27 146.535C65.267 146.686 65.2553 146.836 65.235 146.985C65.205 147.298 65.165 147.708 65.115 148.215L64.615 152.62V152.54C65.615 153.795 66.805 155.26 68.09 156.855H67.905L71.045 154.355L72.32 153.355L72.27 153.44C72.545 151.24 72.805 149.175 73.03 147.36L73.135 147.49L67.47 146.86L65.86 146.665C65.6559 146.661 65.4521 146.644 65.25 146.615Z" fill="#455A64"/>
<path d="M83.34 160.855C82.8751 160.678 82.4267 160.461 82 160.205C81.185 159.78 80.06 159.205 78.805 158.57C77.55 157.935 76.41 157.4 75.58 157.005C75.1189 156.815 74.6741 156.588 74.25 156.325C74.7341 156.444 75.2048 156.611 75.655 156.825C76.51 157.175 77.655 157.695 78.93 158.325C80.205 158.955 81.3 159.57 82.09 160.04C82.5314 160.272 82.9499 160.545 83.34 160.855Z" fill="#455A64"/>
<path d="M82.96 163.135C82.6064 163.07 82.2675 162.941 81.96 162.755C80.3983 161.954 79.1192 160.695 78.295 159.145C78.1035 158.839 77.9696 158.5 77.9 158.145C78.4953 159.193 79.2137 160.167 80.04 161.045C80.9294 161.852 81.9092 162.553 82.96 163.135Z" fill="#455A64"/>
<path d="M91.3051 190.25C91.2868 190.423 91.2412 190.591 91.1701 190.75C91.0091 191.185 90.803 191.603 90.5551 191.995C89.7361 193.309 88.5303 194.338 87.1032 194.94C85.6762 195.541 84.0979 195.686 82.5851 195.355C82.1316 195.259 81.6892 195.117 81.2651 194.93C81.1053 194.871 80.9553 194.788 80.8201 194.685C81.4113 194.882 82.0121 195.049 82.6201 195.185C84.0942 195.458 85.6159 195.293 86.9975 194.711C88.3791 194.129 89.5602 193.155 90.3951 191.91C91.0401 190.93 91.2551 190.23 91.3051 190.25Z" fill="#455A64"/>
<path d="M89.36 189.45C89.0156 189.682 88.6331 189.851 88.23 189.95C87.2774 190.25 86.2882 190.418 85.29 190.45C84.2967 190.487 83.3021 190.428 82.32 190.275C81.9084 190.234 81.5036 190.142 81.115 190C81.115 189.905 82.985 190.265 85.28 190.18C86.2581 190.15 87.2302 190.016 88.18 189.78C88.905 189.585 89.345 189.41 89.36 189.45Z" fill="#455A64"/>
<path d="M67.38 190C67.0832 190.358 66.7363 190.671 66.35 190.93C65.4487 191.6 64.4572 192.138 63.405 192.53C62.3522 192.921 61.2499 193.164 60.13 193.25C59.6674 193.306 59.1991 193.294 58.74 193.215C58.74 193.17 59.27 193.165 60.11 193.06C62.3034 192.786 64.4025 192.004 66.24 190.775C66.6062 190.497 66.9867 190.238 67.38 190Z" fill="#455A64"/>
<path d="M64.7851 189.895C63.9075 190.159 62.9842 190.236 62.0751 190.12C61.1582 190.087 60.2579 189.866 59.4301 189.47C59.4301 189.39 60.6201 189.735 62.0951 189.85C63.5701 189.965 64.7751 189.815 64.7851 189.895Z" fill="#455A64"/>
<path d="M76.58 158.08C76.1622 158.332 75.7157 158.534 75.25 158.68C74.144 159.083 73.0022 159.379 71.84 159.565C70.6832 159.752 69.5112 159.827 68.34 159.79C67.8522 159.796 67.3655 159.744 66.89 159.635C67.372 159.591 67.8564 159.579 68.34 159.6C70.6713 159.569 72.9855 159.198 75.21 158.5C75.6571 158.33 76.1147 158.19 76.58 158.08Z" fill="#455A64"/>
<path d="M75.77 155.05C75.845 155.05 75.91 155.28 75.915 155.55C75.92 155.82 75.86 156.05 75.785 156.05C75.71 156.05 75.65 155.82 75.645 155.55C75.64 155.28 75.695 155.05 75.77 155.05Z" fill="#455A64"/>
<path d="M75.775 152.97C75.85 152.97 75.91 153.205 75.905 153.47C75.9 153.735 75.845 153.97 75.77 153.97C75.695 153.97 75.635 153.735 75.635 153.47C75.635 153.205 75.7 152.97 75.775 152.97Z" fill="#455A64"/>
<path d="M75.815 150.895C75.89 150.895 75.945 151.13 75.94 151.395C75.935 151.66 75.865 151.895 75.79 151.895C75.715 151.895 75.66 151.66 75.67 151.395C75.68 151.13 75.745 150.89 75.815 150.895Z" fill="#455A64"/>
<path d="M75.9 148.815C75.975 148.815 76.025 149.055 76.01 149.34C75.995 149.625 75.93 149.84 75.855 149.84C75.78 149.84 75.73 149.6 75.74 149.34C75.75 149.08 75.825 148.81 75.9 148.815Z" fill="#455A64"/>
<path d="M76.025 146.74C76.1 146.74 76.145 146.98 76.125 147.27C76.105 147.56 76.03 147.77 75.955 147.77C75.88 147.77 75.835 147.525 75.855 147.24C75.875 146.955 75.95 146.735 76.025 146.74Z" fill="#455A64"/>
<path d="M76.185 144.67C76.26 144.67 76.3 144.91 76.28 145.195C76.26 145.48 76.175 145.695 76.1 145.695C76.025 145.695 75.985 145.45 76.01 145.165C76.035 144.88 76.115 144.66 76.185 144.67Z" fill="#455A64"/>
<path d="M76.35 142.97C76.425 142.97 76.47 143.135 76.45 143.315C76.43 143.495 76.3601 143.64 76.2851 143.635C76.2101 143.63 76.165 143.47 76.185 143.29C76.205 143.11 76.275 142.965 76.35 142.97Z" fill="#455A64"/>
<path d="M59.635 232.53C59.71 232.53 59.725 232.785 59.665 233.07C59.605 233.355 59.505 233.57 59.43 233.57C59.355 233.57 59.345 233.315 59.4 233.035C59.455 232.755 59.565 232.5 59.635 232.53Z" fill="#455A64"/>
<path d="M60.045 230.5C60.115 230.5 60.1301 230.755 60.0751 231.035C60.0201 231.315 59.915 231.535 59.84 231.535C59.765 231.535 59.7551 231.28 59.8101 230.995C59.8651 230.71 59.97 230.5 60.045 230.5Z" fill="#455A64"/>
<path d="M60.45 228.455C60.525 228.455 60.54 228.71 60.48 228.99C60.42 229.27 60.32 229.49 60.25 229.49C60.18 229.49 60.16 229.235 60.215 228.955C60.27 228.675 60.38 228.44 60.45 228.455Z" fill="#455A64"/>
<path d="M60.86 226.415C60.935 226.415 60.945 226.67 60.89 226.955C60.835 227.24 60.73 227.455 60.655 227.455C60.58 227.455 60.57 227.2 60.625 226.92C60.68 226.64 60.785 226.405 60.86 226.415Z" fill="#455A64"/>
<path d="M61.265 224.38C61.34 224.38 61.355 224.635 61.3 224.915C61.245 225.195 61.135 225.415 61.065 225.415C60.995 225.415 60.975 225.16 61.035 224.875C61.095 224.59 61.195 224.365 61.265 224.38Z" fill="#455A64"/>
<path d="M61.6751 222.34C61.7501 222.34 61.7601 222.595 61.7051 222.875C61.6501 223.155 61.5451 223.375 61.4701 223.375C61.3951 223.375 61.3851 223.12 61.4401 222.84C61.4951 222.56 61.6001 222.325 61.6751 222.34Z" fill="#455A64"/>
<path d="M62.085 220.305C62.155 220.305 62.17 220.555 62.115 220.84C62.06 221.125 61.95 221.34 61.88 221.34C61.81 221.34 61.79 221.085 61.85 220.805C61.91 220.525 62 220.29 62.085 220.305Z" fill="#455A64"/>
<path d="M62.5 218.265C62.575 218.265 62.585 218.52 62.53 218.8C62.475 219.08 62.37 219.3 62.295 219.3C62.22 219.3 62.21 219.045 62.265 218.76C62.32 218.475 62.415 218.25 62.5 218.265Z" fill="#455A64"/>
<path d="M62.9 216.225C62.97 216.225 62.985 216.48 62.93 216.76C62.875 217.04 62.77 217.26 62.695 217.26C62.62 217.26 62.605 217.005 62.665 216.725C62.725 216.445 62.825 216.21 62.9 216.225Z" fill="#455A64"/>
<path d="M63.3051 214.19C63.3801 214.19 63.3951 214.44 63.3351 214.725C63.2751 215.01 63.1751 215.225 63.1001 215.225C63.0251 215.225 63.0151 214.97 63.0701 214.69C63.1251 214.41 63.2351 214.175 63.3051 214.19Z" fill="#455A64"/>
<path d="M63.715 212.15C63.785 212.15 63.8 212.405 63.745 212.685C63.69 212.965 63.585 213.185 63.51 213.185C63.435 213.185 63.425 212.93 63.48 212.645C63.535 212.36 63.64 212.135 63.715 212.15Z" fill="#455A64"/>
<path d="M64.12 210.11C64.195 210.11 64.21 210.365 64.15 210.645C64.09 210.925 63.99 211.145 63.92 211.145C63.85 211.145 63.83 210.89 63.885 210.61C63.94 210.33 64.05 210.095 64.12 210.11Z" fill="#455A64"/>
<path d="M64.53 208.075C64.6 208.075 64.615 208.33 64.56 208.61C64.505 208.89 64.4 209.11 64.325 209.11C64.25 209.11 64.24 208.855 64.295 208.575C64.35 208.295 64.455 208.06 64.53 208.075Z" fill="#455A64"/>
<path d="M64.9351 206.035C65.0101 206.035 65.0251 206.29 64.9701 206.57C64.9151 206.85 64.8051 207.07 64.7351 207.07C64.6651 207.07 64.6451 206.815 64.7001 206.535C64.7551 206.255 64.8651 206 64.9351 206.035Z" fill="#455A64"/>
<path d="M65.345 204C65.42 204 65.43 204.255 65.375 204.54C65.32 204.825 65.215 205.04 65.14 205.04C65.065 205.04 65.055 204.785 65.11 204.505C65.165 204.225 65.27 204 65.345 204Z" fill="#455A64"/>
<path d="M65.75 201.96C65.825 201.96 65.84 202.215 65.785 202.495C65.73 202.775 65.62 202.995 65.55 202.995C65.48 202.995 65.46 202.745 65.52 202.46C65.58 202.175 65.68 201.945 65.75 201.96Z" fill="#455A64"/>
<path d="M66.16 199.92C66.235 199.92 66.245 200.175 66.19 200.455C66.135 200.735 66.03 200.955 65.955 200.955C65.88 200.955 65.87 200.7 65.925 200.42C65.98 200.14 66.085 199.905 66.16 199.92Z" fill="#455A64"/>
<path d="M66.57 197.88C66.64 197.88 66.655 198.135 66.6 198.42C66.545 198.705 66.435 198.92 66.365 198.92C66.295 198.92 66.275 198.665 66.335 198.385C66.395 198.105 66.5 197.865 66.57 197.88Z" fill="#455A64"/>
<path d="M67 195.845C67.075 195.845 67.09 196.1 67.03 196.38C66.97 196.66 66.87 196.88 66.795 196.88C66.72 196.88 66.71 196.625 66.765 196.34C66.82 196.055 66.9 195.83 67 195.845Z" fill="#455A64"/>
<path d="M67.3851 193.805C67.4551 193.805 67.4701 194.06 67.4151 194.34C67.3601 194.62 67.2551 194.84 67.1801 194.84C67.1051 194.84 67.0901 194.585 67.1501 194.305C67.2101 194.025 67.3101 193.79 67.3851 193.805Z" fill="#455A64"/>
<path d="M67.79 191.765C67.865 191.765 67.88 192.02 67.82 192.305C67.76 192.59 67.66 192.805 67.585 192.805C67.51 192.805 67.5 192.55 67.555 192.27C67.61 191.99 67.72 191.75 67.79 191.765Z" fill="#455A64"/>
<path d="M68.2 189.73C68.27 189.73 68.285 189.985 68.23 190.265C68.175 190.545 68.07 190.765 67.995 190.765C67.92 190.765 67.91 190.51 67.965 190.225C68.02 189.94 68.125 189.715 68.2 189.73Z" fill="#455A64"/>
<path d="M68.605 187.69C68.68 187.69 68.695 187.945 68.635 188.225C68.575 188.505 68.475 188.725 68.405 188.725C68.335 188.725 68.315 188.47 68.37 188.19C68.425 187.91 68.535 187.675 68.605 187.69Z" fill="#455A64"/>
<path d="M69 185.65C69.075 185.65 69.085 185.905 69.03 186.19C68.975 186.475 68.87 186.69 68.795 186.69C68.72 186.69 68.71 186.435 68.765 186.155C68.82 185.875 68.94 185.635 69 185.65Z" fill="#455A64"/>
<path d="M69.4201 183.615C69.4951 183.615 69.5101 183.87 69.4551 184.15C69.4001 184.43 69.2901 184.65 69.2201 184.65C69.1501 184.65 69.1301 184.395 69.1851 184.11C69.2401 183.825 69.3501 183.6 69.4201 183.615Z" fill="#455A64"/>
<path d="M69.83 181.575C69.905 181.575 69.915 181.83 69.86 182.11C69.805 182.39 69.7 182.61 69.625 182.61C69.55 182.61 69.54 182.355 69.595 182.075C69.65 181.795 69.755 181.56 69.83 181.575Z" fill="#455A64"/>
<path d="M70.24 179.535C70.31 179.535 70.325 179.79 70.27 180.075C70.215 180.36 70.105 180.575 70.035 180.575C69.965 180.575 69.945 180.32 70.005 180.04C70.065 179.76 70.165 179.525 70.24 179.535Z" fill="#455A64"/>
<path d="M70.645 177.5C70.72 177.5 70.73 177.755 70.675 178.035C70.62 178.315 70.515 178.535 70.44 178.535C70.365 178.535 70.355 178.28 70.41 177.995C70.465 177.71 70.57 177.5 70.645 177.5Z" fill="#455A64"/>
<path d="M71.055 175.46C71.125 175.46 71.14 175.715 71.085 175.995C71.03 176.275 70.92 176.495 70.85 176.495C70.78 176.495 70.76 176.24 70.82 175.96C70.88 175.68 71 175.445 71.055 175.46Z" fill="#455A64"/>
<path d="M71.46 173.425C71.535 173.425 71.55 173.675 71.49 173.96C71.43 174.245 71.33 174.46 71.255 174.46C71.18 174.46 71.17 174.205 71.225 173.925C71.28 173.645 71.39 173.41 71.46 173.425Z" fill="#455A64"/>
<path d="M71.87 171.385C71.94 171.385 71.955 171.64 71.9 171.92C71.845 172.2 71.74 172.42 71.665 172.42C71.59 172.42 71.58 172.165 71.635 171.88C71.69 171.595 71.795 171.37 71.87 171.385Z" fill="#455A64"/>
<path d="M72.275 169.345C72.35 169.345 72.365 169.6 72.305 169.88C72.245 170.16 72.145 170.38 72.07 170.38C71.995 170.38 71.985 170.125 72.04 169.845C72.095 169.565 72.205 169.33 72.275 169.345Z" fill="#455A64"/>
<path d="M72.6851 167.31C72.7551 167.31 72.7701 167.565 72.7151 167.845C72.6601 168.125 72.5551 168.345 72.4801 168.345C72.4051 168.345 72.3951 168.09 72.4501 167.81C72.5051 167.53 72.6101 167.295 72.6851 167.31Z" fill="#455A64"/>
<path d="M73.09 165.27C73.165 165.27 73.18 165.525 73.125 165.805C73.07 166.085 72.96 166.305 72.89 166.305C72.82 166.305 72.8 166.05 72.855 165.77C72.91 165.49 73 165.255 73.09 165.27Z" fill="#455A64"/>
<path d="M73.5 163.23C73.575 163.23 73.585 163.485 73.53 163.765C73.475 164.045 73.37 164.265 73.295 164.265C73.22 164.265 73.21 164.01 73.265 163.73C73.32 163.45 73.425 163.215 73.5 163.23Z" fill="#455A64"/>
<path d="M73.905 161.195C73.98 161.195 73.9951 161.45 73.9401 161.73C73.8851 162.01 73.7751 162.23 73.7051 162.23C73.6351 162.23 73.6151 161.98 73.6751 161.695C73.7351 161.41 73.835 161.18 73.905 161.195Z" fill="#455A64"/>
<path d="M74.3151 159.155C74.3901 159.155 74.4001 159.41 74.3451 159.69C74.2901 159.97 74.1851 160.19 74.1101 160.19C74.0351 160.19 74.0251 159.935 74.0801 159.655C74.1351 159.375 74.2401 159.14 74.3151 159.155Z" fill="#455A64"/>
<path d="M115.07 96.295C115.07 96.295 118.53 91.11 118.625 91.065C118.625 91.065 121.745 85.805 122.785 85.805C123.825 85.805 123.45 86.87 122.375 88.755C121.86 89.5748 121.509 90.4866 121.34 91.44L123.905 92.985C123.905 92.985 125.62 92.325 125.69 93.92C125.665 94.6514 125.566 95.3784 125.395 96.09C125.29 96.66 125.035 97.265 124.495 97.05C124.361 97.0054 124.245 96.9194 124.163 96.8043C124.081 96.6893 124.038 96.5512 124.04 96.41C124.005 95.465 124.18 95.115 124.04 95.115C123.9 95.115 122.195 100.07 122.195 100.07L115.07 96.295Z" fill="#FFBE9D"/>
<path d="M122.055 92.225C122.313 92.0317 122.589 91.8642 122.88 91.725C123.171 91.5883 123.496 91.538 123.815 91.58C123.935 91.5907 124.051 91.6301 124.153 91.6949C124.255 91.7596 124.34 91.8478 124.4 91.9522C124.461 92.0565 124.496 92.1738 124.502 92.2944C124.508 92.4149 124.485 92.5351 124.435 92.645C124.333 92.9015 124.189 93.1396 124.01 93.35" fill="#FFBE9D"/>
<path d="M120.885 91.18C121.13 91.0014 121.391 90.8457 121.665 90.715C121.941 90.5867 122.248 90.5399 122.55 90.58C122.743 90.6008 122.922 90.6937 123.05 90.84C123.126 90.946 123.174 91.069 123.19 91.1981C123.207 91.3272 123.191 91.4584 123.145 91.58C122.912 91.9482 122.644 92.2931 122.345 92.61" fill="#FFBE9D"/>
<path d="M116.28 93.37L111.28 104.06L116.78 109.695L119.65 101.725C119.65 101.725 121.19 102.03 121.82 101.01C122.52 99.87 123.44 96.58 123.44 96.58L116.28 93.37Z" fill="#FFBE9D"/>
<path d="M119.85 93.075C119.89 92.5268 120.096 92.0038 120.44 91.575C120.668 91.2619 120.961 91.0025 121.3 90.815C121.555 90.68 121.73 90.63 121.745 90.66C121.76 90.69 121.145 91.06 120.66 91.735C120.175 92.41 119.935 93.11 119.85 93.075Z" fill="#EB996E"/>
<path d="M125.395 93.12C125.395 93.155 125.2 93.06 124.895 93.01C124.523 92.9419 124.139 93.0019 123.805 93.18C123.48 93.3914 123.205 93.6713 123 94C122.825 94.25 122.705 94.405 122.67 94.385C122.635 94.365 122.695 94.185 122.84 93.885C123.023 93.4941 123.317 93.1655 123.685 92.94C123.878 92.8359 124.09 92.772 124.308 92.7523C124.527 92.7325 124.747 92.7572 124.955 92.825C125.275 92.935 125.415 93.095 125.395 93.12Z" fill="#EB996E"/>
<path d="M123.535 91.61C123.122 91.8022 122.729 92.0332 122.36 92.3C121.8 92.8 121.525 93.375 121.45 93.34C121.521 92.8469 121.783 92.4016 122.18 92.1C122.44 91.8589 122.756 91.6869 123.1 91.6C123.365 91.56 123.53 91.58 123.535 91.61Z" fill="#EB996E"/>
<path d="M124.765 93.92C124.835 93.895 124.965 94.31 124.7 94.72C124.435 95.13 124.01 95.22 124.005 95.125C124 95.03 124.275 94.905 124.475 94.58C124.675 94.255 124.685 93.93 124.765 93.92Z" fill="#EB996E"/>
<path d="M115.085 96.09C115.085 96.09 114.91 92.9 115.68 92.175C116.45 91.45 118.68 92.205 118.68 92.205" fill="#FFBE9D"/>
<path d="M119 90.685C118.695 91.3353 118.311 91.945 117.855 92.5C117.471 93.107 117.015 93.6645 116.495 94.16C117.177 92.9002 118.017 91.7324 118.995 90.685H119Z" fill="#EB996E"/>
<path d="M74.715 66.5L74.64 91.395L85.32 91.895L85.63 85.84C85.63 85.84 89.425 86.595 90.4 83.07C91.03 80.82 90.87 63.425 90.87 63.425L74.715 66.5Z" fill="#FFBE9D"/>
<path d="M92.275 65.18C90.595 65.68 90.23 68.415 90.23 68.415L87.59 74.24C86.245 73.19 84.44 73.24 84.09 75.615C83.84 77.32 85.965 77.665 85.965 77.665C84.73 79.77 83.89 81.47 82.09 83.47C80.145 85.635 79.055 85.85 76.94 85.885H74.615C74.615 85.885 73.475 82.185 71.365 72.935C69.02 62.67 81.16 63.99 83.41 61.37C87.085 57.105 97.58 63.665 92.275 65.18Z" fill="#263238"/>
<path d="M71.595 73.9C69.625 72.58 69.45 68.9 70.595 66.665C71.1836 65.5586 72.0539 64.6272 73.1181 63.9652C74.1822 63.3032 75.4023 62.934 76.655 62.895C76.9922 62.9174 77.3307 62.8802 77.655 62.785C78.0922 62.5537 78.4586 62.2081 78.715 61.785C80.475 59.5 82.215 57.255 85.48 57.255C86.2005 57.2189 86.9161 57.3926 87.54 57.755C88.1217 58.1512 88.5573 58.7273 88.78 59.395C89.3802 59.0704 90.0257 58.8378 90.695 58.705C91.0304 58.6391 91.3761 58.6465 91.7084 58.7268C92.0406 58.8071 92.3516 58.9583 92.62 59.17C92.8796 59.3927 93.052 59.7001 93.1069 60.0377C93.1618 60.3753 93.0956 60.7215 92.92 61.015C93.4746 61.0071 94.0138 61.1979 94.4402 61.5527C94.8665 61.9076 95.152 62.4031 95.245 62.95C95.42 64.045 93.855 64.815 93.69 64.9C93.69 64.9 94.55 66.7 92.5 67.78C91.675 68.21 90.6 67.69 90.5 67.625" fill="#263238"/>
<path d="M79.395 76.295C79.5393 76.9195 79.5186 77.5709 79.335 78.185C79.235 78.8181 78.9751 79.4152 78.58 79.92C78.505 79.885 78.85 79.12 79.08 78.125C79.31 77.13 79.315 76.295 79.395 76.295Z" fill="#455A64"/>
<path d="M80.685 75.075C80.7785 75.682 80.7444 76.3019 80.585 76.895C80.5133 77.5043 80.323 78.0937 80.025 78.63C80.066 78.0269 80.1648 77.4292 80.32 76.845C80.3885 76.2453 80.5107 75.6529 80.685 75.075Z" fill="#455A64"/>
<path d="M84.385 70.965C84.385 71 84.11 71.22 83.725 71.67C83.2295 72.2656 82.8405 72.9422 82.575 73.67C82.3087 74.3988 82.0948 75.1457 81.935 75.905C81.8892 76.2304 81.8 76.5482 81.67 76.85C81.646 76.5148 81.6713 76.1779 81.745 75.85C81.8529 75.0648 82.0456 74.2936 82.32 73.55C82.6004 72.8038 83.031 72.1231 83.585 71.55C83.7984 71.291 84.0735 71.0898 84.385 70.965Z" fill="#455A64"/>
<path d="M85.88 68.165C86.0028 68.3701 86.0748 68.6015 86.09 68.84C86.2455 69.9862 85.9537 71.1483 85.275 72.085C85.015 72.435 84.775 72.585 84.775 72.585C85.1814 71.926 85.5039 71.2189 85.735 70.48C85.8803 69.7175 85.929 68.9397 85.88 68.165Z" fill="#455A64"/>
<path d="M73.135 74.385C73.095 74.45 72.77 74.335 72.4 74.13C72.03 73.925 71.765 73.71 71.805 73.63C71.845 73.55 72.165 73.675 72.535 73.88C72.905 74.085 73.17 74.32 73.135 74.385Z" fill="#455A64"/>
<path d="M78.295 71.725C78.3383 72.1126 78.2289 72.5017 77.99 72.81C77.66 73.36 77.215 73.64 77.17 73.585C77.125 73.53 77.455 73.175 77.755 72.67C78.055 72.165 78.215 71.71 78.295 71.725Z" fill="#455A64"/>
<path d="M79.88 70.875C79.8686 71.3472 79.7016 71.8024 79.405 72.17C78.975 72.82 78.44 73.17 78.405 73.11C78.6454 72.7318 78.9075 72.3679 79.19 72.02C79.3961 71.6244 79.6265 71.242 79.88 70.875Z" fill="#455A64"/>
<path d="M87.77 60.45C87.77 60.45 87.565 60.295 87.18 60.075C86.6275 59.784 86.0144 59.6265 85.39 59.615C84.4653 59.5913 83.5535 59.8362 82.765 60.32C81.8142 60.9435 81.0435 61.8055 80.53 62.82C80.142 63.5626 79.8368 64.3456 79.62 65.155L79.58 65.31L79.435 65.235C78.7001 64.8489 77.8851 64.64 77.055 64.625C76.3961 64.6091 75.7395 64.709 75.115 64.92C74.5599 65.1257 74.0285 65.3906 73.53 65.71C73.6327 65.5885 73.7522 65.4825 73.885 65.395C74.2468 65.1335 74.642 64.9216 75.06 64.765C75.6989 64.523 76.3769 64.401 77.06 64.405C77.9292 64.4035 78.7862 64.6092 79.56 65.005L79.37 65.09C79.5839 64.2574 79.8926 63.4522 80.29 62.69C80.8304 61.638 81.6416 60.7491 82.64 60.115C83.4716 59.6177 84.4324 59.3793 85.4 59.43C86.0496 59.4606 86.6808 59.6549 87.235 59.995C87.3819 60.0898 87.5192 60.1986 87.645 60.32C87.735 60.395 87.775 60.44 87.77 60.45Z" fill="#455A64"/>
<path d="M93.385 61.805C93.385 61.805 93.68 61.725 94 62.08C94.1797 62.2984 94.2676 62.5781 94.245 62.86C94.2169 63.0454 94.1463 63.2217 94.0388 63.3752C93.9312 63.5288 93.7896 63.6553 93.625 63.745C93.2309 63.9699 92.7653 64.0343 92.325 63.925C91.8389 63.8014 91.383 63.5803 90.985 63.275C90.5668 62.9505 90.1293 62.6516 89.675 62.38C89.1825 62.1131 88.651 61.9258 88.1 61.825C87.0248 61.634 85.9192 61.7096 84.88 62.045C84.0298 62.3251 83.2272 62.7331 82.5 63.255C81.8365 63.7571 81.2006 64.2945 80.595 64.865C80.7138 64.6712 80.8566 64.4932 81.02 64.335C81.4376 63.8839 81.8944 63.4706 82.385 63.1C83.1147 62.5419 83.9303 62.1062 84.8 61.81C85.8774 61.444 87.0302 61.358 88.15 61.56C88.7291 61.6663 89.2877 61.8638 89.805 62.145C90.2666 62.4256 90.7092 62.7363 91.13 63.075C91.5002 63.3638 91.923 63.5777 92.375 63.705C92.7617 63.8136 93.1754 63.7688 93.53 63.58C93.6743 63.5078 93.8002 63.4036 93.8981 63.2754C93.996 63.1471 94.0633 62.9982 94.095 62.84C94.1266 62.5938 94.0621 62.3449 93.915 62.145C93.7832 61.9735 93.5958 61.8533 93.385 61.805Z" fill="#455A64"/>
<path d="M63.345 94L53.805 110C52.735 111.87 51.75 113.86 50.805 115.925C50.4454 116.961 50.3485 118.071 50.5231 119.154C50.6976 120.236 51.1381 121.259 51.805 122.13L51.535 121.74C52.0578 122.386 52.7184 122.907 53.4684 123.265C54.2184 123.624 55.0389 123.81 55.87 123.81H56.12C57.2047 123.809 58.2656 123.492 59.1725 122.897C60.0793 122.302 60.7927 121.455 61.225 120.46L64.29 115.81L63.345 94Z" fill="#18A0A0"/>
<path d="M92.13 90.94C89.57 89.63 87.04 89.335 84.28 89.255C81.07 89.16 76.54 88.71 73.075 89.08C73.075 89.08 63.215 89.81 62.53 96.58L63.875 128.33L61.615 141.78L93.23 142.735L93 126.855C93.39 118.6 92.56 106.905 92.56 106.905C93.06 102.465 95.475 100.47 95.82 97.58C96.125 95.03 94.415 92.105 92.13 90.94Z" fill="#18A0A0"/>
<path d="M83.22 128.775C83.0842 128.941 82.928 129.089 82.755 129.215C82.3044 129.589 81.8227 129.923 81.315 130.215C79.631 131.183 77.7294 131.708 75.7876 131.742C73.8457 131.776 71.9269 131.318 70.21 130.41C69.6929 130.14 69.1994 129.828 68.735 129.475C68.5518 129.354 68.384 129.211 68.235 129.05C68.265 129.005 68.965 129.6 70.275 130.24C71.9793 131.082 73.8605 131.504 75.7612 131.47C77.6619 131.436 79.5268 130.947 81.2 130.045C82.5 129.35 83.185 128.735 83.22 128.775Z" fill="#263238"/>
<path d="M62.5 96.93C62.5229 97.0317 62.5346 97.1357 62.535 97.24C62.535 97.475 62.57 97.765 62.59 98.13C62.625 98.935 62.68 100.04 62.74 101.39C62.86 104.18 63.015 107.975 63.19 112.165C63.365 116.355 63.555 120.165 63.69 122.935C63.76 124.285 63.815 125.39 63.855 126.195C63.855 126.56 63.885 126.85 63.895 127.085C63.9069 127.188 63.9069 127.292 63.895 127.395C63.8671 127.295 63.8503 127.193 63.845 127.09C63.82 126.855 63.79 126.565 63.755 126.205C63.68 125.435 63.6 124.32 63.505 122.945C63.315 120.19 63.115 116.385 62.935 112.175C62.755 107.965 62.635 104.175 62.565 101.4C62.565 100.045 62.515 98.94 62.5 98.13C62.5 97.77 62.5 97.475 62.5 97.245C62.4883 97.1403 62.4883 97.0347 62.5 96.93Z" fill="#263238"/>
<path d="M60.5 98.615C60.4759 98.7017 60.4388 98.7843 60.39 98.86L60.035 99.545C59.715 100.135 59.24 100.98 58.63 102.01C57.43 104.085 55.63 106.865 53.805 110.01C52.89 111.59 52.12 113.15 51.45 114.575C50.8179 115.812 50.5018 117.186 50.53 118.575C50.578 119.511 50.8288 120.425 51.265 121.255C51.575 121.84 51.835 122.11 51.81 122.13C51.7402 122.073 51.6765 122.01 51.62 121.94C51.4532 121.741 51.3028 121.528 51.17 121.305C50.6868 120.475 50.4027 119.544 50.34 118.585C50.2799 117.159 50.5827 115.742 51.22 114.465C51.885 113.02 52.65 111.465 53.57 109.865C55.4 106.695 57.225 103.94 58.465 101.865C59.075 100.865 59.575 100.055 59.94 99.445C60.105 99.185 60.235 98.945 60.345 98.79C60.455 98.635 60.5 98.61 60.5 98.615Z" fill="#263238"/>
<path d="M118.65 107.33L111.335 102.545L106.715 110.545C106.715 110.545 100.315 101.65 97.41 96.44C94.73 91.64 91.27 90.35 89.6 90C89.4853 89.9763 89.3666 89.9801 89.2537 90.0112C89.1408 90.0423 89.0369 90.0997 88.9505 90.1788C88.8641 90.2578 88.7977 90.3563 88.7567 90.466C88.7158 90.5758 88.7015 90.6937 88.715 90.81L91.215 108.11C91.535 109.01 96.815 116.665 99.765 120.515C104.69 126.945 111.945 122.83 113.935 118.33C115.54 114.755 118 109.33 118.65 107.33Z" fill="#18A0A0"/>
<path d="M108.82 117.76C108.729 117.387 108.682 117.004 108.68 116.62C108.619 115.705 108.501 114.795 108.325 113.895C108.145 113.001 107.829 112.139 107.39 111.34C107.05 110.735 106.755 110.405 106.79 110.375C107.104 110.605 107.365 110.9 107.555 111.24C108.056 112.036 108.407 112.917 108.59 113.84C108.773 114.752 108.866 115.68 108.87 116.61C108.902 116.994 108.885 117.38 108.82 117.76Z" fill="#263238"/>
<path d="M110.96 114.185C110.915 114.185 110.88 113.815 110.7 113.25C110.462 112.517 110.062 111.848 109.53 111.29C109.038 110.704 108.344 110.323 107.585 110.225C107.27 110.227 106.957 110.281 106.66 110.385C106.63 110.385 106.935 110.055 107.59 110.035C108 110.057 108.401 110.163 108.768 110.346C109.135 110.529 109.461 110.786 109.725 111.1C110.289 111.685 110.689 112.407 110.885 113.195C110.988 113.514 111.014 113.854 110.96 114.185Z" fill="#263238"/>
<path d="M89.1251 92.135C89.0733 92.2086 89.0128 92.2758 88.9451 92.335L88.7201 92.565C88.6401 92.67 88.5451 92.78 88.4401 92.905C87.8625 93.635 87.4328 94.4706 87.1751 95.365C86.7903 96.6893 86.6965 98.0811 86.9001 99.445C87.0024 100.25 87.2126 101.037 87.5251 101.785C87.8799 102.588 88.2755 103.372 88.7101 104.135C90.5001 107.28 92.3451 110 93.6751 111.965C94.3351 112.915 94.8801 113.695 95.2851 114.27C95.4926 114.545 95.6861 114.83 95.8651 115.125C95.8651 115.125 95.7951 115.065 95.6801 114.93C95.5651 114.795 95.4001 114.6 95.1801 114.335C94.7651 113.835 94.1801 113.04 93.5001 112.075C91.7042 109.557 90.0354 106.95 88.5001 104.265C88.0591 103.495 87.6602 102.703 87.3051 101.89C86.981 101.126 86.7607 100.322 86.6501 99.5C86.4561 98.0999 86.5739 96.6743 86.9951 95.325C87.2736 94.4158 87.7384 93.5746 88.3601 92.855L88.6651 92.53L88.9101 92.315C89.0451 92.18 89.1151 92.125 89.1251 92.135Z" fill="#263238"/>
<path d="M89.14 138.095C89.0718 138.137 88.9977 138.169 88.92 138.19L88.26 138.42C87.975 138.52 87.625 138.63 87.21 138.74C86.795 138.85 86.325 139 85.8 139.11C84.5681 139.405 83.3214 139.633 82.065 139.795C78.9838 140.198 75.8638 140.208 72.78 139.825C71.5246 139.667 70.278 139.445 69.045 139.16C68.515 139.05 68.045 138.91 67.63 138.795C67.215 138.68 66.865 138.58 66.575 138.48L65.92 138.255C65.77 138.205 65.69 138.17 65.695 138.16C65.7763 138.168 65.8566 138.183 65.935 138.205L66.605 138.38C66.895 138.46 67.25 138.555 67.67 138.65C68.09 138.745 68.555 138.875 69.085 138.97C70.135 139.2 71.4 139.405 72.81 139.575C74.3426 139.743 75.8832 139.829 77.425 139.83C78.9656 139.818 80.5044 139.725 82.035 139.55C83.445 139.375 84.705 139.16 85.755 138.925C86.285 138.825 86.755 138.695 87.17 138.595C87.585 138.495 87.94 138.4 88.23 138.32L88.9 138.14C88.977 138.112 89.0581 138.096 89.14 138.095Z" fill="#263238"/>
<g opacity="0.3">
<path d="M61.91 119.455L63.335 117.24L62.59 99.795L61.91 119.455Z" fill="black"/>
</g>
<g opacity="0.3">
<path d="M86.5651 98.615C86.5651 98.615 86.6101 104.97 88.0651 107.49C89.5201 110.01 93.0001 115.45 93.0001 115.125C93.0001 114.8 92.8051 110.625 92.8051 110.625C92.8051 110.625 86.5951 102.17 86.5651 98.615Z" fill="black"/>
</g>
<path d="M60.645 120C60.5054 120.079 60.3499 120.125 60.19 120.135C59.7526 120.183 59.3102 120.124 58.9 119.965C58.2939 119.734 57.7484 119.368 57.305 118.895C56.7801 118.313 56.3315 117.666 55.97 116.97C55.6174 116.28 55.2234 115.612 54.79 114.97C54.4309 114.464 53.9899 114.021 53.485 113.66C53.0074 113.344 52.4694 113.131 51.905 113.035C52.07 113.001 52.2401 113.001 52.405 113.035C52.836 113.105 53.2478 113.264 53.615 113.5C54.1527 113.856 54.6247 114.303 55.01 114.82C55.4577 115.459 55.8619 116.127 56.22 116.82C56.5718 117.498 57.0014 118.132 57.5 118.71C57.9189 119.167 58.4302 119.53 59 119.775C59.5195 119.992 60.0865 120.069 60.645 120Z" fill="white"/>
<path d="M62.58 109.03C62.535 109.03 62.425 108.65 62.12 108.09C61.7206 107.36 61.171 106.723 60.5073 106.222C59.8436 105.72 59.0811 105.365 58.27 105.18C57.645 105.04 57.24 105.04 57.24 104.995C57.5893 104.919 57.9507 104.919 58.3 104.995C59.159 105.136 59.9713 105.482 60.6677 106.005C61.3642 106.527 61.9241 107.21 62.3 107.995C62.4671 108.316 62.5626 108.669 62.58 109.03Z" fill="white"/>
<path d="M86.68 99.665C86.68 99.665 86.335 99.6 85.715 99.55C84.838 99.4895 83.957 99.5688 83.105 99.785C81.8396 100.116 80.6202 100.603 79.475 101.235C78.165 101.92 76.78 102.79 75.21 103.51C73.7337 104.199 72.141 104.604 70.515 104.705C69.1891 104.782 67.8592 104.659 66.57 104.34C65.7042 104.13 64.8654 103.821 64.07 103.42C63.785 103.285 63.57 103.15 63.435 103.07C63.3 102.99 63.22 102.935 63.225 102.925C63.23 102.915 63.545 103.075 64.115 103.325C64.9182 103.686 65.7557 103.966 66.615 104.16C67.8885 104.448 69.197 104.551 70.5 104.465C72.0944 104.351 73.6547 103.947 75.105 103.275C76.65 102.565 78.04 101.705 79.365 101.025C80.5277 100.39 81.7705 99.914 83.06 99.61C83.9321 99.4016 84.8341 99.3474 85.725 99.45C85.9662 99.478 86.2051 99.5231 86.44 99.585C86.5235 99.5996 86.6044 99.6266 86.68 99.665Z" fill="white"/>
<path d="M92.825 116.965C92.7343 117.008 92.6386 117.04 92.54 117.06C92.261 117.147 91.9772 117.217 91.69 117.27C90.6388 117.481 89.5663 117.567 88.495 117.525C86.9072 117.459 85.3298 117.238 83.785 116.865C82.035 116.465 80.155 115.89 78.18 115.31C76.3309 114.75 74.4422 114.33 72.53 114.055C70.972 113.831 69.391 113.82 67.83 114.02C66.7774 114.156 65.7491 114.439 64.775 114.86C64.09 115.16 63.725 115.36 63.715 115.36C63.7906 115.293 63.8746 115.236 63.965 115.19C64.145 115.1 64.385 114.925 64.735 114.775C65.707 114.316 66.7415 114.002 67.805 113.845C69.3824 113.626 70.9826 113.626 72.56 113.845C74.4868 114.108 76.3895 114.524 78.25 115.09C80.25 115.67 82.105 116.25 83.84 116.66C85.3672 117.044 86.9276 117.282 88.5 117.37C89.5613 117.427 90.6257 117.37 91.675 117.2C92.415 117.045 92.82 116.94 92.825 116.965Z" fill="white"/>
<path d="M93 126.855C91.6812 126.264 90.2771 125.886 88.84 125.735C87.279 125.61 85.7088 125.664 84.16 125.895C82.405 126.135 80.495 126.535 78.48 126.895C76.465 127.255 74.535 127.605 72.755 127.76C71.1818 127.92 69.596 127.91 68.025 127.73C66.9644 127.604 65.9222 127.354 64.92 126.985C64.565 126.865 64.305 126.72 64.125 126.645C64.0297 126.609 63.939 126.562 63.855 126.505C63.855 126.48 64.245 126.65 64.955 126.89C65.9592 127.216 66.9949 127.435 68.045 127.545C69.6041 127.707 71.1759 127.707 72.735 127.545C74.495 127.38 76.42 127.045 78.435 126.665C80.45 126.285 82.36 125.89 84.13 125.665C85.6964 125.438 87.2847 125.401 88.86 125.555C89.9229 125.67 90.9646 125.932 91.955 126.335C92.2241 126.444 92.4862 126.569 92.74 126.71C92.8316 126.749 92.9187 126.798 93 126.855Z" fill="white"/>
<path d="M76.75 139.605C76.5719 139.519 76.4042 139.414 76.25 139.29C75.94 139.07 75.49 138.76 74.925 138.39C73.4599 137.42 71.9334 136.547 70.355 135.775C68.7713 135.004 67.1396 134.336 65.47 133.775C64.83 133.56 64.31 133.4 63.97 133.275C63.7773 133.232 63.5907 133.165 63.415 133.075C63.6113 133.088 63.8057 133.122 63.995 133.175C64.37 133.255 64.9 133.395 65.55 133.585C68.9467 134.601 72.1554 136.163 75.05 138.21C75.605 138.6 76.05 138.935 76.33 139.18C76.4865 139.304 76.6275 139.447 76.75 139.605Z" fill="white"/>
<path d="M92.14 139.435C91.8247 139.672 91.4689 139.85 91.09 139.96C89.2745 140.605 87.2828 140.545 85.51 139.79C85.1454 139.652 84.8071 139.452 84.51 139.2C84.8785 139.322 85.2407 139.462 85.595 139.62C86.4697 139.922 87.385 140.091 88.31 140.12C89.2362 140.144 90.1606 140.025 91.05 139.765C91.715 139.585 92.12 139.395 92.14 139.435Z" fill="white"/>
<path d="M103.085 106.425C103.095 106.576 103.075 106.727 103.025 106.87C102.906 107.265 102.707 107.631 102.44 107.945C102.044 108.407 101.568 108.793 101.035 109.085C100.389 109.43 99.7212 109.73 99.035 109.985C98.3623 110.237 97.7239 110.573 97.135 110.985C96.666 111.329 96.2799 111.773 96.005 112.285C95.7586 112.763 95.648 113.299 95.685 113.835C95.6135 113.701 95.579 113.551 95.585 113.4C95.569 112.985 95.6566 112.573 95.84 112.2C96.106 111.648 96.4983 111.167 96.985 110.795C97.5843 110.359 98.2404 110.008 98.935 109.75C99.6171 109.497 100.285 109.206 100.935 108.88C101.449 108.608 101.915 108.253 102.315 107.83C102.665 107.419 102.928 106.941 103.085 106.425Z" fill="white"/>
<path d="M96.94 95.815C96.9349 95.9701 96.9063 96.1235 96.855 96.27C96.8165 96.4405 96.7647 96.6077 96.7 96.77C96.6281 96.9981 96.543 97.2218 96.445 97.44C96.1969 98.0136 95.8956 98.5627 95.545 99.08C95.1048 99.709 94.6023 100.292 94.045 100.82C93.4842 101.342 92.8709 101.804 92.215 102.2C91.6783 102.52 91.1124 102.787 90.525 103C90.3008 103.084 90.0721 103.156 89.84 103.215C89.6764 103.267 89.5093 103.307 89.34 103.335C89.19 103.375 89.0353 103.396 88.88 103.395C88.88 103.345 89.515 103.22 90.485 102.825C91.0448 102.594 91.5849 102.318 92.1 102C93.3745 101.208 94.4778 100.169 95.345 98.945C95.6998 98.4478 96.011 97.9208 96.275 97.37C96.73 96.435 96.89 95.8 96.94 95.815Z" fill="white"/>
<path d="M87.315 89.255C87.0823 89.3823 86.8398 89.4909 86.59 89.58C86.12 89.78 85.42 90.03 84.545 90.305C83.67 90.58 82.615 90.85 81.425 91.095C78.8419 91.609 76.2053 91.8021 73.575 91.67C72.5018 91.6169 71.432 91.5084 70.37 91.345C69.465 91.2 68.74 91.055 68.24 90.925C67.9789 90.8769 67.7229 90.8049 67.475 90.71C67.7411 90.7283 68.0054 90.7685 68.265 90.83C68.765 90.925 69.495 91.045 70.395 91.16C71.295 91.275 72.395 91.38 73.585 91.43C74.8902 91.4769 76.197 91.4552 77.5 91.365C78.8011 91.2654 80.0961 91.0985 81.38 90.865C82.56 90.635 83.62 90.365 84.495 90.13C85.37 89.895 86.075 89.66 86.555 89.49C86.8015 89.391 87.0556 89.3124 87.315 89.255Z" fill="white"/>
<path d="M106.96 111C107.046 111.156 107.107 111.325 107.14 111.5C107.26 111.973 107.332 112.457 107.355 112.945C107.373 114.554 107.205 116.16 106.855 117.73C106.718 118.608 106.49 119.469 106.175 120.3C105.91 120.984 105.516 121.61 105.015 122.145C104.678 122.507 104.274 122.801 103.825 123.01C103.67 123.095 103.5 123.149 103.325 123.17C103.915 122.89 104.446 122.499 104.89 122.02C105.355 121.487 105.719 120.873 105.965 120.21C106.259 119.389 106.475 118.542 106.61 117.68C106.951 116.127 107.14 114.545 107.175 112.955C107.141 112.3 107.069 111.647 106.96 111Z" fill="white"/>
<path d="M117 112.3C116.955 112.3 116.72 111.8 116.2 111.03C115.51 110.043 114.654 109.184 113.67 108.49C112.681 107.803 111.58 107.295 110.415 106.99C109.52 106.76 108.915 106.72 108.945 106.675C109.08 106.649 109.22 106.649 109.355 106.675C109.725 106.694 110.093 106.744 110.455 106.825C110.998 106.941 111.529 107.108 112.04 107.325C113.297 107.845 114.425 108.633 115.345 109.635C115.717 110.042 116.052 110.482 116.345 110.95C116.541 111.268 116.708 111.602 116.845 111.95C116.914 112.058 116.966 112.176 117 112.3Z" fill="white"/>
<g opacity="0.3">
<path d="M87.605 138.5C87.7247 138.441 87.8303 138.357 87.9145 138.254C87.9986 138.15 88.0594 138.03 88.0927 137.9C88.1259 137.771 88.1308 137.636 88.1071 137.505C88.0833 137.374 88.0314 137.249 87.955 137.14C87.7685 136.953 87.5419 136.811 87.2925 136.724C87.0431 136.638 86.7772 136.609 86.515 136.64C83.93 136.69 81.675 138.42 79.135 138.885C77.205 139.235 75.21 138.84 73.33 138.27C71.45 137.7 69.615 136.955 67.685 136.59C67.2859 136.488 66.8687 136.477 66.465 136.56C66.2633 136.604 66.0789 136.707 65.9342 136.854C65.7895 137.001 65.6908 137.188 65.65 137.39C65.6 137.795 65.695 138.1 66.305 138.305C66.305 138.305 72.7 140.085 77.305 140.015C80.7824 139.877 84.2351 139.369 87.605 138.5Z" fill="black"/>
</g>
<path d="M220.845 211.885H185.965V216.68H220.845V211.885Z" fill="#263238"/>
<path d="M220.905 216.74H185.905V211.825H220.905V216.74ZM186.025 216.62H220.785V211.945H186.025V216.62Z" fill="#263238"/>
<path d="M189.2 215.085L194.22 239.85H212.8L217.65 216.68L189.2 215.085Z" fill="#263238"/>
<path d="M189.2 237.51L191.88 241.19H214.46L217.65 237.51H189.2Z" fill="#455A64"/>
<path d="M202.095 215.805C202.03 215.805 201.94 204.33 201.9 190.18C201.86 176.03 201.9 164.55 201.955 164.55C202.01 164.55 202.11 176.02 202.15 190.18C202.19 204.34 202.165 215.805 202.095 215.805Z" fill="#263238"/>
<path d="M209.865 187.09C209.846 187.182 209.816 187.271 209.775 187.355C209.69 187.55 209.59 187.8 209.46 188.1L209.235 188.635C209.16 188.835 209.085 189.055 209 189.285C208.915 189.515 208.83 189.785 208.735 190.035C208.64 190.285 208.565 190.585 208.475 190.885C208.06 192.286 207.735 193.713 207.5 195.155C207.227 196.926 207.047 198.71 206.96 200.5C206.831 203.754 206.923 207.013 207.235 210.255C207.345 211.5 207.46 212.51 207.545 213.205C207.58 213.53 207.61 213.795 207.63 214.005C207.643 214.098 207.643 214.192 207.63 214.285C207.596 214.197 207.574 214.104 207.565 214.01L207.43 213.215C207.32 212.525 207.18 211.52 207.045 210.275C206.68 207.027 206.563 203.756 206.695 200.49C206.782 198.692 206.971 196.901 207.26 195.125C207.505 193.675 207.849 192.243 208.29 190.84C208.39 190.54 208.47 190.25 208.57 189.985L208.855 189.24L209.11 188.595C209.195 188.4 209.285 188.225 209.36 188.065L209.715 187.34C209.755 187.251 209.805 187.167 209.865 187.09Z" fill="#263238"/>
<path d="M209 177.81C208.976 177.94 208.939 178.067 208.89 178.19C208.8 178.455 208.68 178.81 208.525 179.255L208.26 180.025C208.17 180.31 208.08 180.62 207.98 180.95C207.775 181.615 207.54 182.37 207.33 183.22C207.215 183.64 207.1 184.085 206.98 184.545C206.86 185.005 206.765 185.495 206.65 185.995C206.405 186.995 206.23 188.08 206.005 189.215C205.62 191.49 205.285 194.01 205.05 196.67C204.815 199.33 204.735 201.87 204.7 204.17C204.665 206.47 204.7 208.565 204.82 210.315C204.85 211.19 204.905 211.98 204.95 212.67C204.995 213.36 205.035 213.96 205.075 214.45C205.115 214.94 205.14 215.295 205.165 215.575C205.177 215.705 205.177 215.835 205.165 215.965C205.132 215.839 205.112 215.71 205.105 215.58C205.07 215.3 205.025 214.925 204.97 214.46C204.915 213.995 204.855 213.375 204.8 212.68C204.745 211.985 204.675 211.18 204.63 210.325C204.515 208.575 204.465 206.49 204.46 204.17C204.455 201.85 204.57 199.305 204.795 196.64C205.02 193.975 205.375 191.445 205.77 189.165C206.005 188.025 206.185 186.94 206.44 185.94C206.56 185.44 206.67 184.94 206.78 184.49C206.89 184.04 207.03 183.585 207.15 183.16C207.37 182.315 207.62 181.56 207.835 180.9C207.945 180.57 208.045 180.26 208.135 179.975C208.225 179.69 208.335 179.445 208.425 179.215L208.83 178.16C208.877 178.039 208.933 177.922 209 177.81Z" fill="#263238"/>
<path d="M199.89 217.835C199.885 217.79 199.885 217.745 199.89 217.7C199.89 217.6 199.89 217.47 199.86 217.305L199.755 215.805C199.67 214.465 199.555 212.56 199.405 210.215C199.105 205.495 198.665 198.975 197.87 191.805C197.465 188.225 196.995 184.805 196.505 181.735C196.245 180.19 196.005 178.735 195.74 177.36C195.475 175.985 195.24 174.73 194.99 173.57C194.74 172.41 194.49 171.375 194.3 170.46C194.11 169.545 193.9 168.755 193.74 168.115L193.375 166.615C193.34 166.46 193.31 166.33 193.29 166.23C193.276 166.186 193.267 166.141 193.265 166.095C193.285 166.136 193.301 166.18 193.31 166.225C193.34 166.325 193.38 166.45 193.425 166.605C193.52 166.955 193.66 167.45 193.83 168.07C194 168.69 194.22 169.49 194.435 170.405C194.65 171.32 194.935 172.355 195.16 173.515C195.385 174.675 195.69 175.935 195.945 177.305C196.2 178.675 196.445 180.135 196.73 181.675C197.23 184.765 197.73 188.175 198.12 191.76C198.915 198.935 199.325 205.46 199.58 210.185C199.71 212.545 199.8 214.455 199.85 215.78C199.85 216.425 199.895 216.935 199.91 217.28C199.91 217.44 199.91 217.57 199.91 217.675C199.911 217.729 199.905 217.783 199.89 217.835Z" fill="#263238"/>
<path d="M201.81 170.065C201.66 168.44 200.02 167.215 198.385 167.2C196.75 167.185 195.23 168.16 194.235 169.45C193.295 170.791 192.616 172.297 192.235 173.89C191.135 177.72 190.535 181.745 191.005 185.7C191.475 189.655 193.08 193.55 195.915 196.35C196.38 196.805 196.975 197.255 197.61 197.12C197.952 197.02 198.261 196.83 198.505 196.57C201.284 194.024 203.487 190.914 204.966 187.447C206.445 183.981 207.166 180.238 207.08 176.47C207.035 174.97 206.84 173.4 206.005 172.15C205.17 170.9 203.23 169.565 201.81 170.065Z" fill="#18A0A0"/>
<path d="M189.62 157.045L187.32 161.21C187.27 161.305 187.195 161.415 187.085 161.425C186.975 161.435 186.875 161.32 186.81 161.22L180.73 151.89L182.13 151.095L189.62 157.045Z" fill="#18A0A0"/>
<g opacity="0.2">
<path d="M189.62 157.045L187.32 161.21C187.27 161.305 187.195 161.415 187.085 161.425C186.975 161.435 186.875 161.32 186.81 161.22L180.73 151.89L182.13 151.095L189.62 157.045Z" fill="black"/>
</g>
<path d="M201.955 164.55L181.215 152.315C180.993 152.215 180.815 152.037 180.715 151.815C180.703 151.656 180.73 151.497 180.795 151.351C180.859 151.205 180.959 151.078 181.085 150.98C182.511 149.501 184.238 148.347 186.15 147.596C188.063 146.846 190.114 146.516 192.165 146.63C194.212 146.78 196.192 147.426 197.934 148.511C199.676 149.596 201.128 151.089 202.165 152.86C204.165 156.435 204.235 161.165 201.94 164.56" fill="#18A0A0"/>
<path d="M184.205 148.405C184.294 148.385 184.384 148.375 184.475 148.375C184.655 148.375 184.92 148.33 185.26 148.335C186.223 148.324 187.186 148.401 188.135 148.565C189.549 148.803 190.927 149.221 192.235 149.81C194.496 150.828 196.504 152.333 198.116 154.217C199.728 156.101 200.904 158.319 201.56 160.71C201.812 161.64 201.98 162.59 202.06 163.55C202.095 163.89 202.09 164.155 202.1 164.335C202.114 164.425 202.114 164.516 202.1 164.605C202.1 164.605 202.055 164.23 201.97 163.56C201.56 159.926 199.99 156.52 197.491 153.85C194.992 151.179 191.699 149.385 188.1 148.735C187.161 148.558 186.21 148.456 185.255 148.43C184.58 148.415 184.205 148.43 184.205 148.405Z" fill="#263238"/>
<path d="M199.145 156.105C198.816 156.312 198.463 156.48 198.095 156.605C197.435 156.865 196.515 157.2 195.48 157.525C194.445 157.85 193.48 158.115 192.81 158.285C192.443 158.4 192.064 158.472 191.68 158.5C192.027 158.334 192.391 158.205 192.765 158.115L195.405 157.29L198.04 156.44C198.395 156.288 198.765 156.176 199.145 156.105Z" fill="#263238"/>
<path d="M195.88 147.33C196.063 148.087 196.146 148.866 196.125 149.645C196.185 150.422 196.143 151.204 196 151.97C195.893 151.202 195.851 150.425 195.875 149.65C195.815 148.878 195.817 148.102 195.88 147.33Z" fill="#263238"/>
<path d="M181.035 152.08C181.519 151.862 182.021 151.684 182.535 151.55C183.48 151.26 184.79 150.89 186.25 150.55C187.71 150.21 189.05 149.925 190.02 149.755C190.541 149.637 191.071 149.567 191.605 149.545C191.098 149.709 190.58 149.838 190.055 149.93C189.095 150.145 187.77 150.43 186.31 150.79C184.85 151.15 183.535 151.485 182.585 151.73C182.077 151.883 181.559 152 181.035 152.08Z" fill="#263238"/>
<path d="M192.39 166.22C190.605 164.865 188.72 164.6 186.485 164.69C184.238 164.836 182.039 165.4 180 166.355C176.5 167.89 173.215 170.145 171.13 173.355C169.045 176.565 168.31 180.78 169.875 184.26C169.996 184.625 170.25 184.932 170.585 185.12C170.973 185.232 171.389 185.2 171.755 185.03C175.73 183.735 179.755 182.425 183.395 180.395C187.035 178.365 190.395 175.535 192.34 171.84C192.844 170.969 193.166 170.004 193.285 169.005C193.341 168.505 193.288 167.998 193.13 167.52C192.972 167.042 192.713 166.604 192.37 166.235" fill="#18A0A0"/>
<path d="M192.425 165.8C192.333 165.846 192.238 165.885 192.14 165.915L191.305 166.2L190.705 166.405C190.485 166.48 190.25 166.58 190 166.68C189.5 166.88 188.91 167.085 188.295 167.385L187.32 167.825C186.98 167.985 186.645 168.175 186.285 168.36C185.565 168.71 184.835 169.165 184.06 169.625C182.402 170.668 180.827 171.838 179.35 173.125C177.89 174.429 176.531 175.841 175.285 177.35C174.735 178.065 174.19 178.73 173.75 179.4C173.52 179.73 173.29 180.04 173.09 180.355L172.525 181.27C172.15 181.84 171.875 182.395 171.61 182.865L171.245 183.53L170.97 184.105L170.58 184.895C170.54 184.989 170.49 185.078 170.43 185.16C170.452 185.061 170.487 184.965 170.535 184.875L170.885 184.06C170.96 183.885 171.05 183.69 171.14 183.48C171.23 183.27 171.36 183.045 171.485 182.8C171.74 182.3 171.985 181.76 172.375 181.18L172.93 180.255C173.125 179.935 173.355 179.62 173.58 179.28C174.015 178.605 174.555 177.93 175.11 177.21C177.578 174.126 180.567 171.496 183.94 169.44C184.725 168.98 185.465 168.535 186.19 168.185C186.555 168.005 186.895 167.815 187.24 167.685L188.24 167.25C188.865 166.96 189.455 166.75 189.965 166.575L190.68 166.32L191.29 166.14L192.14 165.895C192.231 165.853 192.327 165.821 192.425 165.8Z" fill="#263238"/>
<path d="M178.5 173.345C177.081 173.888 175.634 174.354 174.165 174.74C172.718 175.208 171.245 175.595 169.755 175.9C171.176 175.357 172.624 174.892 174.095 174.505C175.541 174.038 177.012 173.651 178.5 173.345Z" fill="#263238"/>
<path d="M178.315 182.92C178.237 182.473 178.205 182.019 178.22 181.565C178.195 180.73 178.19 179.565 178.22 178.3C178.25 177.035 178.325 175.87 178.395 175.035C178.41 174.584 178.467 174.135 178.565 173.695C178.605 174.144 178.605 174.596 178.565 175.045C178.565 175.965 178.505 177.075 178.465 178.305C178.425 179.535 178.405 180.65 178.385 181.565C178.399 182.018 178.375 182.471 178.315 182.92Z" fill="#263238"/>
<path d="M186.5 178.74C186.43 178.74 186.215 176.395 186 173.495C185.785 170.595 185.69 168.24 185.76 168.235C185.83 168.23 186.045 170.58 186.26 173.48C186.475 176.38 186.585 178.735 186.5 178.74Z" fill="#263238"/>
<path d="M176.305 168C176.766 167.942 177.231 167.927 177.695 167.955C178.555 167.955 179.74 167.99 181.045 168.03C182.35 168.07 183.545 168.125 184.39 168.18C184.855 168.182 185.318 168.226 185.775 168.31C185.314 168.368 184.849 168.383 184.385 168.355C183.53 168.355 182.345 168.325 181.035 168.28C179.725 168.235 178.535 168.185 177.69 168.13C177.225 168.128 176.762 168.084 176.305 168Z" fill="#263238"/>
<path d="M196.805 197.465C196.788 197.371 196.778 197.276 196.775 197.18C196.775 196.97 196.775 196.68 196.74 196.365C196.71 195.66 196.7 194.635 196.74 193.365C196.78 192.095 196.845 190.595 196.995 188.925C197.145 187.255 197.39 185.425 197.725 183.525C198.06 181.625 198.48 179.82 198.905 178.2C199.33 176.58 199.785 175.14 200.2 173.945C200.615 172.75 200.97 171.785 201.245 171.13L201.56 170.38C201.593 170.291 201.635 170.206 201.685 170.125C201.671 170.219 201.645 170.312 201.61 170.4C201.535 170.6 201.445 170.855 201.335 171.165C201.09 171.83 200.755 172.795 200.365 174C199.975 175.205 199.55 176.645 199.125 178.26C198.7 179.875 198.31 181.67 197.97 183.565C197.63 185.46 197.395 187.285 197.225 188.945C197.055 190.605 196.96 192.11 196.915 193.375C196.87 194.64 196.845 195.66 196.845 196.375C196.845 196.705 196.845 196.975 196.845 197.19C196.843 197.283 196.829 197.375 196.805 197.465Z" fill="#263238"/>
<path d="M197.9 183.315C197.66 183.648 197.383 183.953 197.075 184.225C196.535 184.76 195.775 185.475 194.905 186.225C194.035 186.975 193.225 187.65 192.625 188.11C192.317 188.378 191.982 188.612 191.625 188.81C191.892 188.514 192.184 188.243 192.5 188L194.725 186.06L196.94 184.105C197.234 183.812 197.555 183.547 197.9 183.315Z" fill="#263238"/>
<path d="M204.465 188.605C204.142 188.221 203.848 187.813 203.585 187.385L201.535 184.385L199.44 181.425C199.13 181.031 198.85 180.613 198.605 180.175C198.972 180.526 199.306 180.909 199.605 181.32C200.18 182.05 200.95 183.08 201.76 184.245C202.57 185.41 203.26 186.49 203.76 187.285C204.035 187.702 204.271 188.144 204.465 188.605Z" fill="#263238"/>
<path d="M201.025 172C201.065 172.055 198.885 173.525 196.155 175.28C193.425 177.035 191.19 178.405 191.155 178.345C191.12 178.285 193.3 176.82 196.025 175.07C198.75 173.32 201 171.915 201.025 172Z" fill="#263238"/>
<path d="M207.175 178.61C206.019 177.657 204.918 176.641 203.875 175.565C202.775 174.546 201.732 173.468 200.75 172.335C201.903 173.292 203.005 174.31 204.05 175.385C205.151 176.401 206.194 177.478 207.175 178.61Z" fill="#263238"/>
<path d="M208.72 178.5L210.59 178.345C211.919 178.237 213.208 177.843 214.37 177.19C214.938 176.856 215.528 176.561 216.135 176.305C218.45 175.375 221.03 175.54 223.52 175.415C227.598 175.21 231.593 174.19 235.27 172.415C235.479 172.313 235.653 172.151 235.77 171.95C236.155 171.25 235.44 170.625 234.825 170.245C231.67 168.3 228.46 166.335 224.885 165.37C221.31 164.405 217.25 164.57 214.2 166.67C210.615 169.135 209.31 174.17 208.7 178.5" fill="#18A0A0"/>
<path d="M235.825 171.695C235.716 171.654 235.61 171.604 235.51 171.545L234.62 171.08C233.85 170.675 232.745 170.08 231.345 169.41C229.715 168.608 228.017 167.954 226.27 167.455C224.138 166.841 221.904 166.659 219.7 166.92C217.489 167.165 215.401 168.062 213.7 169.495C212.373 170.727 211.311 172.218 210.58 173.875C210.07 174.99 209.616 176.13 209.22 177.29C209.085 177.68 208.97 177.995 208.89 178.235C208.856 178.348 208.811 178.456 208.755 178.56C208.776 178.445 208.805 178.332 208.84 178.22L209.13 177.26C209.488 176.083 209.919 174.929 210.42 173.805C211.137 172.103 212.204 170.57 213.55 169.305C215.277 167.833 217.405 166.912 219.66 166.66C221.898 166.397 224.166 166.585 226.33 167.215C228.083 167.724 229.785 168.393 231.415 169.215C232.81 169.91 233.915 170.53 234.665 170.96L235.53 171.46C235.638 171.526 235.737 171.605 235.825 171.695Z" fill="#263238"/>
<path d="M231.33 174.11C231.29 174.165 228.83 172.58 225.865 170.57C222.9 168.56 220.495 166.885 220.535 166.83C220.575 166.775 223.035 168.33 226 170.365C228.965 172.4 231.37 174.05 231.33 174.11Z" fill="#263238"/>
<path d="M229 166.595C228.389 166.828 227.743 166.956 227.09 166.975C226.443 167.077 225.784 167.069 225.14 166.95C225.774 166.823 226.418 166.749 227.065 166.73C227.705 166.63 228.352 166.585 229 166.595Z" fill="#263238"/>
<path d="M218 164.625C217.802 165.194 217.532 165.735 217.195 166.235C216.931 166.778 216.595 167.283 216.195 167.735C216.393 167.166 216.663 166.625 217 166.125C217.265 165.583 217.601 165.078 218 164.625Z" fill="#263238"/>
<path d="M220.195 175.55C219.782 175.379 219.388 175.164 219.02 174.91C218.31 174.48 217.355 173.855 216.335 173.11C215.315 172.365 214.41 171.67 213.765 171.155C213.407 170.894 213.073 170.603 212.765 170.285C213.162 170.491 213.537 170.735 213.885 171.015L216.495 172.91C217.495 173.65 218.45 174.3 219.13 174.765C219.506 174.996 219.863 175.259 220.195 175.55Z" fill="#263238"/>
<path d="M211.5 186.43C209.715 185.96 207.59 187.695 207.22 189.505C206.85 191.315 207.53 193.165 208.325 194.83C210.016 198.568 212.532 201.874 215.685 204.5C218.88 207.05 222.885 208.68 226.97 208.655C226.215 205.155 227.17 201.49 226.75 197.93C226.382 194.791 224.958 191.87 222.712 189.647C220.467 187.423 217.532 186.028 214.39 185.69C213.25 185.565 211.93 185.385 211.475 186.44" fill="#18A0A0"/>
<path d="M226.97 208.645C226.882 208.618 226.798 208.58 226.72 208.53C226.484 208.4 226.26 208.25 226.05 208.08C225.301 207.43 224.699 206.627 224.285 205.725C224 205.17 223.685 204.57 223.375 203.905C223.065 203.24 222.75 202.53 222.415 201.78C222.067 201.002 221.673 200.246 221.235 199.515C220.751 198.738 220.207 197.999 219.61 197.305C218.385 195.87 217.075 194.625 215.94 193.44C214.911 192.403 213.974 191.279 213.14 190.08C212.581 189.268 212.121 188.392 211.77 187.47C211.678 187.219 211.6 186.964 211.535 186.705C211.508 186.615 211.488 186.523 211.475 186.43C211.5 186.43 211.6 186.795 211.86 187.43C212.242 188.327 212.72 189.18 213.285 189.975C214.132 191.15 215.074 192.253 216.1 193.275C217.245 194.45 218.565 195.69 219.8 197.14C220.404 197.843 220.952 198.592 221.44 199.38C221.882 200.122 222.276 200.892 222.62 201.685L223.56 203.815C223.86 204.475 224.17 205.08 224.445 205.635C224.834 206.528 225.4 207.333 226.11 208C226.635 208.455 227 208.625 226.97 208.645Z" fill="#263238"/>
<path d="M217.74 205.735C217.748 205.328 217.803 204.924 217.905 204.53C218.045 203.795 218.275 202.785 218.58 201.69C218.885 200.595 219.225 199.605 219.49 198.905C219.613 198.517 219.781 198.144 219.99 197.795C219.921 198.194 219.814 198.586 219.67 198.965C219.45 199.675 219.145 200.66 218.835 201.755C218.525 202.85 218.275 203.845 218.09 204.57C218.009 204.968 217.892 205.358 217.74 205.735Z" fill="#263238"/>
<path d="M226.635 197.13C226.207 197.07 225.786 196.973 225.375 196.84C224.605 196.64 223.545 196.365 222.375 196.095C221.205 195.825 220.115 195.625 219.335 195.475C218.908 195.421 218.486 195.329 218.075 195.2C218.507 195.187 218.94 195.22 219.365 195.3C220.155 195.405 221.245 195.585 222.43 195.855C223.615 196.125 224.68 196.425 225.43 196.67C225.848 196.777 226.252 196.932 226.635 197.13Z" fill="#263238"/>
<path d="M211.115 199.63C211.132 199.161 211.197 198.695 211.31 198.24C211.465 197.385 211.715 196.215 212.05 194.935C212.385 193.655 212.74 192.51 213.015 191.69C213.137 191.238 213.304 190.799 213.515 190.38C213.434 190.841 213.319 191.296 213.17 191.74C212.935 192.575 212.605 193.74 212.275 194.995C211.945 196.25 211.665 197.435 211.465 198.275C211.385 198.735 211.268 199.189 211.115 199.63Z" fill="#263238"/>
<path d="M222.54 189.63C222.54 189.7 220.3 189.515 217.54 189.225C215.88 189.092 214.228 188.875 212.59 188.575C212.59 188.51 214.825 188.69 217.565 188.98C219.233 189.112 220.894 189.329 222.54 189.63Z" fill="#263238"/>
<path d="M220.905 216.66C220.905 216.725 213.07 216.78 203.405 216.78C193.74 216.78 185.905 216.725 185.905 216.66C185.905 216.595 193.735 216.535 203.405 216.535C213.075 216.535 220.905 216.59 220.905 216.66Z" fill="#455A64"/>
<path d="M215.455 226.74C215.455 226.81 210.175 226.865 203.665 226.865C197.155 226.865 191.875 226.81 191.875 226.74C191.875 226.67 197.15 226.615 203.665 226.615C210.18 226.615 215.455 226.67 215.455 226.74Z" fill="#455A64"/>
<path d="M215.66 228.18C215.66 228.25 210.38 228.305 203.87 228.305C197.36 228.305 192.08 228.25 192.08 228.18C192.08 228.11 197.36 228.055 203.87 228.055C210.38 228.055 215.66 228.115 215.66 228.18Z" fill="#455A64"/>
<path d="M215.66 225.55C215.66 225.62 210.2 225.675 203.465 225.675C196.73 225.675 191.27 225.62 191.27 225.55C191.27 225.48 196.73 225.43 203.465 225.43C210.2 225.43 215.66 225.5 215.66 225.55Z" fill="#455A64"/>
<path d="M230.615 241.19C230.615 241.265 183.325 241.32 125.005 241.32C66.685 241.32 19.385 241.265 19.385 241.19C19.385 241.115 66.665 241.06 125.005 241.06C183.345 241.06 230.615 241.12 230.615 241.19Z" fill="#263238"/>
</svg>
