<svg width="14" height="13" viewBox="0 0 14 13" fill="none" xmlns="http://www.w3.org/2000/svg">
<path d="M13.8001 10.7557L8.33444 1.26379C8.19785 1.03124 8.00287 0.838428 7.76881 0.704454C7.53476 0.57048 7.26975 0.5 7.00006 0.5C6.73037 0.5 6.46536 0.57048 6.23131 0.704454C5.99725 0.838428 5.80227 1.03124 5.66569 1.26379L0.20006 10.7557C0.0686451 10.9806 -0.000610352 11.2364 -0.000610352 11.4969C-0.000610352 11.7574 0.0686451 12.0132 0.20006 12.2382C0.334892 12.4721 0.529541 12.666 0.764036 12.7999C0.99853 12.9338 1.26442 13.0028 1.53444 13H12.4657C12.7355 13.0026 13.0011 12.9334 13.2354 12.7996C13.4696 12.6657 13.6641 12.4719 13.7988 12.2382C13.9304 12.0134 13.9999 11.7576 14.0001 11.4971C14.0003 11.2366 13.9313 10.9807 13.8001 10.7557ZM12.9332 11.7375C12.8855 11.8188 12.8171 11.886 12.735 11.9321C12.6528 11.9782 12.5599 12.0017 12.4657 12H1.53444C1.44023 12.0017 1.34729 11.9782 1.26514 11.9321C1.18299 11.886 1.11458 11.8188 1.06694 11.7375C1.02378 11.6645 1.00101 11.5812 1.00101 11.4963C1.00101 11.4114 1.02378 11.3281 1.06694 11.255L6.53256 1.76317C6.58117 1.68227 6.64989 1.61534 6.73203 1.56887C6.81417 1.5224 6.90694 1.49797 7.00131 1.49797C7.09568 1.49797 7.18845 1.5224 7.27059 1.56887C7.35273 1.61534 7.42145 1.68227 7.47006 1.76317L12.9357 11.255C12.9785 11.3283 13.0008 11.4118 13.0004 11.4966C12.9999 11.5815 12.9767 11.6647 12.9332 11.7375ZM6.50006 8.00004V5.50004C6.50006 5.36743 6.55274 5.24026 6.64651 5.14649C6.74027 5.05272 6.86745 5.00004 7.00006 5.00004C7.13267 5.00004 7.25985 5.05272 7.35361 5.14649C7.44738 5.24026 7.50006 5.36743 7.50006 5.50004V8.00004C7.50006 8.13265 7.44738 8.25983 7.35361 8.35359C7.25985 8.44736 7.13267 8.50004 7.00006 8.50004C6.86745 8.50004 6.74027 8.44736 6.64651 8.35359C6.55274 8.25983 6.50006 8.13265 6.50006 8.00004ZM7.75006 10.25C7.75006 10.3984 7.70607 10.5434 7.62366 10.6667C7.54125 10.7901 7.42412 10.8862 7.28707 10.943C7.15003 10.9997 6.99923 11.0146 6.85374 10.9856C6.70826 10.9567 6.57462 10.8853 6.46973 10.7804C6.36484 10.6755 6.29341 10.5418 6.26447 10.3964C6.23553 10.2509 6.25038 10.1001 6.30715 9.96303C6.36392 9.82598 6.46005 9.70885 6.58338 9.62644C6.70672 9.54403 6.85172 9.50004 7.00006 9.50004C7.19897 9.50004 7.38974 9.57906 7.53039 9.71971C7.67104 9.86036 7.75006 10.0511 7.75006 10.25Z" fill="#FF1B0A"/>
</svg>