<svg width="22" height="19" viewBox="0 0 22 19" fill="none" xmlns="http://www.w3.org/2000/svg">
<path d="M21.2 15.6334L13.0016 1.39563C12.7967 1.04681 12.5042 0.757581 12.1532 0.55662C11.8021 0.355659 11.4046 0.249939 11 0.249939C10.5955 0.249939 10.198 0.355659 9.8469 0.55662C9.49581 0.757581 9.20334 1.04681 8.99847 1.39563L0.800029 15.6334C0.602907 15.9708 0.499023 16.3546 0.499023 16.7453C0.499023 17.1361 0.602907 17.5198 0.800029 17.8572C1.00228 18.2081 1.29425 18.4989 1.64599 18.6997C1.99773 18.9006 2.39658 19.0042 2.80159 19H19.1985C19.6032 19.0039 20.0016 18.9001 20.353 18.6993C20.7044 18.4985 20.9961 18.2078 21.1982 17.8572C21.3956 17.52 21.4998 17.1363 21.5001 16.7456C21.5004 16.3548 21.3969 15.971 21.2 15.6334ZM10.25 7.75C10.25 7.55109 10.329 7.36032 10.4697 7.21967C10.6104 7.07902 10.8011 7 11 7C11.1989 7 11.3897 7.07902 11.5304 7.21967C11.671 7.36032 11.75 7.55109 11.75 7.75V11.5C11.75 11.6989 11.671 11.8897 11.5304 12.0303C11.3897 12.171 11.1989 12.25 11 12.25C10.8011 12.25 10.6104 12.171 10.4697 12.0303C10.329 11.8897 10.25 11.6989 10.25 11.5V7.75ZM11 16C10.7775 16 10.56 15.934 10.375 15.8104C10.19 15.6868 10.0458 15.5111 9.96066 15.3055C9.87552 15.1 9.85324 14.8738 9.89665 14.6555C9.94005 14.4373 10.0472 14.2368 10.2045 14.0795C10.3619 13.9222 10.5623 13.815 10.7806 13.7716C10.9988 13.7282 11.225 13.7505 11.4305 13.8356C11.6361 13.9208 11.8118 14.065 11.9354 14.25C12.059 14.435 12.125 14.6525 12.125 14.875C12.125 15.1734 12.0065 15.4595 11.7955 15.6705C11.5845 15.8815 11.2984 16 11 16Z" fill="#E00F00"/>
</svg>
