<svg width="20" height="20" viewBox="0 0 20 20" fill="none" xmlns="http://www.w3.org/2000/svg">
<path d="M10 0.25C8.07164 0.25 6.18657 0.821828 4.58319 1.89317C2.97982 2.96451 1.73013 4.48726 0.992179 6.26884C0.254225 8.05042 0.061142 10.0108 0.437348 11.9021C0.813554 13.7934 1.74215 15.5307 3.10571 16.8943C4.46928 18.2579 6.20656 19.1865 8.09787 19.5627C9.98919 19.9389 11.9496 19.7458 13.7312 19.0078C15.5127 18.2699 17.0355 17.0202 18.1068 15.4168C19.1782 13.8134 19.75 11.9284 19.75 10C19.7473 7.41498 18.7192 4.93661 16.8913 3.10872C15.0634 1.28084 12.585 0.25273 10 0.25ZM4.945 16.5156C5.48757 15.6671 6.23501 14.9688 7.11843 14.4851C8.00185 14.0013 8.99283 13.7478 10 13.7478C11.0072 13.7478 11.9982 14.0013 12.8816 14.4851C13.765 14.9688 14.5124 15.6671 15.055 16.5156C13.6097 17.6397 11.831 18.2499 10 18.2499C8.16905 18.2499 6.39032 17.6397 4.945 16.5156ZM7 9.25C7 8.65666 7.17595 8.07664 7.5056 7.58329C7.83524 7.08994 8.30378 6.70542 8.85195 6.47836C9.40013 6.2513 10.0033 6.19189 10.5853 6.30764C11.1672 6.4234 11.7018 6.70912 12.1213 7.12868C12.5409 7.54824 12.8266 8.08279 12.9424 8.66473C13.0581 9.24667 12.9987 9.84987 12.7716 10.3981C12.5446 10.9462 12.1601 11.4148 11.6667 11.7444C11.1734 12.0741 10.5933 12.25 10 12.25C9.20436 12.25 8.44129 11.9339 7.87868 11.3713C7.31607 10.8087 7 10.0456 7 9.25ZM16.165 15.4759C15.3285 14.2638 14.1524 13.3261 12.7844 12.7806C13.5192 12.2019 14.0554 11.4085 14.3184 10.5108C14.5815 9.6132 14.5582 8.6559 14.252 7.77207C13.9457 6.88825 13.3716 6.12183 12.6096 5.5794C11.8475 5.03696 10.9354 4.74548 10 4.74548C9.06462 4.74548 8.15248 5.03696 7.39044 5.5794C6.62839 6.12183 6.05432 6.88825 5.74805 7.77207C5.44179 8.6559 5.41855 9.6132 5.68157 10.5108C5.94459 11.4085 6.4808 12.2019 7.21563 12.7806C5.84765 13.3261 4.67147 14.2638 3.835 15.4759C2.77804 14.2873 2.0872 12.8185 1.84567 11.2464C1.60415 9.67427 1.82224 8.06584 2.47368 6.61478C3.12512 5.16372 4.18213 3.93192 5.51745 3.06769C6.85276 2.20346 8.40943 1.74367 10 1.74367C11.5906 1.74367 13.1473 2.20346 14.4826 3.06769C15.8179 3.93192 16.8749 5.16372 17.5263 6.61478C18.1778 8.06584 18.3959 9.67427 18.1543 11.2464C17.9128 12.8185 17.222 14.2873 16.165 15.4759Z" fill="#18A0A0"/>
</svg>
